<svg width="695" height="105" viewBox="0 0 695 105" fill="none" xmlns="http://www.w3.org/2000/svg">
<rect width="695" height="105" rx="8" fill="#E4F3F5"/>
<path d="M10.684 13.324C10.684 12.38 10.964 11.644 11.524 11.116C12.092 10.58 12.908 10.312 13.972 10.312C14.868 10.312 15.568 10.484 16.072 10.828C16.584 11.164 16.948 11.676 17.164 12.364C17.196 12.452 17.2 12.52 17.176 12.568C17.16 12.608 17.108 12.644 17.02 12.676L16.648 12.808C16.496 12.848 16.392 12.8 16.336 12.664C16.168 12.128 15.9 11.736 15.532 11.488C15.172 11.24 14.652 11.116 13.972 11.116C13.188 11.116 12.588 11.308 12.172 11.692C11.764 12.076 11.56 12.616 11.56 13.312V16.168C11.56 16.856 11.768 17.396 12.184 17.788C12.6 18.172 13.196 18.364 13.972 18.364C14.66 18.364 15.188 18.236 15.556 17.98C15.924 17.724 16.192 17.324 16.36 16.78C16.424 16.636 16.528 16.584 16.672 16.624L17.044 16.768C17.188 16.824 17.236 16.924 17.188 17.068C16.972 17.764 16.608 18.288 16.096 18.64C15.584 18.992 14.876 19.168 13.972 19.168C12.924 19.168 12.112 18.904 11.536 18.376C10.968 17.84 10.684 17.1 10.684 16.156V13.324ZM19.2729 18.784C19.2729 18.864 19.2569 18.92 19.2249 18.952C19.2009 18.984 19.1449 19 19.0569 19H18.6849C18.6049 19 18.5489 18.984 18.5169 18.952C18.4849 18.92 18.4689 18.864 18.4689 18.784V10.336C18.4689 10.256 18.4849 10.2 18.5169 10.168C18.5489 10.136 18.6049 10.12 18.6849 10.12H19.0569C19.1449 10.12 19.2009 10.136 19.2249 10.168C19.2569 10.2 19.2729 10.256 19.2729 10.336V18.784ZM20.7613 13.912C21.2093 13.072 22.0133 12.652 23.1733 12.652C24.0613 12.652 24.6813 12.868 25.0333 13.3C25.3933 13.724 25.5733 14.3 25.5733 15.028V18.172C25.5733 18.38 25.5413 18.528 25.4773 18.616C25.4213 18.704 25.3093 18.784 25.1413 18.856C24.6613 19.064 23.9973 19.168 23.1493 19.168C22.1573 19.168 21.4773 19.02 21.1093 18.724C20.7413 18.42 20.5573 17.948 20.5573 17.308C20.5573 16.628 20.7573 16.148 21.1573 15.868C21.5653 15.588 22.2453 15.448 23.1973 15.448C23.5253 15.448 24.0493 15.488 24.7693 15.568V15.016C24.7693 14.496 24.6493 14.092 24.4093 13.804C24.1773 13.516 23.7573 13.372 23.1493 13.372C22.3573 13.372 21.7973 13.664 21.4693 14.248C21.3813 14.368 21.2813 14.4 21.1693 14.344L20.8813 14.224C20.7293 14.168 20.6893 14.064 20.7613 13.912ZM24.7693 16.228C24.0493 16.156 23.4973 16.12 23.1133 16.12C22.4813 16.12 22.0333 16.212 21.7693 16.396C21.5133 16.58 21.3853 16.88 21.3853 17.296C21.3853 17.704 21.5013 18.008 21.7333 18.208C21.9733 18.4 22.4253 18.496 23.0893 18.496C23.6973 18.496 24.1813 18.432 24.5413 18.304C24.6373 18.264 24.6973 18.224 24.7213 18.184C24.7533 18.144 24.7693 18.068 24.7693 17.956V16.228ZM27.4899 10.624C27.6579 10.624 27.7739 10.656 27.8379 10.72C27.9019 10.784 27.9339 10.9 27.9339 11.068V11.152C27.9339 11.32 27.9019 11.436 27.8379 11.5C27.7739 11.564 27.6579 11.596 27.4899 11.596H27.4179C27.2499 11.596 27.1339 11.564 27.0699 11.5C27.0059 11.436 26.9739 11.32 26.9739 11.152V11.068C26.9739 10.9 27.0059 10.784 27.0699 10.72C27.1339 10.656 27.2499 10.624 27.4179 10.624H27.4899ZM27.6459 12.832C27.7899 12.832 27.8619 12.904 27.8619 13.048V18.784C27.8619 18.928 27.7899 19 27.6459 19H27.2619C27.1179 19 27.0459 18.928 27.0459 18.784V13.048C27.0459 12.904 27.1179 12.832 27.2619 12.832H27.6459ZM33.3483 13.168C34.1083 12.824 34.8323 12.652 35.5203 12.652C36.9843 12.652 37.7163 13.412 37.7163 14.932V18.784C37.7163 18.864 37.7003 18.92 37.6683 18.952C37.6443 18.984 37.5883 19 37.5003 19H37.1283C37.0483 19 36.9923 18.984 36.9603 18.952C36.9283 18.92 36.9123 18.864 36.9123 18.784V14.968C36.9123 13.92 36.4163 13.396 35.4243 13.396C34.8563 13.396 34.3123 13.532 33.7923 13.804C33.9443 14.1 34.0203 14.476 34.0203 14.932V18.784C34.0203 18.864 34.0043 18.92 33.9723 18.952C33.9483 18.984 33.8923 19 33.8043 19H33.4323C33.3523 19 33.2963 18.984 33.2643 18.952C33.2323 18.92 33.2163 18.864 33.2163 18.784V14.968C33.2163 13.92 32.7083 13.396 31.6923 13.396C31.2203 13.396 30.8003 13.476 30.4323 13.636C30.3043 13.692 30.2402 13.8 30.2402 13.96V18.784C30.2402 18.928 30.1683 19 30.0243 19H29.6403C29.4963 19 29.4243 18.928 29.4243 18.784V13.72C29.4243 13.536 29.4563 13.396 29.5203 13.3C29.5843 13.204 29.7043 13.116 29.8803 13.036C30.4563 12.78 31.0963 12.652 31.8003 12.652C32.4723 12.652 32.9883 12.824 33.3483 13.168ZM39.0288 15.184C39.0288 14.384 39.2528 13.764 39.7008 13.324C40.1568 12.876 40.8168 12.652 41.6808 12.652C42.5528 12.652 43.2128 12.88 43.6608 13.336C44.1168 13.784 44.3448 14.384 44.3448 15.136V15.796C44.3448 16.02 44.2248 16.132 43.9848 16.132H39.8328V16.828C39.8328 17.348 39.9848 17.752 40.2888 18.04C40.6008 18.328 41.0488 18.472 41.6328 18.472C42.5208 18.472 43.1488 18.14 43.5168 17.476C43.6128 17.348 43.7288 17.32 43.8648 17.392L44.1168 17.524C44.2688 17.604 44.2968 17.72 44.2008 17.872C43.7208 18.736 42.8648 19.168 41.6328 19.168C40.7608 19.168 40.1088 18.952 39.6768 18.52C39.2448 18.088 39.0288 17.496 39.0288 16.744V15.184ZM43.5408 15.088C43.5408 14.544 43.3808 14.12 43.0608 13.816C42.7488 13.504 42.2888 13.348 41.6808 13.348C41.0808 13.348 40.6208 13.504 40.3008 13.816C39.9888 14.12 39.8328 14.544 39.8328 15.088V15.508H43.5408V15.088ZM45.4281 15.052C45.4281 14.284 45.6241 13.692 46.0161 13.276C46.4081 12.86 47.0001 12.652 47.7921 12.652C48.3841 12.652 49.0161 12.768 49.6881 13V10.336C49.6881 10.192 49.7601 10.12 49.9041 10.12H50.2761C50.3561 10.12 50.4121 10.136 50.4441 10.168C50.4761 10.2 50.4921 10.256 50.4921 10.336V18.16C50.4921 18.352 50.4601 18.488 50.3961 18.568C50.3401 18.648 50.2161 18.728 50.0241 18.808C49.4561 19.048 48.7641 19.168 47.9481 19.168C46.2681 19.168 45.4281 18.368 45.4281 16.768V15.052ZM49.6881 13.756C49.0721 13.516 48.4881 13.396 47.9361 13.396C46.8001 13.396 46.2321 13.956 46.2321 15.076V16.756C46.2321 17.876 46.8281 18.436 48.0201 18.436C48.5561 18.436 49.0361 18.36 49.4601 18.208C49.5561 18.168 49.6161 18.132 49.6401 18.1C49.6721 18.06 49.6881 17.992 49.6881 17.896V13.756ZM54.7574 13.912C55.2054 13.072 56.0094 12.652 57.1694 12.652C58.0574 12.652 58.6774 12.868 59.0294 13.3C59.3894 13.724 59.5694 14.3 59.5694 15.028V18.172C59.5694 18.38 59.5374 18.528 59.4734 18.616C59.4174 18.704 59.3054 18.784 59.1374 18.856C58.6574 19.064 57.9934 19.168 57.1454 19.168C56.1534 19.168 55.4734 19.02 55.1054 18.724C54.7374 18.42 54.5534 17.948 54.5534 17.308C54.5534 16.628 54.7534 16.148 55.1534 15.868C55.5614 15.588 56.2414 15.448 57.1934 15.448C57.5214 15.448 58.0454 15.488 58.7654 15.568V15.016C58.7654 14.496 58.6454 14.092 58.4054 13.804C58.1734 13.516 57.7534 13.372 57.1454 13.372C56.3534 13.372 55.7934 13.664 55.4654 14.248C55.3774 14.368 55.2774 14.4 55.1654 14.344L54.8774 14.224C54.7254 14.168 54.6854 14.064 54.7574 13.912ZM58.7654 16.228C58.0454 16.156 57.4934 16.12 57.1094 16.12C56.4774 16.12 56.0294 16.212 55.7654 16.396C55.5094 16.58 55.3814 16.88 55.3814 17.296C55.3814 17.704 55.4974 18.008 55.7294 18.208C55.9694 18.4 56.4214 18.496 57.0854 18.496C57.6934 18.496 58.1774 18.432 58.5374 18.304C58.6334 18.264 58.6934 18.224 58.7174 18.184C58.7494 18.144 58.7654 18.068 58.7654 17.956V16.228ZM64.942 13.168C65.702 12.824 66.426 12.652 67.114 12.652C68.578 12.652 69.31 13.412 69.31 14.932V18.784C69.31 18.864 69.294 18.92 69.262 18.952C69.238 18.984 69.182 19 69.094 19H68.722C68.642 19 68.586 18.984 68.554 18.952C68.522 18.92 68.506 18.864 68.506 18.784V14.968C68.506 13.92 68.01 13.396 67.018 13.396C66.45 13.396 65.906 13.532 65.386 13.804C65.538 14.1 65.614 14.476 65.614 14.932V18.784C65.614 18.864 65.598 18.92 65.566 18.952C65.542 18.984 65.486 19 65.398 19H65.026C64.946 19 64.89 18.984 64.858 18.952C64.826 18.92 64.81 18.864 64.81 18.784V14.968C64.81 13.92 64.302 13.396 63.286 13.396C62.814 13.396 62.394 13.476 62.026 13.636C61.898 13.692 61.834 13.8 61.834 13.96V18.784C61.834 18.928 61.762 19 61.618 19H61.234C61.09 19 61.018 18.928 61.018 18.784V13.72C61.018 13.536 61.05 13.396 61.114 13.3C61.178 13.204 61.298 13.116 61.474 13.036C62.05 12.78 62.69 12.652 63.394 12.652C64.066 12.652 64.582 12.824 64.942 13.168ZM70.6586 14.86C70.6586 14.172 70.8906 13.632 71.3546 13.24C71.8266 12.848 72.4706 12.652 73.2866 12.652C74.1106 12.652 74.7586 12.848 75.2306 13.24C75.7026 13.632 75.9386 14.172 75.9386 14.86V16.972C75.9386 17.66 75.7026 18.2 75.2306 18.592C74.7586 18.976 74.1106 19.168 73.2866 19.168C72.4706 19.168 71.8266 18.972 71.3546 18.58C70.8906 18.188 70.6586 17.652 70.6586 16.972V14.86ZM75.1226 14.86C75.1226 14.404 74.9586 14.044 74.6306 13.78C74.3026 13.516 73.8546 13.384 73.2866 13.384C72.7266 13.384 72.2826 13.516 71.9546 13.78C71.6266 14.044 71.4626 14.404 71.4626 14.86V16.972C71.4626 17.428 71.6266 17.788 71.9546 18.052C72.2906 18.308 72.7346 18.436 73.2866 18.436C73.8546 18.436 74.3026 18.308 74.6306 18.052C74.9586 17.788 75.1226 17.428 75.1226 16.972V14.86ZM82.1313 12.832C82.2753 12.832 82.3473 12.904 82.3473 13.048V18.112C82.3473 18.296 82.3153 18.432 82.2513 18.52C82.1953 18.608 82.0753 18.692 81.8913 18.772C81.2513 19.036 80.5033 19.168 79.6473 19.168C78.0633 19.168 77.2713 18.388 77.2713 16.828V13.048C77.2713 12.968 77.2873 12.912 77.3193 12.88C77.3513 12.848 77.4073 12.832 77.4873 12.832H77.8593C77.9473 12.832 78.0033 12.848 78.0273 12.88C78.0593 12.912 78.0753 12.968 78.0753 13.048V16.792C78.0753 17.888 78.6353 18.436 79.7553 18.436C80.3553 18.436 80.8753 18.348 81.3153 18.172C81.4593 18.108 81.5313 17.996 81.5313 17.836V13.048C81.5313 12.904 81.6033 12.832 81.7473 12.832H82.1313ZM84.3373 13.06C85.0013 12.788 85.7453 12.652 86.5693 12.652C88.1613 12.652 88.9573 13.436 88.9573 15.004V18.784C88.9573 18.928 88.8853 19 88.7413 19H88.3693C88.2893 19 88.2333 18.984 88.2013 18.952C88.1693 18.92 88.1533 18.864 88.1533 18.784V15.028C88.1533 13.94 87.5933 13.396 86.4733 13.396C85.9053 13.396 85.3733 13.484 84.8773 13.66C84.7573 13.716 84.6973 13.816 84.6973 13.96V18.784C84.6973 18.928 84.6253 19 84.4813 19H84.0973C83.9533 19 83.8813 18.928 83.8813 18.784V13.72C83.8813 13.536 83.9093 13.4 83.9653 13.312C84.0293 13.224 84.1533 13.14 84.3373 13.06ZM91.6212 11.392C91.7092 11.392 91.7652 11.408 91.7892 11.44C91.8212 11.472 91.8372 11.528 91.8372 11.608V12.832H93.5772C93.7212 12.832 93.7932 12.904 93.7932 13.048V13.36C93.7932 13.504 93.7212 13.576 93.5772 13.576H91.8372V16.696C91.8372 17.392 91.9532 17.852 92.1852 18.076C92.4252 18.292 92.8812 18.4 93.5532 18.4C93.6972 18.4 93.7692 18.476 93.7692 18.628V18.952C93.7692 19.032 93.7532 19.088 93.7212 19.12C93.6892 19.152 93.6332 19.168 93.5532 19.168C92.6172 19.184 91.9612 19.02 91.5852 18.676C91.2172 18.324 91.0332 17.672 91.0332 16.72V13.576H89.8932C89.7492 13.576 89.6772 13.504 89.6772 13.36V13.048C89.6772 12.904 89.7492 12.832 89.8932 12.832H91.0332V11.608C91.0332 11.464 91.1052 11.392 91.2492 11.392H91.6212Z" fill="#3C5B7E"/>
<line x1="97" y1="20.5" x2="630" y2="20.5" stroke="#A18EFF" stroke-dasharray="2 2"/>
<path d="M617.677 13.16C618.311 11.62 619.539 10.85 621.359 10.85C622.385 10.85 623.207 11.158 623.823 11.774C624.448 12.3807 624.761 13.1133 624.761 13.972C624.761 14.98 624.481 15.7547 623.921 16.296C623.361 16.8373 622.339 17.402 620.855 17.99C620.836 17.9993 620.766 18.0273 620.645 18.074C620.533 18.1113 620.463 18.1393 620.435 18.158C620.407 18.1673 620.337 18.1953 620.225 18.242C620.122 18.2793 620.052 18.312 620.015 18.34C619.977 18.368 619.917 18.4053 619.833 18.452C619.758 18.4987 619.702 18.5453 619.665 18.592C619.637 18.6293 619.599 18.676 619.553 18.732C619.506 18.788 619.473 18.8487 619.455 18.914C619.445 18.9793 619.441 19.0447 619.441 19.11V19.362H624.117C624.294 19.362 624.415 19.3993 624.481 19.474C624.555 19.5393 624.593 19.6607 624.593 19.838V20.524C624.593 20.7013 624.555 20.8273 624.481 20.902C624.415 20.9673 624.294 21 624.117 21H618.083C617.905 21 617.779 20.9673 617.705 20.902C617.639 20.8273 617.607 20.7013 617.607 20.524V19.474C617.607 19.0167 617.677 18.62 617.817 18.284C617.966 17.9387 618.19 17.6493 618.489 17.416C618.787 17.1733 619.067 16.982 619.329 16.842C619.59 16.702 619.935 16.548 620.365 16.38C621.279 16.0253 621.881 15.736 622.171 15.512C622.665 15.1387 622.913 14.6533 622.913 14.056C622.913 13.6173 622.759 13.2487 622.451 12.95C622.152 12.642 621.765 12.488 621.289 12.488C620.365 12.488 619.721 12.9033 619.357 13.734C619.282 13.9113 619.203 14.0233 619.119 14.07C619.035 14.1073 618.909 14.098 618.741 14.042L617.985 13.762C617.667 13.6407 617.565 13.44 617.677 13.16ZM626.254 13.65C626.254 12.7633 626.562 12.0773 627.178 11.592C627.794 11.0973 628.643 10.85 629.726 10.85C630.864 10.85 631.732 11.0787 632.33 11.536C632.927 11.9933 633.226 12.6513 633.226 13.51C633.226 14.49 632.75 15.2507 631.798 15.792C632.339 16.0347 632.764 16.352 633.072 16.744C633.38 17.1267 633.534 17.64 633.534 18.284C633.534 19.1893 633.226 19.9033 632.61 20.426C631.994 20.9487 631.032 21.21 629.726 21.21C627.196 21.21 625.932 20.3093 625.932 18.508C625.932 17.444 626.501 16.6227 627.64 16.044C626.716 15.512 626.254 14.714 626.254 13.65ZM631.518 13.678C631.518 13.2487 631.359 12.9267 631.042 12.712C630.734 12.488 630.3 12.376 629.74 12.376C628.592 12.376 628.018 12.81 628.018 13.678C628.018 14.098 628.153 14.4107 628.424 14.616C628.704 14.812 629.128 14.9847 629.698 15.134L630.258 15.274C631.098 14.9193 631.518 14.3873 631.518 13.678ZM631.7 18.312C631.7 18.1813 631.686 18.06 631.658 17.948C631.639 17.836 631.592 17.738 631.518 17.654C631.452 17.5607 631.392 17.4813 631.336 17.416C631.289 17.3507 631.2 17.29 631.07 17.234C630.948 17.1687 630.846 17.1173 630.762 17.08C630.687 17.0427 630.561 17.0007 630.384 16.954C630.216 16.9073 630.09 16.8747 630.006 16.856C629.922 16.828 629.772 16.7907 629.558 16.744C629.352 16.6973 629.208 16.6647 629.124 16.646C628.181 16.9727 627.71 17.5327 627.71 18.326C627.71 19.2313 628.386 19.684 629.74 19.684C630.449 19.684 630.953 19.5673 631.252 19.334C631.55 19.1007 631.7 18.76 631.7 18.312ZM635.031 13.65C635.031 12.7633 635.339 12.0773 635.955 11.592C636.571 11.0973 637.42 10.85 638.503 10.85C639.642 10.85 640.51 11.0787 641.107 11.536C641.704 11.9933 642.003 12.6513 642.003 13.51C642.003 14.49 641.527 15.2507 640.575 15.792C641.116 16.0347 641.541 16.352 641.849 16.744C642.157 17.1267 642.311 17.64 642.311 18.284C642.311 19.1893 642.003 19.9033 641.387 20.426C640.771 20.9487 639.81 21.21 638.503 21.21C635.974 21.21 634.709 20.3093 634.709 18.508C634.709 17.444 635.278 16.6227 636.417 16.044C635.493 15.512 635.031 14.714 635.031 13.65ZM640.295 13.678C640.295 13.2487 640.136 12.9267 639.819 12.712C639.511 12.488 639.077 12.376 638.517 12.376C637.369 12.376 636.795 12.81 636.795 13.678C636.795 14.098 636.93 14.4107 637.201 14.616C637.481 14.812 637.906 14.9847 638.475 15.134L639.035 15.274C639.875 14.9193 640.295 14.3873 640.295 13.678ZM640.477 18.312C640.477 18.1813 640.463 18.06 640.435 17.948C640.416 17.836 640.37 17.738 640.295 17.654C640.23 17.5607 640.169 17.4813 640.113 17.416C640.066 17.3507 639.978 17.29 639.847 17.234C639.726 17.1687 639.623 17.1173 639.539 17.08C639.464 17.0427 639.338 17.0007 639.161 16.954C638.993 16.9073 638.867 16.8747 638.783 16.856C638.699 16.828 638.55 16.7907 638.335 16.744C638.13 16.6973 637.985 16.6647 637.901 16.646C636.958 16.9727 636.487 17.5327 636.487 18.326C636.487 19.2313 637.164 19.684 638.517 19.684C639.226 19.684 639.73 19.5673 640.029 19.334C640.328 19.1007 640.477 18.76 640.477 18.312Z" fill="#5639E0"/>
<path d="M655.013 20.734C655.088 20.9113 655.022 21 654.817 21H654.411C654.122 21 653.954 20.916 653.907 20.748L652.857 18.088H648.475L647.425 20.748C647.397 20.8507 647.35 20.9207 647.285 20.958C647.22 20.986 647.103 21 646.935 21H646.557C646.361 21 646.3 20.9113 646.375 20.734L650.127 11.256C650.183 11.0973 650.3 11.018 650.477 11.018H650.897C651.084 11.018 651.205 11.0927 651.261 11.242L655.013 20.734ZM650.897 12.95C650.766 12.5767 650.701 12.2547 650.701 11.984H650.631C650.631 12.2827 650.575 12.6047 650.463 12.95L648.769 17.248H652.577L650.897 12.95ZM661.208 11.06C661.311 11.06 661.381 11.0833 661.418 11.13C661.465 11.1673 661.488 11.2373 661.488 11.34V11.732C661.488 11.8347 661.465 11.9093 661.418 11.956C661.381 11.9933 661.311 12.012 661.208 12.012H658.38V20.72C658.38 20.8227 658.357 20.8973 658.31 20.944C658.273 20.9813 658.203 21 658.1 21H657.638C657.536 21 657.461 20.9813 657.414 20.944C657.377 20.8973 657.358 20.8227 657.358 20.72V12.012H654.53C654.428 12.012 654.353 11.9933 654.306 11.956C654.269 11.9093 654.25 11.8347 654.25 11.732V11.34C654.25 11.2373 654.269 11.1673 654.306 11.13C654.353 11.0833 654.428 11.06 654.53 11.06H661.208ZM662.318 14.378C662.318 13.2767 662.649 12.418 663.312 11.802C663.974 11.1767 664.926 10.864 666.168 10.864C667.4 10.864 668.347 11.1767 669.01 11.802C669.672 12.418 670.004 13.2767 670.004 14.378V17.682C670.004 18.7833 669.672 19.6467 669.01 20.272C668.347 20.888 667.4 21.196 666.168 21.196C664.926 21.196 663.974 20.888 663.312 20.272C662.649 19.6467 662.318 18.7833 662.318 17.682V14.378ZM668.996 14.378C668.996 13.5567 668.753 12.922 668.268 12.474C667.782 12.026 667.082 11.802 666.168 11.802C665.253 11.802 664.548 12.026 664.054 12.474C663.568 12.922 663.326 13.5567 663.326 14.378V17.682C663.326 18.5033 663.568 19.138 664.054 19.586C664.548 20.034 665.253 20.258 666.168 20.258C667.082 20.258 667.782 20.034 668.268 19.586C668.753 19.138 668.996 18.5033 668.996 17.682V14.378ZM680.645 11.06C680.747 11.06 680.817 11.0833 680.855 11.13C680.901 11.1673 680.925 11.2373 680.925 11.34V20.72C680.925 20.8227 680.901 20.8973 680.855 20.944C680.817 20.9813 680.747 21 680.645 21H680.225C680.122 21 680.047 20.9813 680.001 20.944C679.963 20.8973 679.945 20.8227 679.945 20.72L679.959 15.008C679.959 14.1493 680.015 13.3233 680.127 12.53H680.071C679.772 13.2393 679.413 13.9673 678.993 14.714L676.865 18.466C676.799 18.606 676.692 18.676 676.543 18.676H676.263C676.113 18.676 676.001 18.606 675.927 18.466L673.771 14.672C673.425 14.084 673.085 13.3653 672.749 12.516H672.693C672.795 13.3653 672.847 14.2007 672.847 15.022V20.72C672.847 20.8227 672.823 20.8973 672.777 20.944C672.739 20.9813 672.669 21 672.567 21H672.175C672.072 21 671.997 20.9813 671.951 20.944C671.913 20.8973 671.895 20.8227 671.895 20.72V11.34C671.895 11.2373 671.913 11.1673 671.951 11.13C671.997 11.0833 672.072 11.06 672.175 11.06H672.539C672.716 11.06 672.847 11.1347 672.931 11.284L676.403 17.43L679.847 11.298C679.903 11.1953 679.954 11.13 680.001 11.102C680.047 11.074 680.127 11.06 680.239 11.06H680.645Z" fill="#292929"/>
<path d="M14.572 34.48C15.364 34.48 15.98 34.7 16.42 35.14C16.868 35.572 17.092 36.18 17.092 36.964C17.092 37.62 16.92 38.152 16.576 38.56C16.24 38.968 15.768 39.22 15.16 39.316C15.472 39.46 15.732 39.736 15.94 40.144L17.284 42.76C17.388 42.92 17.348 43 17.164 43H16.768C16.52 43 16.364 42.928 16.3 42.784L15.136 40.468C14.944 40.084 14.724 39.816 14.476 39.664C14.236 39.504 13.884 39.424 13.42 39.424H11.8V42.76C11.8 42.848 11.784 42.912 11.752 42.952C11.72 42.984 11.66 43 11.572 43H11.176C11.088 43 11.024 42.984 10.984 42.952C10.952 42.912 10.936 42.848 10.936 42.76V34.72C10.936 34.632 10.952 34.572 10.984 34.54C11.024 34.5 11.088 34.48 11.176 34.48H14.572ZM16.192 36.964C16.192 36.428 16.044 36.016 15.748 35.728C15.452 35.44 15.032 35.296 14.488 35.296H11.8V38.608H14.488C15.024 38.608 15.44 38.468 15.736 38.188C16.04 37.9 16.192 37.492 16.192 36.964ZM18.1812 39.184C18.1812 38.384 18.4052 37.764 18.8532 37.324C19.3092 36.876 19.9692 36.652 20.8332 36.652C21.7052 36.652 22.3652 36.88 22.8132 37.336C23.2692 37.784 23.4972 38.384 23.4972 39.136V39.796C23.4972 40.02 23.3772 40.132 23.1372 40.132H18.9852V40.828C18.9852 41.348 19.1372 41.752 19.4412 42.04C19.7532 42.328 20.2012 42.472 20.7852 42.472C21.6732 42.472 22.3012 42.14 22.6692 41.476C22.7652 41.348 22.8812 41.32 23.0172 41.392L23.2692 41.524C23.4212 41.604 23.4492 41.72 23.3532 41.872C22.8732 42.736 22.0172 43.168 20.7852 43.168C19.9132 43.168 19.2612 42.952 18.8292 42.52C18.3972 42.088 18.1812 41.496 18.1812 40.744V39.184ZM22.6932 39.088C22.6932 38.544 22.5332 38.12 22.2132 37.816C21.9012 37.504 21.4412 37.348 20.8332 37.348C20.2332 37.348 19.7732 37.504 19.4532 37.816C19.1412 38.12 18.9852 38.544 18.9852 39.088V39.508H22.6932V39.088ZM24.5325 38.452C24.5325 37.892 24.7325 37.452 25.1325 37.132C25.5405 36.812 26.1285 36.652 26.8965 36.652C28.1445 36.652 28.9605 37.088 29.3445 37.96C29.4245 38.104 29.3885 38.208 29.2365 38.272L28.9365 38.404C28.8085 38.46 28.7085 38.424 28.6365 38.296C28.5005 37.992 28.3005 37.764 28.0365 37.612C27.7805 37.46 27.4045 37.384 26.9085 37.384C25.8605 37.384 25.3365 37.732 25.3365 38.428C25.3365 38.612 25.3685 38.772 25.4325 38.908C25.4965 39.036 25.5725 39.136 25.6605 39.208C25.7485 39.28 25.8805 39.34 26.0565 39.388C26.2405 39.436 26.4005 39.472 26.5365 39.496C26.6805 39.512 26.8845 39.532 27.1485 39.556C27.5165 39.588 27.8245 39.636 28.0725 39.7C28.3205 39.756 28.5605 39.848 28.7925 39.976C29.0245 40.096 29.1965 40.268 29.3085 40.492C29.4285 40.716 29.4885 40.996 29.4885 41.332C29.4885 41.908 29.2805 42.36 28.8645 42.688C28.4485 43.008 27.8365 43.168 27.0285 43.168C25.6845 43.168 24.8205 42.672 24.4365 41.68C24.3725 41.536 24.4165 41.44 24.5685 41.392L24.8805 41.284C25.0085 41.244 25.1045 41.288 25.1685 41.416C25.4325 42.112 26.0445 42.46 27.0045 42.46C28.1325 42.46 28.6965 42.096 28.6965 41.368C28.6965 40.976 28.5565 40.712 28.2765 40.576C28.0045 40.432 27.5645 40.328 26.9565 40.264C26.6525 40.232 26.4085 40.204 26.2245 40.18C26.0485 40.148 25.8365 40.092 25.5885 40.012C25.3485 39.932 25.1605 39.832 25.0245 39.712C24.8885 39.592 24.7725 39.428 24.6765 39.22C24.5805 39.004 24.5325 38.748 24.5325 38.452ZM31.9376 35.392C32.0256 35.392 32.0816 35.408 32.1056 35.44C32.1376 35.472 32.1536 35.528 32.1536 35.608V36.832H33.8936C34.0376 36.832 34.1096 36.904 34.1096 37.048V37.36C34.1096 37.504 34.0376 37.576 33.8936 37.576H32.1536V40.696C32.1536 41.392 32.2696 41.852 32.5016 42.076C32.7416 42.292 33.1976 42.4 33.8696 42.4C34.0136 42.4 34.0856 42.476 34.0856 42.628V42.952C34.0856 43.032 34.0696 43.088 34.0376 43.12C34.0056 43.152 33.9496 43.168 33.8696 43.168C32.9336 43.184 32.2776 43.02 31.9016 42.676C31.5336 42.324 31.3496 41.672 31.3496 40.72V37.576H30.2096C30.0656 37.576 29.9936 37.504 29.9936 37.36V37.048C29.9936 36.904 30.0656 36.832 30.2096 36.832H31.3496V35.608C31.3496 35.464 31.4216 35.392 31.5656 35.392H31.9376ZM34.8941 37.912C35.3421 37.072 36.1461 36.652 37.3061 36.652C38.1941 36.652 38.8141 36.868 39.1661 37.3C39.5261 37.724 39.7061 38.3 39.7061 39.028V42.172C39.7061 42.38 39.6741 42.528 39.6101 42.616C39.5541 42.704 39.4421 42.784 39.2741 42.856C38.7941 43.064 38.1301 43.168 37.2821 43.168C36.2901 43.168 35.6101 43.02 35.2421 42.724C34.8741 42.42 34.6901 41.948 34.6901 41.308C34.6901 40.628 34.8901 40.148 35.2901 39.868C35.6981 39.588 36.3781 39.448 37.3301 39.448C37.6581 39.448 38.1821 39.488 38.9021 39.568V39.016C38.9021 38.496 38.7821 38.092 38.5421 37.804C38.3101 37.516 37.8901 37.372 37.2821 37.372C36.4901 37.372 35.9301 37.664 35.6021 38.248C35.5141 38.368 35.4141 38.4 35.3021 38.344L35.0141 38.224C34.8621 38.168 34.8221 38.064 34.8941 37.912ZM38.9021 40.228C38.1821 40.156 37.6301 40.12 37.2461 40.12C36.6141 40.12 36.1661 40.212 35.9021 40.396C35.6461 40.58 35.5181 40.88 35.5181 41.296C35.5181 41.704 35.6341 42.008 35.8661 42.208C36.1061 42.4 36.5581 42.496 37.2221 42.496C37.8301 42.496 38.3141 42.432 38.6741 42.304C38.7701 42.264 38.8301 42.224 38.8541 42.184C38.8861 42.144 38.9021 42.068 38.9021 41.956V40.228ZM46.1827 42.748C46.2307 42.836 46.2427 42.9 46.2187 42.94C46.2027 42.98 46.1467 43 46.0507 43H45.6907C45.5707 43 45.4867 42.988 45.4387 42.964C45.3987 42.94 45.3587 42.888 45.3187 42.808L44.4067 40.936C44.2867 40.68 44.1347 40.496 43.9507 40.384C43.7747 40.264 43.5387 40.204 43.2427 40.204H41.9947V42.772C41.9947 42.86 41.9787 42.92 41.9467 42.952C41.9147 42.984 41.8547 43 41.7667 43H41.4187C41.3307 43 41.2707 42.984 41.2387 42.952C41.2067 42.92 41.1907 42.86 41.1907 42.772V34.336C41.1907 34.248 41.2067 34.192 41.2387 34.168C41.2707 34.136 41.3307 34.12 41.4187 34.12H41.7667C41.8547 34.12 41.9147 34.136 41.9467 34.168C41.9787 34.192 41.9947 34.248 41.9947 34.336V39.46H43.1467H43.2547L45.1867 37C45.2427 36.92 45.2947 36.872 45.3427 36.856C45.3907 36.84 45.4787 36.832 45.6067 36.832H45.9427C46.1587 36.832 46.2067 36.916 46.0867 37.084L44.0587 39.616C44.4907 39.728 44.8387 40.052 45.1027 40.588L46.1827 42.748ZM46.9742 39.184C46.9742 38.384 47.1982 37.764 47.6462 37.324C48.1022 36.876 48.7622 36.652 49.6262 36.652C50.4982 36.652 51.1582 36.88 51.6062 37.336C52.0622 37.784 52.2902 38.384 52.2902 39.136V39.796C52.2902 40.02 52.1702 40.132 51.9302 40.132H47.7782V40.828C47.7782 41.348 47.9302 41.752 48.2342 42.04C48.5462 42.328 48.9942 42.472 49.5782 42.472C50.4662 42.472 51.0942 42.14 51.4622 41.476C51.5582 41.348 51.6742 41.32 51.8102 41.392L52.0622 41.524C52.2142 41.604 52.2422 41.72 52.1462 41.872C51.6662 42.736 50.8102 43.168 49.5782 43.168C48.7062 43.168 48.0542 42.952 47.6222 42.52C47.1902 42.088 46.9742 41.496 46.9742 40.744V39.184ZM51.4862 39.088C51.4862 38.544 51.3262 38.12 51.0062 37.816C50.6942 37.504 50.2342 37.348 49.6262 37.348C49.0262 37.348 48.5662 37.504 48.2462 37.816C47.9342 38.12 47.7782 38.544 47.7782 39.088V39.508H51.4862V39.088ZM53.3734 39.052C53.3734 38.284 53.5694 37.692 53.9614 37.276C54.3534 36.86 54.9454 36.652 55.7374 36.652C56.3294 36.652 56.9614 36.768 57.6334 37V34.336C57.6334 34.192 57.7054 34.12 57.8494 34.12H58.2214C58.3014 34.12 58.3574 34.136 58.3894 34.168C58.4214 34.2 58.4374 34.256 58.4374 34.336V42.16C58.4374 42.352 58.4054 42.488 58.3414 42.568C58.2854 42.648 58.1614 42.728 57.9694 42.808C57.4014 43.048 56.7094 43.168 55.8934 43.168C54.2134 43.168 53.3734 42.368 53.3734 40.768V39.052ZM57.6334 37.756C57.0174 37.516 56.4334 37.396 55.8814 37.396C54.7454 37.396 54.1774 37.956 54.1774 39.076V40.756C54.1774 41.876 54.7734 42.436 55.9654 42.436C56.5014 42.436 56.9814 42.36 57.4054 42.208C57.5014 42.168 57.5614 42.132 57.5854 42.1C57.6174 42.06 57.6334 41.992 57.6334 41.896V37.756ZM62.7027 37.912C63.1507 37.072 63.9547 36.652 65.1147 36.652C66.0027 36.652 66.6227 36.868 66.9747 37.3C67.3347 37.724 67.5147 38.3 67.5147 39.028V42.172C67.5147 42.38 67.4827 42.528 67.4187 42.616C67.3627 42.704 67.2507 42.784 67.0827 42.856C66.6027 43.064 65.9387 43.168 65.0907 43.168C64.0987 43.168 63.4187 43.02 63.0507 42.724C62.6827 42.42 62.4987 41.948 62.4987 41.308C62.4987 40.628 62.6987 40.148 63.0987 39.868C63.5067 39.588 64.1867 39.448 65.1387 39.448C65.4667 39.448 65.9907 39.488 66.7107 39.568V39.016C66.7107 38.496 66.5907 38.092 66.3507 37.804C66.1187 37.516 65.6987 37.372 65.0907 37.372C64.2987 37.372 63.7387 37.664 63.4107 38.248C63.3227 38.368 63.2227 38.4 63.1107 38.344L62.8227 38.224C62.6707 38.168 62.6307 38.064 62.7027 37.912ZM66.7107 40.228C65.9907 40.156 65.4387 40.12 65.0547 40.12C64.4227 40.12 63.9747 40.212 63.7107 40.396C63.4547 40.58 63.3267 40.88 63.3267 41.296C63.3267 41.704 63.4427 42.008 63.6747 42.208C63.9147 42.4 64.3667 42.496 65.0307 42.496C65.6387 42.496 66.1227 42.432 66.4827 42.304C66.5787 42.264 66.6387 42.224 66.6627 42.184C66.6947 42.144 66.7107 42.068 66.7107 41.956V40.228ZM72.8873 37.168C73.6473 36.824 74.3713 36.652 75.0593 36.652C76.5233 36.652 77.2553 37.412 77.2553 38.932V42.784C77.2553 42.864 77.2393 42.92 77.2073 42.952C77.1833 42.984 77.1273 43 77.0393 43H76.6673C76.5873 43 76.5313 42.984 76.4993 42.952C76.4673 42.92 76.4513 42.864 76.4513 42.784V38.968C76.4513 37.92 75.9553 37.396 74.9633 37.396C74.3953 37.396 73.8513 37.532 73.3313 37.804C73.4833 38.1 73.5593 38.476 73.5593 38.932V42.784C73.5593 42.864 73.5433 42.92 73.5113 42.952C73.4873 42.984 73.4313 43 73.3433 43H72.9713C72.8913 43 72.8353 42.984 72.8033 42.952C72.7713 42.92 72.7553 42.864 72.7553 42.784V38.968C72.7553 37.92 72.2473 37.396 71.2313 37.396C70.7593 37.396 70.3393 37.476 69.9713 37.636C69.8433 37.692 69.7793 37.8 69.7793 37.96V42.784C69.7793 42.928 69.7073 43 69.5633 43H69.1793C69.0353 43 68.9633 42.928 68.9633 42.784V37.72C68.9633 37.536 68.9953 37.396 69.0593 37.3C69.1233 37.204 69.2433 37.116 69.4193 37.036C69.9953 36.78 70.6353 36.652 71.3393 36.652C72.0113 36.652 72.5273 36.824 72.8873 37.168ZM78.6039 38.86C78.6039 38.172 78.8359 37.632 79.2999 37.24C79.7719 36.848 80.4159 36.652 81.2319 36.652C82.0559 36.652 82.7039 36.848 83.1759 37.24C83.6479 37.632 83.8839 38.172 83.8839 38.86V40.972C83.8839 41.66 83.6479 42.2 83.1759 42.592C82.7039 42.976 82.0559 43.168 81.2319 43.168C80.4159 43.168 79.7719 42.972 79.2999 42.58C78.8359 42.188 78.6039 41.652 78.6039 40.972V38.86ZM83.0679 38.86C83.0679 38.404 82.9039 38.044 82.5759 37.78C82.2479 37.516 81.7999 37.384 81.2319 37.384C80.6719 37.384 80.2279 37.516 79.8999 37.78C79.5719 38.044 79.4079 38.404 79.4079 38.86V40.972C79.4079 41.428 79.5719 41.788 79.8999 42.052C80.2359 42.308 80.6799 42.436 81.2319 42.436C81.7999 42.436 82.2479 42.308 82.5759 42.052C82.9039 41.788 83.0679 41.428 83.0679 40.972V38.86ZM90.0767 36.832C90.2207 36.832 90.2927 36.904 90.2927 37.048V42.112C90.2927 42.296 90.2607 42.432 90.1967 42.52C90.1407 42.608 90.0207 42.692 89.8367 42.772C89.1967 43.036 88.4487 43.168 87.5927 43.168C86.0087 43.168 85.2167 42.388 85.2167 40.828V37.048C85.2167 36.968 85.2327 36.912 85.2647 36.88C85.2967 36.848 85.3527 36.832 85.4327 36.832H85.8047C85.8927 36.832 85.9487 36.848 85.9727 36.88C86.0047 36.912 86.0207 36.968 86.0207 37.048V40.792C86.0207 41.888 86.5807 42.436 87.7007 42.436C88.3007 42.436 88.8207 42.348 89.2607 42.172C89.4047 42.108 89.4767 41.996 89.4767 41.836V37.048C89.4767 36.904 89.5487 36.832 89.6927 36.832H90.0767ZM92.2826 37.06C92.9466 36.788 93.6906 36.652 94.5146 36.652C96.1066 36.652 96.9026 37.436 96.9026 39.004V42.784C96.9026 42.928 96.8306 43 96.6866 43H96.3146C96.2346 43 96.1786 42.984 96.1466 42.952C96.1146 42.92 96.0986 42.864 96.0986 42.784V39.028C96.0986 37.94 95.5386 37.396 94.4186 37.396C93.8506 37.396 93.3186 37.484 92.8226 37.66C92.7026 37.716 92.6426 37.816 92.6426 37.96V42.784C92.6426 42.928 92.5706 43 92.4266 43H92.0426C91.8986 43 91.8266 42.928 91.8266 42.784V37.72C91.8266 37.536 91.8546 37.4 91.9106 37.312C91.9746 37.224 92.0986 37.14 92.2826 37.06ZM99.5665 35.392C99.6545 35.392 99.7105 35.408 99.7345 35.44C99.7665 35.472 99.7825 35.528 99.7825 35.608V36.832H101.523C101.667 36.832 101.739 36.904 101.739 37.048V37.36C101.739 37.504 101.667 37.576 101.523 37.576H99.7825V40.696C99.7825 41.392 99.8985 41.852 100.131 42.076C100.371 42.292 100.827 42.4 101.499 42.4C101.643 42.4 101.715 42.476 101.715 42.628V42.952C101.715 43.032 101.699 43.088 101.667 43.12C101.635 43.152 101.579 43.168 101.499 43.168C100.563 43.184 99.9065 43.02 99.5305 42.676C99.1625 42.324 98.9785 41.672 98.9785 40.72V37.576H97.8385C97.6945 37.576 97.6225 37.504 97.6225 37.36V37.048C97.6225 36.904 97.6945 36.832 97.8385 36.832H98.9785V35.608C98.9785 35.464 99.0505 35.392 99.1945 35.392H99.5665Z" fill="#3C5B7E"/>
<path d="M616.677 37.16C617.311 35.62 618.539 34.85 620.359 34.85C621.385 34.85 622.207 35.158 622.823 35.774C623.448 36.3807 623.761 37.1133 623.761 37.972C623.761 38.98 623.481 39.7547 622.921 40.296C622.361 40.8373 621.339 41.402 619.855 41.99C619.836 41.9993 619.766 42.0273 619.645 42.074C619.533 42.1113 619.463 42.1393 619.435 42.158C619.407 42.1673 619.337 42.1953 619.225 42.242C619.122 42.2793 619.052 42.312 619.015 42.34C618.977 42.368 618.917 42.4053 618.833 42.452C618.758 42.4987 618.702 42.5453 618.665 42.592C618.637 42.6293 618.599 42.676 618.553 42.732C618.506 42.788 618.473 42.8487 618.455 42.914C618.445 42.9793 618.441 43.0447 618.441 43.11V43.362H623.117C623.294 43.362 623.415 43.3993 623.481 43.474C623.555 43.5393 623.593 43.6607 623.593 43.838V44.524C623.593 44.7013 623.555 44.8273 623.481 44.902C623.415 44.9673 623.294 45 623.117 45H617.083C616.905 45 616.779 44.9673 616.705 44.902C616.639 44.8273 616.607 44.7013 616.607 44.524V43.474C616.607 43.0167 616.677 42.62 616.817 42.284C616.966 41.9387 617.19 41.6493 617.489 41.416C617.787 41.1733 618.067 40.982 618.329 40.842C618.59 40.702 618.935 40.548 619.365 40.38C620.279 40.0253 620.881 39.736 621.171 39.512C621.665 39.1387 621.913 38.6533 621.913 38.056C621.913 37.6173 621.759 37.2487 621.451 36.95C621.152 36.642 620.765 36.488 620.289 36.488C619.365 36.488 618.721 36.9033 618.357 37.734C618.282 37.9113 618.203 38.0233 618.119 38.07C618.035 38.1073 617.909 38.098 617.741 38.042L616.985 37.762C616.667 37.6407 616.565 37.44 616.677 37.16ZM625.254 37.65C625.254 36.7633 625.562 36.0773 626.178 35.592C626.794 35.0973 627.643 34.85 628.726 34.85C629.864 34.85 630.732 35.0787 631.33 35.536C631.927 35.9933 632.226 36.6513 632.226 37.51C632.226 38.49 631.75 39.2507 630.798 39.792C631.339 40.0347 631.764 40.352 632.072 40.744C632.38 41.1267 632.534 41.64 632.534 42.284C632.534 43.1893 632.226 43.9033 631.61 44.426C630.994 44.9487 630.032 45.21 628.726 45.21C626.196 45.21 624.932 44.3093 624.932 42.508C624.932 41.444 625.501 40.6227 626.64 40.044C625.716 39.512 625.254 38.714 625.254 37.65ZM630.518 37.678C630.518 37.2487 630.359 36.9267 630.042 36.712C629.734 36.488 629.3 36.376 628.74 36.376C627.592 36.376 627.018 36.81 627.018 37.678C627.018 38.098 627.153 38.4107 627.424 38.616C627.704 38.812 628.128 38.9847 628.698 39.134L629.258 39.274C630.098 38.9193 630.518 38.3873 630.518 37.678ZM630.7 42.312C630.7 42.1813 630.686 42.06 630.658 41.948C630.639 41.836 630.592 41.738 630.518 41.654C630.452 41.5607 630.392 41.4813 630.336 41.416C630.289 41.3507 630.2 41.29 630.07 41.234C629.948 41.1687 629.846 41.1173 629.762 41.08C629.687 41.0427 629.561 41.0007 629.384 40.954C629.216 40.9073 629.09 40.8747 629.006 40.856C628.922 40.828 628.772 40.7907 628.558 40.744C628.352 40.6973 628.208 40.6647 628.124 40.646C627.181 40.9727 626.71 41.5327 626.71 42.326C626.71 43.2313 627.386 43.684 628.74 43.684C629.449 43.684 629.953 43.5673 630.252 43.334C630.55 43.1007 630.7 42.76 630.7 42.312ZM634.031 37.65C634.031 36.7633 634.339 36.0773 634.955 35.592C635.571 35.0973 636.42 34.85 637.503 34.85C638.642 34.85 639.51 35.0787 640.107 35.536C640.704 35.9933 641.003 36.6513 641.003 37.51C641.003 38.49 640.527 39.2507 639.575 39.792C640.116 40.0347 640.541 40.352 640.849 40.744C641.157 41.1267 641.311 41.64 641.311 42.284C641.311 43.1893 641.003 43.9033 640.387 44.426C639.771 44.9487 638.81 45.21 637.503 45.21C634.974 45.21 633.709 44.3093 633.709 42.508C633.709 41.444 634.278 40.6227 635.417 40.044C634.493 39.512 634.031 38.714 634.031 37.65ZM639.295 37.678C639.295 37.2487 639.136 36.9267 638.819 36.712C638.511 36.488 638.077 36.376 637.517 36.376C636.369 36.376 635.795 36.81 635.795 37.678C635.795 38.098 635.93 38.4107 636.201 38.616C636.481 38.812 636.906 38.9847 637.475 39.134L638.035 39.274C638.875 38.9193 639.295 38.3873 639.295 37.678ZM639.477 42.312C639.477 42.1813 639.463 42.06 639.435 41.948C639.416 41.836 639.37 41.738 639.295 41.654C639.23 41.5607 639.169 41.4813 639.113 41.416C639.066 41.3507 638.978 41.29 638.847 41.234C638.726 41.1687 638.623 41.1173 638.539 41.08C638.464 41.0427 638.338 41.0007 638.161 40.954C637.993 40.9073 637.867 40.8747 637.783 40.856C637.699 40.828 637.55 40.7907 637.335 40.744C637.13 40.6973 636.985 40.6647 636.901 40.646C635.958 40.9727 635.487 41.5327 635.487 42.326C635.487 43.2313 636.164 43.684 637.517 43.684C638.226 43.684 638.73 43.5673 639.029 43.334C639.328 43.1007 639.477 42.76 639.477 42.312Z" fill="#0091A6"/>
<path d="M654.013 44.734C654.088 44.9113 654.022 45 653.817 45H653.411C653.122 45 652.954 44.916 652.907 44.748L651.857 42.088H647.475L646.425 44.748C646.397 44.8507 646.35 44.9207 646.285 44.958C646.22 44.986 646.103 45 645.935 45H645.557C645.361 45 645.3 44.9113 645.375 44.734L649.127 35.256C649.183 35.0973 649.3 35.018 649.477 35.018H649.897C650.084 35.018 650.205 35.0927 650.261 35.242L654.013 44.734ZM649.897 36.95C649.766 36.5767 649.701 36.2547 649.701 35.984H649.631C649.631 36.2827 649.575 36.6047 649.463 36.95L647.769 41.248H651.577L649.897 36.95ZM660.208 35.06C660.311 35.06 660.381 35.0833 660.418 35.13C660.465 35.1673 660.488 35.2373 660.488 35.34V35.732C660.488 35.8347 660.465 35.9093 660.418 35.956C660.381 35.9933 660.311 36.012 660.208 36.012H657.38V44.72C657.38 44.8227 657.357 44.8973 657.31 44.944C657.273 44.9813 657.203 45 657.1 45H656.638C656.536 45 656.461 44.9813 656.414 44.944C656.377 44.8973 656.358 44.8227 656.358 44.72V36.012H653.53C653.428 36.012 653.353 35.9933 653.306 35.956C653.269 35.9093 653.25 35.8347 653.25 35.732V35.34C653.25 35.2373 653.269 35.1673 653.306 35.13C653.353 35.0833 653.428 35.06 653.53 35.06H660.208ZM661.318 38.378C661.318 37.2767 661.649 36.418 662.312 35.802C662.974 35.1767 663.926 34.864 665.168 34.864C666.4 34.864 667.347 35.1767 668.01 35.802C668.672 36.418 669.004 37.2767 669.004 38.378V41.682C669.004 42.7833 668.672 43.6467 668.01 44.272C667.347 44.888 666.4 45.196 665.168 45.196C663.926 45.196 662.974 44.888 662.312 44.272C661.649 43.6467 661.318 42.7833 661.318 41.682V38.378ZM667.996 38.378C667.996 37.5567 667.753 36.922 667.268 36.474C666.782 36.026 666.082 35.802 665.168 35.802C664.253 35.802 663.548 36.026 663.054 36.474C662.568 36.922 662.326 37.5567 662.326 38.378V41.682C662.326 42.5033 662.568 43.138 663.054 43.586C663.548 44.034 664.253 44.258 665.168 44.258C666.082 44.258 666.782 44.034 667.268 43.586C667.753 43.138 667.996 42.5033 667.996 41.682V38.378ZM679.645 35.06C679.747 35.06 679.817 35.0833 679.855 35.13C679.901 35.1673 679.925 35.2373 679.925 35.34V44.72C679.925 44.8227 679.901 44.8973 679.855 44.944C679.817 44.9813 679.747 45 679.645 45H679.225C679.122 45 679.047 44.9813 679.001 44.944C678.963 44.8973 678.945 44.8227 678.945 44.72L678.959 39.008C678.959 38.1493 679.015 37.3233 679.127 36.53H679.071C678.772 37.2393 678.413 37.9673 677.993 38.714L675.865 42.466C675.799 42.606 675.692 42.676 675.543 42.676H675.263C675.113 42.676 675.001 42.606 674.927 42.466L672.771 38.672C672.425 38.084 672.085 37.3653 671.749 36.516H671.693C671.795 37.3653 671.847 38.2007 671.847 39.022V44.72C671.847 44.8227 671.823 44.8973 671.777 44.944C671.739 44.9813 671.669 45 671.567 45H671.175C671.072 45 670.997 44.9813 670.951 44.944C670.913 44.8973 670.895 44.8227 670.895 44.72V35.34C670.895 35.2373 670.913 35.1673 670.951 35.13C670.997 35.0833 671.072 35.06 671.175 35.06H671.539C671.716 35.06 671.847 35.1347 671.931 35.284L675.403 41.43L678.847 35.298C678.903 35.1953 678.954 35.13 679.001 35.102C679.047 35.074 679.127 35.06 679.239 35.06H679.645Z" fill="#292929"/>
<line x1="102" y1="44.5" x2="624" y2="44.5" stroke="#A18EFF" stroke-dasharray="2 2"/>
<path d="M11.572 58.48C11.66 58.48 11.72 58.5 11.752 58.54C11.784 58.572 11.8 58.632 11.8 58.72V66.184H15.868C16.02 66.184 16.096 66.264 16.096 66.424V66.76C16.096 66.92 16.02 67 15.868 67H11.176C11.088 67 11.024 66.984 10.984 66.952C10.952 66.912 10.936 66.848 10.936 66.76V58.72C10.936 58.632 10.952 58.572 10.984 58.54C11.024 58.5 11.088 58.48 11.176 58.48H11.572ZM16.9058 61.912C17.3538 61.072 18.1578 60.652 19.3178 60.652C20.2058 60.652 20.8258 60.868 21.1778 61.3C21.5378 61.724 21.7178 62.3 21.7178 63.028V66.172C21.7178 66.38 21.6858 66.528 21.6218 66.616C21.5658 66.704 21.4538 66.784 21.2858 66.856C20.8058 67.064 20.1418 67.168 19.2938 67.168C18.3018 67.168 17.6218 67.02 17.2538 66.724C16.8858 66.42 16.7018 65.948 16.7018 65.308C16.7018 64.628 16.9018 64.148 17.3018 63.868C17.7098 63.588 18.3898 63.448 19.3418 63.448C19.6698 63.448 20.1938 63.488 20.9138 63.568V63.016C20.9138 62.496 20.7938 62.092 20.5538 61.804C20.3218 61.516 19.9018 61.372 19.2938 61.372C18.5018 61.372 17.9418 61.664 17.6138 62.248C17.5258 62.368 17.4258 62.4 17.3138 62.344L17.0258 62.224C16.8738 62.168 16.8338 62.064 16.9058 61.912ZM20.9138 64.228C20.1938 64.156 19.6418 64.12 19.2578 64.12C18.6258 64.12 18.1778 64.212 17.9138 64.396C17.6578 64.58 17.5298 64.88 17.5298 65.296C17.5298 65.704 17.6458 66.008 17.8778 66.208C18.1178 66.4 18.5698 66.496 19.2338 66.496C19.8418 66.496 20.3258 66.432 20.6858 66.304C20.7818 66.264 20.8418 66.224 20.8658 66.184C20.8978 66.144 20.9138 66.068 20.9138 65.956V64.228ZM22.9504 62.452C22.9504 61.892 23.1504 61.452 23.5504 61.132C23.9584 60.812 24.5464 60.652 25.3144 60.652C26.5624 60.652 27.3784 61.088 27.7624 61.96C27.8424 62.104 27.8064 62.208 27.6544 62.272L27.3544 62.404C27.2264 62.46 27.1264 62.424 27.0544 62.296C26.9184 61.992 26.7184 61.764 26.4544 61.612C26.1984 61.46 25.8224 61.384 25.3264 61.384C24.2784 61.384 23.7544 61.732 23.7544 62.428C23.7544 62.612 23.7864 62.772 23.8504 62.908C23.9144 63.036 23.9904 63.136 24.0784 63.208C24.1664 63.28 24.2984 63.34 24.4744 63.388C24.6584 63.436 24.8184 63.472 24.9544 63.496C25.0984 63.512 25.3024 63.532 25.5664 63.556C25.9344 63.588 26.2424 63.636 26.4904 63.7C26.7384 63.756 26.9784 63.848 27.2104 63.976C27.4424 64.096 27.6144 64.268 27.7264 64.492C27.8464 64.716 27.9064 64.996 27.9064 65.332C27.9064 65.908 27.6984 66.36 27.2824 66.688C26.8664 67.008 26.2544 67.168 25.4464 67.168C24.1024 67.168 23.2384 66.672 22.8544 65.68C22.7904 65.536 22.8344 65.44 22.9864 65.392L23.2984 65.284C23.4264 65.244 23.5224 65.288 23.5864 65.416C23.8504 66.112 24.4624 66.46 25.4224 66.46C26.5504 66.46 27.1144 66.096 27.1144 65.368C27.1144 64.976 26.9744 64.712 26.6944 64.576C26.4224 64.432 25.9824 64.328 25.3744 64.264C25.0704 64.232 24.8264 64.204 24.6424 64.18C24.4664 64.148 24.2544 64.092 24.0064 64.012C23.7664 63.932 23.5784 63.832 23.4424 63.712C23.3064 63.592 23.1904 63.428 23.0944 63.22C22.9984 63.004 22.9504 62.748 22.9504 62.452ZM30.3556 59.392C30.4436 59.392 30.4996 59.408 30.5236 59.44C30.5556 59.472 30.5716 59.528 30.5716 59.608V60.832H32.3116C32.4556 60.832 32.5276 60.904 32.5276 61.048V61.36C32.5276 61.504 32.4556 61.576 32.3116 61.576H30.5716V64.696C30.5716 65.392 30.6876 65.852 30.9196 66.076C31.1596 66.292 31.6156 66.4 32.2876 66.4C32.4316 66.4 32.5036 66.476 32.5036 66.628V66.952C32.5036 67.032 32.4876 67.088 32.4556 67.12C32.4236 67.152 32.3676 67.168 32.2876 67.168C31.3516 67.184 30.6956 67.02 30.3196 66.676C29.9516 66.324 29.7676 65.672 29.7676 64.72V61.576H28.6276C28.4836 61.576 28.4116 61.504 28.4116 61.36V61.048C28.4116 60.904 28.4836 60.832 28.6276 60.832H29.7676V59.608C29.7676 59.464 29.8396 59.392 29.9836 59.392H30.3556ZM38.896 60.652H39.268C39.412 60.652 39.484 60.724 39.484 60.868V61.18C39.484 61.324 39.412 61.396 39.268 61.396H38.872C38.272 61.396 37.744 61.48 37.288 61.648C37.152 61.704 37.084 61.808 37.084 61.96V66.784C37.084 66.928 37.012 67 36.868 67H36.484C36.34 67 36.268 66.928 36.268 66.784V61.696C36.268 61.512 36.3 61.376 36.364 61.288C36.428 61.192 36.548 61.104 36.724 61.024C37.332 60.792 38.056 60.668 38.896 60.652ZM39.8726 63.184C39.8726 62.384 40.0966 61.764 40.5446 61.324C41.0006 60.876 41.6606 60.652 42.5246 60.652C43.3966 60.652 44.0566 60.88 44.5046 61.336C44.9606 61.784 45.1886 62.384 45.1886 63.136V63.796C45.1886 64.02 45.0686 64.132 44.8286 64.132H40.6766V64.828C40.6766 65.348 40.8286 65.752 41.1326 66.04C41.4446 66.328 41.8926 66.472 42.4766 66.472C43.3646 66.472 43.9926 66.14 44.3606 65.476C44.4566 65.348 44.5726 65.32 44.7086 65.392L44.9606 65.524C45.1126 65.604 45.1406 65.72 45.0446 65.872C44.5646 66.736 43.7086 67.168 42.4766 67.168C41.6046 67.168 40.9526 66.952 40.5206 66.52C40.0886 66.088 39.8726 65.496 39.8726 64.744V63.184ZM44.3846 63.088C44.3846 62.544 44.2246 62.12 43.9046 61.816C43.5926 61.504 43.1326 61.348 42.5246 61.348C41.9246 61.348 41.4646 61.504 41.1446 61.816C40.8326 62.12 40.6766 62.544 40.6766 63.088V63.508H44.3846V63.088ZM46.2239 62.452C46.2239 61.892 46.4239 61.452 46.8239 61.132C47.2319 60.812 47.8199 60.652 48.5879 60.652C49.8359 60.652 50.6519 61.088 51.0359 61.96C51.1159 62.104 51.0799 62.208 50.9279 62.272L50.6279 62.404C50.4999 62.46 50.3999 62.424 50.3279 62.296C50.1919 61.992 49.9919 61.764 49.7279 61.612C49.4719 61.46 49.0959 61.384 48.5999 61.384C47.5519 61.384 47.0279 61.732 47.0279 62.428C47.0279 62.612 47.0599 62.772 47.1239 62.908C47.1879 63.036 47.2639 63.136 47.3519 63.208C47.4399 63.28 47.5719 63.34 47.7479 63.388C47.9319 63.436 48.0919 63.472 48.2279 63.496C48.3719 63.512 48.5759 63.532 48.8399 63.556C49.2079 63.588 49.5159 63.636 49.7639 63.7C50.0119 63.756 50.2519 63.848 50.4839 63.976C50.7159 64.096 50.8879 64.268 50.9999 64.492C51.1199 64.716 51.1799 64.996 51.1799 65.332C51.1799 65.908 50.9719 66.36 50.5559 66.688C50.1399 67.008 49.5279 67.168 48.7199 67.168C47.3759 67.168 46.5119 66.672 46.1279 65.68C46.0639 65.536 46.1079 65.44 46.2599 65.392L46.5719 65.284C46.6999 65.244 46.7959 65.288 46.8599 65.416C47.1239 66.112 47.7359 66.46 48.6959 66.46C49.8239 66.46 50.3879 66.096 50.3879 65.368C50.3879 64.976 50.2479 64.712 49.9679 64.576C49.6959 64.432 49.2559 64.328 48.6479 64.264C48.3439 64.232 48.0999 64.204 47.9159 64.18C47.7399 64.148 47.5279 64.092 47.2799 64.012C47.0399 63.932 46.8519 63.832 46.7159 63.712C46.5799 63.592 46.4639 63.428 46.3679 63.22C46.2719 63.004 46.2239 62.748 46.2239 62.452ZM53.629 59.392C53.717 59.392 53.773 59.408 53.797 59.44C53.829 59.472 53.845 59.528 53.845 59.608V60.832H55.585C55.729 60.832 55.801 60.904 55.801 61.048V61.36C55.801 61.504 55.729 61.576 55.585 61.576H53.845V64.696C53.845 65.392 53.961 65.852 54.193 66.076C54.433 66.292 54.889 66.4 55.561 66.4C55.705 66.4 55.777 66.476 55.777 66.628V66.952C55.777 67.032 55.761 67.088 55.729 67.12C55.697 67.152 55.641 67.168 55.561 67.168C54.625 67.184 53.969 67.02 53.593 66.676C53.225 66.324 53.041 65.672 53.041 64.72V61.576H51.901C51.757 61.576 51.685 61.504 51.685 61.36V61.048C51.685 60.904 51.757 60.832 51.901 60.832H53.041V59.608C53.041 59.464 53.113 59.392 53.257 59.392H53.629ZM56.5855 61.912C57.0335 61.072 57.8375 60.652 58.9975 60.652C59.8855 60.652 60.5055 60.868 60.8575 61.3C61.2175 61.724 61.3975 62.3 61.3975 63.028V66.172C61.3975 66.38 61.3655 66.528 61.3015 66.616C61.2455 66.704 61.1335 66.784 60.9655 66.856C60.4855 67.064 59.8215 67.168 58.9735 67.168C57.9815 67.168 57.3015 67.02 56.9335 66.724C56.5655 66.42 56.3815 65.948 56.3815 65.308C56.3815 64.628 56.5815 64.148 56.9815 63.868C57.3895 63.588 58.0695 63.448 59.0215 63.448C59.3495 63.448 59.8735 63.488 60.5935 63.568V63.016C60.5935 62.496 60.4735 62.092 60.2335 61.804C60.0015 61.516 59.5815 61.372 58.9735 61.372C58.1815 61.372 57.6215 61.664 57.2935 62.248C57.2055 62.368 57.1055 62.4 56.9935 62.344L56.7055 62.224C56.5535 62.168 56.5135 62.064 56.5855 61.912ZM60.5935 64.228C59.8735 64.156 59.3215 64.12 58.9375 64.12C58.3055 64.12 57.8575 64.212 57.5935 64.396C57.3375 64.58 57.2095 64.88 57.2095 65.296C57.2095 65.704 57.3255 66.008 57.5575 66.208C57.7975 66.4 58.2495 66.496 58.9135 66.496C59.5215 66.496 60.0055 66.432 60.3655 66.304C60.4615 66.264 60.5215 66.224 60.5455 66.184C60.5775 66.144 60.5935 66.068 60.5935 65.956V64.228ZM67.8741 66.748C67.9221 66.836 67.9341 66.9 67.9101 66.94C67.8941 66.98 67.8381 67 67.7421 67H67.3821C67.2621 67 67.1781 66.988 67.1301 66.964C67.0901 66.94 67.0501 66.888 67.0101 66.808L66.0981 64.936C65.9781 64.68 65.8261 64.496 65.6421 64.384C65.4661 64.264 65.2301 64.204 64.9341 64.204H63.6861V66.772C63.6861 66.86 63.6701 66.92 63.6381 66.952C63.6061 66.984 63.5461 67 63.4581 67H63.1101C63.0221 67 62.9621 66.984 62.9301 66.952C62.8981 66.92 62.8821 66.86 62.8821 66.772V58.336C62.8821 58.248 62.8981 58.192 62.9301 58.168C62.9621 58.136 63.0221 58.12 63.1101 58.12H63.4581C63.5461 58.12 63.6061 58.136 63.6381 58.168C63.6701 58.192 63.6861 58.248 63.6861 58.336V63.46H64.8381H64.9461L66.8781 61C66.9341 60.92 66.9861 60.872 67.0341 60.856C67.0821 60.84 67.1701 60.832 67.2981 60.832H67.6341C67.8501 60.832 67.8981 60.916 67.7781 61.084L65.7501 63.616C66.1821 63.728 66.5301 64.052 66.7941 64.588L67.8741 66.748ZM68.6656 63.184C68.6656 62.384 68.8896 61.764 69.3376 61.324C69.7936 60.876 70.4536 60.652 71.3176 60.652C72.1896 60.652 72.8496 60.88 73.2976 61.336C73.7536 61.784 73.9816 62.384 73.9816 63.136V63.796C73.9816 64.02 73.8616 64.132 73.6216 64.132H69.4696V64.828C69.4696 65.348 69.6216 65.752 69.9256 66.04C70.2376 66.328 70.6856 66.472 71.2696 66.472C72.1576 66.472 72.7856 66.14 73.1536 65.476C73.2496 65.348 73.3656 65.32 73.5016 65.392L73.7536 65.524C73.9056 65.604 73.9336 65.72 73.8376 65.872C73.3576 66.736 72.5016 67.168 71.2696 67.168C70.3976 67.168 69.7456 66.952 69.3136 66.52C68.8816 66.088 68.6656 65.496 68.6656 64.744V63.184ZM73.1776 63.088C73.1776 62.544 73.0176 62.12 72.6976 61.816C72.3856 61.504 71.9256 61.348 71.3176 61.348C70.7176 61.348 70.2576 61.504 69.9376 61.816C69.6256 62.12 69.4696 62.544 69.4696 63.088V63.508H73.1776V63.088Z" fill="#3C5B7E"/>
<line x1="75" y1="68.5" x2="573" y2="68.5" stroke="#A18EFF" stroke-dasharray="2 2"/>
<path d="M582.182 59.06C582.284 59.06 582.354 59.0833 582.392 59.13C582.438 59.1673 582.462 59.2373 582.462 59.34V68.72C582.462 68.8227 582.438 68.8973 582.392 68.944C582.354 68.9813 582.284 69 582.182 69H581.734C581.622 69 581.542 68.9813 581.496 68.944C581.458 68.8973 581.44 68.8227 581.44 68.72V60.292L578.486 61.93C578.308 62.0327 578.173 62 578.08 61.832L577.87 61.454C577.786 61.3047 577.828 61.1833 577.996 61.09L581.412 59.172C581.533 59.0973 581.664 59.06 581.804 59.06H582.182ZM584.454 61.132C585.098 59.62 586.298 58.864 588.052 58.864C589.004 58.864 589.774 59.1533 590.362 59.732C590.96 60.3107 591.258 61.02 591.258 61.86C591.258 62.3733 591.179 62.8213 591.02 63.204C590.871 63.5773 590.614 63.9087 590.25 64.198C589.896 64.478 589.532 64.7113 589.158 64.898C588.785 65.0847 588.267 65.3087 587.604 65.57C587.25 65.7007 586.984 65.808 586.806 65.892C586.629 65.9667 586.414 66.0833 586.162 66.242C585.92 66.4007 585.742 66.5827 585.63 66.788C585.518 66.9933 585.462 67.2313 585.462 67.502V68.048H590.894C590.997 68.048 591.067 68.0713 591.104 68.118C591.151 68.1553 591.174 68.2253 591.174 68.328V68.72C591.174 68.8227 591.151 68.8973 591.104 68.944C591.067 68.9813 590.997 69 590.894 69H584.692C584.496 69 584.398 68.9067 584.398 68.72V67.698C584.398 67.334 584.454 67.0073 584.566 66.718C584.688 66.4193 584.828 66.1767 584.986 65.99C585.145 65.794 585.369 65.6027 585.658 65.416C585.957 65.2293 586.214 65.0893 586.428 64.996C586.643 64.8933 586.937 64.772 587.31 64.632C588.272 64.2587 588.911 63.96 589.228 63.736C589.863 63.2787 590.185 62.6673 590.194 61.902C590.194 61.314 589.994 60.8193 589.592 60.418C589.191 60.0073 588.668 59.802 588.024 59.802C587.362 59.802 586.825 59.942 586.414 60.222C586.004 60.4927 585.668 60.9127 585.406 61.482C585.36 61.5847 585.313 61.65 585.266 61.678C585.229 61.6967 585.159 61.6873 585.056 61.65L584.622 61.482C584.436 61.4167 584.38 61.3 584.454 61.132ZM596.889 58.64C596.982 58.64 597.047 58.6587 597.085 58.696C597.122 58.7333 597.141 58.7987 597.141 58.892V61.986C597.719 61.7247 598.452 61.594 599.339 61.594C601.196 61.594 602.125 62.5087 602.125 64.338V68.748C602.125 68.916 602.041 69 601.873 69H601.425C601.257 69 601.173 68.916 601.173 68.748V64.366C601.173 63.0967 600.519 62.462 599.213 62.462C598.373 62.462 597.682 62.5973 597.141 62.868V68.748C597.141 68.8413 597.122 68.9067 597.085 68.944C597.047 68.9813 596.982 69 596.889 69H596.455C596.352 69 596.282 68.9813 596.245 68.944C596.217 68.9067 596.203 68.8413 596.203 68.748V58.892C596.203 58.7987 596.217 58.7333 596.245 58.696C596.282 58.6587 596.352 58.64 596.455 58.64H596.889ZM603.676 64.17C603.676 63.3673 603.946 62.7373 604.488 62.28C605.038 61.8227 605.79 61.594 606.742 61.594C607.703 61.594 608.459 61.8227 609.01 62.28C609.56 62.7373 609.836 63.3673 609.836 64.17V66.634C609.836 67.4367 609.56 68.0667 609.01 68.524C608.459 68.972 607.703 69.196 606.742 69.196C605.79 69.196 605.038 68.9673 604.488 68.51C603.946 68.0527 603.676 67.4273 603.676 66.634V64.17ZM608.884 64.17C608.884 63.638 608.692 63.218 608.31 62.91C607.927 62.602 607.404 62.448 606.742 62.448C606.088 62.448 605.57 62.602 605.188 62.91C604.805 63.218 604.614 63.638 604.614 64.17V66.634C604.614 67.166 604.805 67.586 605.188 67.894C605.58 68.1927 606.098 68.342 606.742 68.342C607.404 68.342 607.927 68.1927 608.31 67.894C608.692 67.586 608.884 67.166 608.884 66.634V64.17ZM617.06 61.804C617.228 61.804 617.312 61.888 617.312 62.056V67.964C617.312 68.1787 617.275 68.3373 617.2 68.44C617.135 68.5427 616.995 68.6407 616.78 68.734C616.034 69.042 615.161 69.196 614.162 69.196C612.314 69.196 611.39 68.286 611.39 66.466V62.056C611.39 61.9627 611.409 61.8973 611.446 61.86C611.484 61.8227 611.549 61.804 611.642 61.804H612.076C612.179 61.804 612.244 61.8227 612.272 61.86C612.31 61.8973 612.328 61.9627 612.328 62.056V66.424C612.328 67.7027 612.982 68.342 614.288 68.342C614.988 68.342 615.595 68.2393 616.108 68.034C616.276 67.9593 616.36 67.8287 616.36 67.642V62.056C616.36 61.888 616.444 61.804 616.612 61.804H617.06ZM622.168 61.594H622.602C622.77 61.594 622.854 61.678 622.854 61.846V62.21C622.854 62.378 622.77 62.462 622.602 62.462H622.14C621.44 62.462 620.824 62.56 620.292 62.756C620.133 62.8213 620.054 62.9427 620.054 63.12V68.748C620.054 68.916 619.97 69 619.802 69H619.354C619.186 69 619.102 68.916 619.102 68.748V62.812C619.102 62.5973 619.139 62.4387 619.214 62.336C619.289 62.224 619.429 62.1213 619.634 62.028C620.343 61.7573 621.188 61.6127 622.168 61.594ZM623.485 63.694C623.485 63.0407 623.718 62.5273 624.185 62.154C624.661 61.7807 625.347 61.594 626.243 61.594C627.699 61.594 628.651 62.1027 629.099 63.12C629.192 63.288 629.15 63.4093 628.973 63.484L628.623 63.638C628.473 63.7033 628.357 63.6613 628.273 63.512C628.114 63.1573 627.881 62.8913 627.573 62.714C627.274 62.5367 626.835 62.448 626.257 62.448C625.034 62.448 624.423 62.854 624.423 63.666C624.423 63.8807 624.46 64.0673 624.535 64.226C624.609 64.3753 624.698 64.492 624.801 64.576C624.903 64.66 625.057 64.73 625.263 64.786C625.477 64.842 625.664 64.884 625.823 64.912C625.991 64.9307 626.229 64.954 626.537 64.982C626.966 65.0193 627.325 65.0753 627.615 65.15C627.904 65.2153 628.184 65.3227 628.455 65.472C628.725 65.612 628.926 65.8127 629.057 66.074C629.197 66.3353 629.267 66.662 629.267 67.054C629.267 67.726 629.024 68.2533 628.539 68.636C628.053 69.0093 627.339 69.196 626.397 69.196C624.829 69.196 623.821 68.6173 623.373 67.46C623.298 67.292 623.349 67.18 623.527 67.124L623.891 66.998C624.04 66.9513 624.152 67.0027 624.227 67.152C624.535 67.964 625.249 68.37 626.369 68.37C627.685 68.37 628.343 67.9453 628.343 67.096C628.343 66.6387 628.179 66.3307 627.853 66.172C627.535 66.004 627.022 65.8827 626.313 65.808C625.958 65.7707 625.673 65.738 625.459 65.71C625.253 65.6727 625.006 65.6073 624.717 65.514C624.437 65.4207 624.217 65.304 624.059 65.164C623.9 65.024 623.765 64.8327 623.653 64.59C623.541 64.338 623.485 64.0393 623.485 63.694ZM633.851 63.064C634.373 62.084 635.311 61.594 636.665 61.594C637.701 61.594 638.424 61.846 638.835 62.35C639.255 62.8447 639.465 63.5167 639.465 64.366V68.034C639.465 68.2767 639.427 68.4493 639.353 68.552C639.287 68.6547 639.157 68.748 638.961 68.832C638.401 69.0747 637.626 69.196 636.637 69.196C635.479 69.196 634.686 69.0233 634.257 68.678C633.827 68.3233 633.613 67.7727 633.613 67.026C633.613 66.2327 633.846 65.6727 634.313 65.346C634.789 65.0193 635.582 64.856 636.693 64.856C637.075 64.856 637.687 64.9027 638.527 64.996V64.352C638.527 63.7453 638.387 63.274 638.107 62.938C637.836 62.602 637.346 62.434 636.637 62.434C635.713 62.434 635.059 62.7747 634.677 63.456C634.574 63.596 634.457 63.6333 634.327 63.568L633.991 63.428C633.813 63.3627 633.767 63.2413 633.851 63.064ZM638.527 65.766C637.687 65.682 637.043 65.64 636.595 65.64C635.857 65.64 635.335 65.7473 635.027 65.962C634.728 66.1767 634.579 66.5267 634.579 67.012C634.579 67.488 634.714 67.8427 634.985 68.076C635.265 68.3 635.792 68.412 636.567 68.412C637.276 68.412 637.841 68.3373 638.261 68.188C638.373 68.1413 638.443 68.0947 638.471 68.048C638.508 68.0013 638.527 67.9127 638.527 67.782V65.766ZM640.945 64.464C640.945 62.5507 641.953 61.594 643.969 61.594C644.874 61.594 645.663 61.734 646.335 62.014C646.559 62.1167 646.703 62.2147 646.769 62.308C646.834 62.392 646.867 62.5507 646.867 62.784V69.434C646.867 71.45 645.882 72.458 643.913 72.458C642.606 72.458 641.682 71.9587 641.141 70.96C641.019 70.7827 641.052 70.6427 641.239 70.54L641.547 70.386C641.715 70.2927 641.85 70.3253 641.953 70.484C642.354 71.2307 642.998 71.604 643.885 71.604C645.247 71.604 645.929 70.8947 645.929 69.476V68.608C645.173 68.888 644.435 69.028 643.717 69.028C641.869 69.028 640.945 68.118 640.945 66.298V64.464ZM645.663 62.728C645.187 62.5507 644.641 62.462 644.025 62.462C642.606 62.462 641.897 63.134 641.897 64.478V66.27C641.897 67.53 642.541 68.16 643.829 68.16C644.51 68.16 645.21 68.0247 645.929 67.754V63.092C645.929 62.98 645.915 62.9053 645.887 62.868C645.859 62.8213 645.784 62.7747 645.663 62.728ZM648.465 64.17C648.465 63.3673 648.735 62.7373 649.277 62.28C649.827 61.8227 650.579 61.594 651.531 61.594C652.492 61.594 653.248 61.8227 653.799 62.28C654.349 62.7373 654.625 63.3673 654.625 64.17V66.634C654.625 67.4367 654.349 68.0667 653.799 68.524C653.248 68.972 652.492 69.196 651.531 69.196C650.579 69.196 649.827 68.9673 649.277 68.51C648.735 68.0527 648.465 67.4273 648.465 66.634V64.17ZM653.673 64.17C653.673 63.638 653.481 63.218 653.099 62.91C652.716 62.602 652.193 62.448 651.531 62.448C650.877 62.448 650.359 62.602 649.977 62.91C649.594 63.218 649.403 63.638 649.403 64.17V66.634C649.403 67.166 649.594 67.586 649.977 67.894C650.369 68.1927 650.887 68.342 651.531 68.342C652.193 68.342 652.716 68.1927 653.099 67.894C653.481 67.586 653.673 67.166 653.673 66.634V64.17Z" fill="#59779A"/>
<path d="M678.687 62.3672C678.687 62.2305 678.604 62.1211 678.468 62.0664C678.331 62.0117 678.222 62.0391 678.14 62.1211L677.483 62.7773C677.401 62.8594 677.374 62.9414 677.374 63.0234V68.2734C677.374 68.3281 677.347 68.3555 677.319 68.3828C677.265 68.4375 677.237 68.4375 677.21 68.4375H667.913C667.858 68.4375 667.831 68.4375 667.804 68.3828C667.749 68.3555 667.749 68.3281 667.749 68.2734V58.9766C667.749 58.9492 667.749 58.9219 667.804 58.8672C667.831 58.8398 667.858 58.8125 667.913 58.8125H676.39C676.472 58.8125 676.554 58.7852 676.608 58.7031L677.265 58.0469C677.374 57.9648 677.401 57.8555 677.347 57.7188C677.292 57.582 677.183 57.5 677.046 57.5H667.749C667.366 57.5 667.065 57.6367 666.819 57.8828C666.546 58.1562 666.437 58.457 666.437 58.8125V68.4375C666.437 68.8203 666.546 69.1211 666.819 69.3672C667.065 69.6406 667.366 69.75 667.749 69.75H677.374C677.729 69.75 678.03 69.6406 678.304 69.3672C678.55 69.1211 678.687 68.8203 678.687 68.4375V62.3672ZM681.858 55.75C681.94 55.75 682.022 55.8047 682.077 55.8594C682.132 55.9141 682.187 55.9961 682.187 56.0781V59.7969C682.187 59.9609 682.104 60.043 681.968 60.0977C681.831 60.1523 681.722 60.125 681.64 60.0156L680.3 58.7031L672.862 66.1406C672.808 66.2227 672.726 66.25 672.644 66.25C672.534 66.25 672.452 66.2227 672.397 66.1406L671.796 65.5391C671.714 65.4844 671.687 65.4023 671.687 65.293C671.687 65.2109 671.714 65.1289 671.796 65.0742L679.233 57.6367L677.921 56.2969C677.812 56.2148 677.784 56.1055 677.839 55.9688C677.894 55.832 677.976 55.75 678.14 55.75H681.858Z" fill="#00A3FF"/>
<path d="M10.624 84.772C10.624 84.02 10.896 83.424 11.44 82.984C11.984 82.536 12.744 82.312 13.72 82.312C14.536 82.312 15.188 82.46 15.676 82.756C16.164 83.052 16.564 83.52 16.876 84.16C16.948 84.296 16.904 84.4 16.744 84.472L16.372 84.64C16.292 84.672 16.232 84.684 16.192 84.676C16.152 84.66 16.108 84.612 16.06 84.532C15.82 84.052 15.516 83.7 15.148 83.476C14.788 83.252 14.312 83.14 13.72 83.14C13.008 83.14 12.46 83.276 12.076 83.548C11.7 83.82 11.512 84.212 11.512 84.724C11.512 84.964 11.56 85.172 11.656 85.348C11.752 85.524 11.868 85.664 12.004 85.768C12.148 85.872 12.34 85.964 12.58 86.044C12.828 86.116 13.048 86.168 13.24 86.2C13.432 86.232 13.684 86.264 13.996 86.296C14.348 86.336 14.64 86.38 14.872 86.428C15.104 86.468 15.368 86.544 15.664 86.656C15.96 86.76 16.196 86.892 16.372 87.052C16.548 87.204 16.696 87.416 16.816 87.688C16.944 87.96 17.008 88.28 17.008 88.648C17.008 89.44 16.728 90.06 16.168 90.508C15.608 90.948 14.8 91.168 13.744 91.168C12.888 91.168 12.2 91 11.68 90.664C11.168 90.328 10.772 89.808 10.492 89.104C10.444 88.952 10.492 88.844 10.636 88.78L11.008 88.648C11.144 88.6 11.248 88.648 11.32 88.792C11.76 89.832 12.568 90.352 13.744 90.352C15.336 90.352 16.132 89.792 16.132 88.672C16.132 88.432 16.084 88.228 15.988 88.06C15.9 87.884 15.792 87.744 15.664 87.64C15.536 87.536 15.356 87.448 15.124 87.376C14.9 87.304 14.696 87.256 14.512 87.232C14.328 87.2 14.088 87.168 13.792 87.136C13.416 87.096 13.112 87.056 12.88 87.016C12.648 86.976 12.372 86.904 12.052 86.8C11.732 86.688 11.48 86.556 11.296 86.404C11.112 86.244 10.952 86.028 10.816 85.756C10.688 85.476 10.624 85.148 10.624 84.772ZM18.1597 85.912C18.6077 85.072 19.4117 84.652 20.5717 84.652C21.4597 84.652 22.0797 84.868 22.4317 85.3C22.7917 85.724 22.9717 86.3 22.9717 87.028V90.172C22.9717 90.38 22.9397 90.528 22.8757 90.616C22.8197 90.704 22.7077 90.784 22.5397 90.856C22.0597 91.064 21.3957 91.168 20.5477 91.168C19.5557 91.168 18.8757 91.02 18.5077 90.724C18.1397 90.42 17.9557 89.948 17.9557 89.308C17.9557 88.628 18.1557 88.148 18.5557 87.868C18.9637 87.588 19.6437 87.448 20.5957 87.448C20.9237 87.448 21.4477 87.488 22.1677 87.568V87.016C22.1677 86.496 22.0477 86.092 21.8077 85.804C21.5757 85.516 21.1557 85.372 20.5477 85.372C19.7557 85.372 19.1957 85.664 18.8677 86.248C18.7797 86.368 18.6797 86.4 18.5677 86.344L18.2797 86.224C18.1277 86.168 18.0877 86.064 18.1597 85.912ZM22.1677 88.228C21.4477 88.156 20.8957 88.12 20.5117 88.12C19.8797 88.12 19.4317 88.212 19.1677 88.396C18.9117 88.58 18.7837 88.88 18.7837 89.296C18.7837 89.704 18.8997 90.008 19.1317 90.208C19.3717 90.4 19.8237 90.496 20.4877 90.496C21.0957 90.496 21.5797 90.432 21.9397 90.304C22.0357 90.264 22.0957 90.224 22.1197 90.184C22.1517 90.144 22.1677 90.068 22.1677 89.956V88.228ZM29.2346 84.832C29.3386 84.832 29.4026 84.848 29.4266 84.88C29.4506 84.912 29.4426 84.976 29.4026 85.072L27.0026 90.832C26.9386 90.968 26.8386 91.036 26.7026 91.036H26.4746C26.3226 91.036 26.2186 90.968 26.1626 90.832L23.7626 85.084C23.7226 84.98 23.7146 84.912 23.7386 84.88C23.7626 84.848 23.8306 84.832 23.9426 84.832H24.2186C24.3466 84.832 24.4306 84.848 24.4706 84.88C24.5186 84.904 24.5586 84.96 24.5906 85.048L26.2346 89.008C26.2906 89.168 26.3546 89.376 26.4266 89.632C26.5066 89.88 26.5546 90.02 26.5706 90.052H26.6066C26.6226 90.012 26.6666 89.872 26.7386 89.632C26.8106 89.384 26.8746 89.18 26.9306 89.02L28.5626 85.048C28.5946 84.96 28.6346 84.904 28.6826 84.88C28.7306 84.848 28.8186 84.832 28.9466 84.832H29.2346ZM30.0288 87.184C30.0288 86.384 30.2528 85.764 30.7008 85.324C31.1568 84.876 31.8168 84.652 32.6808 84.652C33.5528 84.652 34.2128 84.88 34.6608 85.336C35.1168 85.784 35.3448 86.384 35.3448 87.136V87.796C35.3448 88.02 35.2248 88.132 34.9848 88.132H30.8328V88.828C30.8328 89.348 30.9848 89.752 31.2888 90.04C31.6008 90.328 32.0488 90.472 32.6328 90.472C33.5208 90.472 34.1488 90.14 34.5168 89.476C34.6128 89.348 34.7288 89.32 34.8648 89.392L35.1168 89.524C35.2688 89.604 35.2968 89.72 35.2008 89.872C34.7208 90.736 33.8648 91.168 32.6328 91.168C31.7608 91.168 31.1088 90.952 30.6768 90.52C30.2448 90.088 30.0288 89.496 30.0288 88.744V87.184ZM34.5408 87.088C34.5408 86.544 34.3808 86.12 34.0608 85.816C33.7488 85.504 33.2888 85.348 32.6808 85.348C32.0808 85.348 31.6208 85.504 31.3008 85.816C30.9888 86.12 30.8328 86.544 30.8328 87.088V87.508H34.5408V87.088ZM36.4281 87.052C36.4281 86.284 36.6241 85.692 37.0161 85.276C37.4081 84.86 38.0001 84.652 38.7921 84.652C39.3841 84.652 40.0161 84.768 40.6881 85V82.336C40.6881 82.192 40.7601 82.12 40.9041 82.12H41.2761C41.3561 82.12 41.4121 82.136 41.4441 82.168C41.4761 82.2 41.4921 82.256 41.4921 82.336V90.16C41.4921 90.352 41.4601 90.488 41.3961 90.568C41.3401 90.648 41.2161 90.728 41.0241 90.808C40.4561 91.048 39.7641 91.168 38.9481 91.168C37.2681 91.168 36.4281 90.368 36.4281 88.768V87.052ZM40.6881 85.756C40.0721 85.516 39.4881 85.396 38.9361 85.396C37.8001 85.396 37.2321 85.956 37.2321 87.076V88.756C37.2321 89.876 37.8281 90.436 39.0201 90.436C39.5561 90.436 40.0361 90.36 40.4601 90.208C40.5561 90.168 40.6161 90.132 40.6401 90.1C40.6721 90.06 40.6881 89.992 40.6881 89.896V85.756ZM45.7094 86.86C45.7094 86.172 45.9414 85.632 46.4054 85.24C46.8774 84.848 47.5214 84.652 48.3374 84.652C49.1614 84.652 49.8094 84.848 50.2814 85.24C50.7534 85.632 50.9894 86.172 50.9894 86.86V88.972C50.9894 89.66 50.7534 90.2 50.2814 90.592C49.8094 90.976 49.1614 91.168 48.3374 91.168C47.5214 91.168 46.8774 90.972 46.4054 90.58C45.9414 90.188 45.7094 89.652 45.7094 88.972V86.86ZM50.1734 86.86C50.1734 86.404 50.0094 86.044 49.6814 85.78C49.3534 85.516 48.9054 85.384 48.3374 85.384C47.7774 85.384 47.3334 85.516 47.0054 85.78C46.6774 86.044 46.5134 86.404 46.5134 86.86V88.972C46.5134 89.428 46.6774 89.788 47.0054 90.052C47.3414 90.308 47.7854 90.436 48.3374 90.436C48.9054 90.436 49.3534 90.308 49.6814 90.052C50.0094 89.788 50.1734 89.428 50.1734 88.972V86.86ZM52.8021 85.06C53.4661 84.788 54.2101 84.652 55.0341 84.652C56.6261 84.652 57.4221 85.436 57.4221 87.004V90.784C57.4221 90.928 57.3501 91 57.2061 91H56.8341C56.7541 91 56.6981 90.984 56.6661 90.952C56.6341 90.92 56.6181 90.864 56.6181 90.784V87.028C56.6181 85.94 56.0581 85.396 54.9381 85.396C54.3701 85.396 53.8381 85.484 53.3421 85.66C53.2221 85.716 53.1621 85.816 53.1621 85.96V90.784C53.1621 90.928 53.0901 91 52.9461 91H52.5621C52.4181 91 52.3461 90.928 52.3461 90.784V85.72C52.3461 85.536 52.3741 85.4 52.4301 85.312C52.4941 85.224 52.6181 85.14 52.8021 85.06ZM61.588 87.016C61.588 86.272 61.808 85.692 62.248 85.276C62.688 84.86 63.34 84.652 64.204 84.652C65.548 84.652 66.384 85.192 66.712 86.272C66.76 86.424 66.712 86.528 66.568 86.584L66.256 86.692C66.112 86.74 66.012 86.692 65.956 86.548C65.828 86.14 65.624 85.844 65.344 85.66C65.072 85.468 64.684 85.372 64.18 85.372C63.596 85.372 63.152 85.516 62.848 85.804C62.544 86.084 62.392 86.48 62.392 86.992V88.828C62.392 89.34 62.544 89.74 62.848 90.028C63.16 90.316 63.604 90.46 64.18 90.46C65.116 90.46 65.712 90.048 65.968 89.224C66.024 89.088 66.128 89.04 66.28 89.08L66.592 89.176C66.744 89.232 66.792 89.336 66.736 89.488C66.368 90.608 65.508 91.168 64.156 91.168C63.316 91.168 62.676 90.96 62.236 90.544C61.804 90.128 61.588 89.548 61.588 88.804V87.016ZM67.7758 86.86C67.7758 86.172 68.0078 85.632 68.4718 85.24C68.9438 84.848 69.5878 84.652 70.4038 84.652C71.2278 84.652 71.8758 84.848 72.3478 85.24C72.8198 85.632 73.0558 86.172 73.0558 86.86V88.972C73.0558 89.66 72.8198 90.2 72.3478 90.592C71.8758 90.976 71.2278 91.168 70.4038 91.168C69.5878 91.168 68.9438 90.972 68.4718 90.58C68.0078 90.188 67.7758 89.652 67.7758 88.972V86.86ZM72.2398 86.86C72.2398 86.404 72.0758 86.044 71.7478 85.78C71.4198 85.516 70.9718 85.384 70.4038 85.384C69.8438 85.384 69.3998 85.516 69.0718 85.78C68.7438 86.044 68.5798 86.404 68.5798 86.86V88.972C68.5798 89.428 68.7438 89.788 69.0718 90.052C69.4078 90.308 69.8518 90.436 70.4038 90.436C70.9718 90.436 71.4198 90.308 71.7478 90.052C72.0758 89.788 72.2398 89.428 72.2398 88.972V86.86ZM78.3365 85.168C79.0965 84.824 79.8205 84.652 80.5085 84.652C81.9725 84.652 82.7045 85.412 82.7045 86.932V90.784C82.7045 90.864 82.6885 90.92 82.6565 90.952C82.6325 90.984 82.5765 91 82.4885 91H82.1165C82.0365 91 81.9805 90.984 81.9485 90.952C81.9165 90.92 81.9005 90.864 81.9005 90.784V86.968C81.9005 85.92 81.4045 85.396 80.4125 85.396C79.8445 85.396 79.3005 85.532 78.7805 85.804C78.9325 86.1 79.0085 86.476 79.0085 86.932V90.784C79.0085 90.864 78.9925 90.92 78.9605 90.952C78.9365 90.984 78.8805 91 78.7925 91H78.4205C78.3405 91 78.2845 90.984 78.2525 90.952C78.2205 90.92 78.2045 90.864 78.2045 90.784V86.968C78.2045 85.92 77.6965 85.396 76.6805 85.396C76.2085 85.396 75.7885 85.476 75.4205 85.636C75.2925 85.692 75.2285 85.8 75.2285 85.96V90.784C75.2285 90.928 75.1565 91 75.0125 91H74.6285C74.4845 91 74.4125 90.928 74.4125 90.784V85.72C74.4125 85.536 74.4445 85.396 74.5085 85.3C74.5725 85.204 74.6925 85.116 74.8685 85.036C75.4445 84.78 76.0845 84.652 76.7885 84.652C77.4605 84.652 77.9765 84.824 78.3365 85.168ZM88.1451 85.168C88.9051 84.824 89.6291 84.652 90.3171 84.652C91.7811 84.652 92.5131 85.412 92.5131 86.932V90.784C92.5131 90.864 92.4971 90.92 92.4651 90.952C92.4411 90.984 92.3851 91 92.2971 91H91.9251C91.8451 91 91.7891 90.984 91.7571 90.952C91.7251 90.92 91.7091 90.864 91.7091 90.784V86.968C91.7091 85.92 91.2131 85.396 90.2211 85.396C89.6531 85.396 89.1091 85.532 88.5891 85.804C88.7411 86.1 88.8171 86.476 88.8171 86.932V90.784C88.8171 90.864 88.8011 90.92 88.7691 90.952C88.7451 90.984 88.6891 91 88.6011 91H88.2291C88.1491 91 88.0931 90.984 88.0611 90.952C88.0291 90.92 88.0131 90.864 88.0131 90.784V86.968C88.0131 85.92 87.5051 85.396 86.4891 85.396C86.0171 85.396 85.5971 85.476 85.2291 85.636C85.1011 85.692 85.0371 85.8 85.0371 85.96V90.784C85.0371 90.928 84.9651 91 84.8211 91H84.4371C84.2931 91 84.2211 90.928 84.2211 90.784V85.72C84.2211 85.536 84.2531 85.396 84.3171 85.3C84.3811 85.204 84.5011 85.116 84.6771 85.036C85.2531 84.78 85.8931 84.652 86.5971 84.652C87.2691 84.652 87.7851 84.824 88.1451 85.168ZM94.4977 82.624C94.6657 82.624 94.7817 82.656 94.8457 82.72C94.9097 82.784 94.9417 82.9 94.9417 83.068V83.152C94.9417 83.32 94.9097 83.436 94.8457 83.5C94.7817 83.564 94.6657 83.596 94.4977 83.596H94.4257C94.2577 83.596 94.1417 83.564 94.0777 83.5C94.0137 83.436 93.9817 83.32 93.9817 83.152V83.068C93.9817 82.9 94.0137 82.784 94.0777 82.72C94.1417 82.656 94.2577 82.624 94.4257 82.624H94.4977ZM94.6537 84.832C94.7977 84.832 94.8697 84.904 94.8697 85.048V90.784C94.8697 90.928 94.7977 91 94.6537 91H94.2697C94.1257 91 94.0537 90.928 94.0537 90.784V85.048C94.0537 84.904 94.1257 84.832 94.2697 84.832H94.6537ZM96.2161 86.452C96.2161 85.892 96.4161 85.452 96.8161 85.132C97.2241 84.812 97.8121 84.652 98.5801 84.652C99.8281 84.652 100.644 85.088 101.028 85.96C101.108 86.104 101.072 86.208 100.92 86.272L100.62 86.404C100.492 86.46 100.392 86.424 100.32 86.296C100.184 85.992 99.9841 85.764 99.7201 85.612C99.4641 85.46 99.0881 85.384 98.5921 85.384C97.5441 85.384 97.0201 85.732 97.0201 86.428C97.0201 86.612 97.0521 86.772 97.1161 86.908C97.1801 87.036 97.2561 87.136 97.3441 87.208C97.4321 87.28 97.5641 87.34 97.7401 87.388C97.9241 87.436 98.0841 87.472 98.2201 87.496C98.3641 87.512 98.5681 87.532 98.8321 87.556C99.2001 87.588 99.5081 87.636 99.7561 87.7C100.004 87.756 100.244 87.848 100.476 87.976C100.708 88.096 100.88 88.268 100.992 88.492C101.112 88.716 101.172 88.996 101.172 89.332C101.172 89.908 100.964 90.36 100.548 90.688C100.132 91.008 99.5201 91.168 98.7121 91.168C97.3681 91.168 96.5041 90.672 96.1201 89.68C96.0561 89.536 96.1001 89.44 96.2521 89.392L96.5641 89.284C96.6921 89.244 96.7881 89.288 96.8521 89.416C97.1161 90.112 97.7281 90.46 98.6881 90.46C99.8161 90.46 100.38 90.096 100.38 89.368C100.38 88.976 100.24 88.712 99.9601 88.576C99.6881 88.432 99.2481 88.328 98.6401 88.264C98.3361 88.232 98.0921 88.204 97.9081 88.18C97.7321 88.148 97.5201 88.092 97.2721 88.012C97.0321 87.932 96.8441 87.832 96.7081 87.712C96.5721 87.592 96.4561 87.428 96.3601 87.22C96.2641 87.004 96.2161 86.748 96.2161 86.452ZM102.169 86.452C102.169 85.892 102.369 85.452 102.769 85.132C103.177 84.812 103.765 84.652 104.533 84.652C105.781 84.652 106.597 85.088 106.981 85.96C107.061 86.104 107.025 86.208 106.873 86.272L106.573 86.404C106.445 86.46 106.345 86.424 106.273 86.296C106.137 85.992 105.937 85.764 105.673 85.612C105.417 85.46 105.041 85.384 104.545 85.384C103.497 85.384 102.973 85.732 102.973 86.428C102.973 86.612 103.005 86.772 103.069 86.908C103.133 87.036 103.209 87.136 103.297 87.208C103.385 87.28 103.517 87.34 103.693 87.388C103.877 87.436 104.037 87.472 104.173 87.496C104.317 87.512 104.521 87.532 104.785 87.556C105.153 87.588 105.461 87.636 105.709 87.7C105.957 87.756 106.197 87.848 106.429 87.976C106.661 88.096 106.833 88.268 106.945 88.492C107.065 88.716 107.125 88.996 107.125 89.332C107.125 89.908 106.917 90.36 106.501 90.688C106.085 91.008 105.473 91.168 104.665 91.168C103.321 91.168 102.457 90.672 102.073 89.68C102.009 89.536 102.053 89.44 102.205 89.392L102.517 89.284C102.645 89.244 102.741 89.288 102.805 89.416C103.069 90.112 103.681 90.46 104.641 90.46C105.769 90.46 106.333 90.096 106.333 89.368C106.333 88.976 106.193 88.712 105.913 88.576C105.641 88.432 105.201 88.328 104.593 88.264C104.289 88.232 104.045 88.204 103.861 88.18C103.685 88.148 103.473 88.092 103.225 88.012C102.985 87.932 102.797 87.832 102.661 87.712C102.525 87.592 102.409 87.428 102.313 87.22C102.217 87.004 102.169 86.748 102.169 86.452ZM108.806 82.624C108.974 82.624 109.09 82.656 109.154 82.72C109.218 82.784 109.25 82.9 109.25 83.068V83.152C109.25 83.32 109.218 83.436 109.154 83.5C109.09 83.564 108.974 83.596 108.806 83.596H108.734C108.566 83.596 108.45 83.564 108.386 83.5C108.322 83.436 108.29 83.32 108.29 83.152V83.068C108.29 82.9 108.322 82.784 108.386 82.72C108.45 82.656 108.566 82.624 108.734 82.624H108.806ZM108.962 84.832C109.106 84.832 109.178 84.904 109.178 85.048V90.784C109.178 90.928 109.106 91 108.962 91H108.578C108.434 91 108.362 90.928 108.362 90.784V85.048C108.362 84.904 108.434 84.832 108.578 84.832H108.962ZM110.573 86.86C110.573 86.172 110.805 85.632 111.269 85.24C111.741 84.848 112.385 84.652 113.201 84.652C114.025 84.652 114.673 84.848 115.145 85.24C115.617 85.632 115.853 86.172 115.853 86.86V88.972C115.853 89.66 115.617 90.2 115.145 90.592C114.673 90.976 114.025 91.168 113.201 91.168C112.385 91.168 111.741 90.972 111.269 90.58C110.805 90.188 110.573 89.652 110.573 88.972V86.86ZM115.037 86.86C115.037 86.404 114.873 86.044 114.545 85.78C114.217 85.516 113.769 85.384 113.201 85.384C112.641 85.384 112.197 85.516 111.869 85.78C111.541 86.044 111.377 86.404 111.377 86.86V88.972C111.377 89.428 111.541 89.788 111.869 90.052C112.205 90.308 112.649 90.436 113.201 90.436C113.769 90.436 114.217 90.308 114.545 90.052C114.873 89.788 115.037 89.428 115.037 88.972V86.86ZM117.665 85.06C118.329 84.788 119.073 84.652 119.897 84.652C121.489 84.652 122.285 85.436 122.285 87.004V90.784C122.285 90.928 122.213 91 122.069 91H121.697C121.617 91 121.561 90.984 121.529 90.952C121.497 90.92 121.481 90.864 121.481 90.784V87.028C121.481 85.94 120.921 85.396 119.801 85.396C119.233 85.396 118.701 85.484 118.205 85.66C118.085 85.716 118.025 85.816 118.025 85.96V90.784C118.025 90.928 117.953 91 117.809 91H117.425C117.281 91 117.209 90.928 117.209 90.784V85.72C117.209 85.536 117.237 85.4 117.293 85.312C117.357 85.224 117.481 85.14 117.665 85.06ZM123.579 86.452C123.579 85.892 123.779 85.452 124.179 85.132C124.587 84.812 125.175 84.652 125.943 84.652C127.191 84.652 128.007 85.088 128.391 85.96C128.471 86.104 128.435 86.208 128.283 86.272L127.983 86.404C127.855 86.46 127.755 86.424 127.683 86.296C127.547 85.992 127.347 85.764 127.083 85.612C126.827 85.46 126.451 85.384 125.955 85.384C124.907 85.384 124.383 85.732 124.383 86.428C124.383 86.612 124.415 86.772 124.479 86.908C124.543 87.036 124.619 87.136 124.707 87.208C124.795 87.28 124.927 87.34 125.103 87.388C125.287 87.436 125.447 87.472 125.583 87.496C125.727 87.512 125.931 87.532 126.195 87.556C126.563 87.588 126.871 87.636 127.119 87.7C127.367 87.756 127.607 87.848 127.839 87.976C128.071 88.096 128.243 88.268 128.355 88.492C128.475 88.716 128.535 88.996 128.535 89.332C128.535 89.908 128.327 90.36 127.911 90.688C127.495 91.008 126.883 91.168 126.075 91.168C124.731 91.168 123.867 90.672 123.483 89.68C123.419 89.536 123.463 89.44 123.615 89.392L123.927 89.284C124.055 89.244 124.151 89.288 124.215 89.416C124.479 90.112 125.091 90.46 126.051 90.46C127.179 90.46 127.743 90.096 127.743 89.368C127.743 88.976 127.603 88.712 127.323 88.576C127.051 88.432 126.611 88.328 126.003 88.264C125.699 88.232 125.455 88.204 125.271 88.18C125.095 88.148 124.883 88.092 124.635 88.012C124.395 87.932 124.207 87.832 124.071 87.712C123.935 87.592 123.819 87.428 123.723 87.22C123.627 87.004 123.579 86.748 123.579 86.452Z" fill="#3C5B7E"/>
<path d="M628.827 83.06C629.004 83.06 629.125 83.0973 629.191 83.172C629.265 83.2373 629.303 83.3587 629.303 83.536V92.524C629.303 92.7013 629.265 92.8273 629.191 92.902C629.125 92.9673 629.004 93 628.827 93H628.029C627.851 93 627.725 92.9673 627.651 92.902C627.585 92.8273 627.553 92.7013 627.553 92.524V85.188L625.593 86.28C625.406 86.3827 625.261 86.42 625.159 86.392C625.056 86.3547 624.963 86.2567 624.879 86.098L624.529 85.468C624.454 85.3093 624.431 85.188 624.459 85.104C624.496 85.0107 624.594 84.9173 624.753 84.824L627.483 83.256C627.697 83.1253 627.921 83.06 628.155 83.06H628.827ZM632.025 91.18C632.37 91.18 632.603 91.2453 632.725 91.376C632.855 91.5067 632.921 91.74 632.921 92.076V92.202C632.921 92.5473 632.855 92.7853 632.725 92.916C632.603 93.0373 632.37 93.098 632.025 93.098H631.927C631.581 93.098 631.343 93.0373 631.213 92.916C631.091 92.7853 631.031 92.5473 631.031 92.202V92.076C631.031 91.74 631.091 91.5067 631.213 91.376C631.343 91.2453 631.581 91.18 631.927 91.18H632.025ZM640.503 83.06C640.68 83.06 640.801 83.0973 640.867 83.172C640.941 83.2373 640.979 83.3587 640.979 83.536V84.222C640.979 84.3993 640.941 84.5253 640.867 84.6C640.801 84.6653 640.68 84.698 640.503 84.698H636.499L636.289 86.756H637.983C639.084 86.756 639.924 87.0547 640.503 87.652C641.091 88.24 641.385 88.9913 641.385 89.906C641.385 90.8393 641.067 91.6233 640.433 92.258C639.807 92.8927 638.953 93.21 637.871 93.21C635.892 93.21 634.627 92.4493 634.077 90.928C633.965 90.6293 634.063 90.424 634.371 90.312L635.141 90.046C635.309 89.9807 635.435 89.9713 635.519 90.018C635.603 90.0553 635.677 90.1627 635.743 90.34C636.051 91.1613 636.755 91.572 637.857 91.572C638.361 91.572 638.767 91.4273 639.075 91.138C639.383 90.8393 639.537 90.4287 639.537 89.906C639.537 89.4393 639.383 89.0707 639.075 88.8C638.776 88.52 638.379 88.38 637.885 88.38H634.931C634.725 88.38 634.585 88.338 634.511 88.254C634.436 88.1607 634.408 88.016 634.427 87.82L634.847 83.746C634.875 83.4847 634.945 83.3073 635.057 83.214C635.169 83.1113 635.355 83.06 635.617 83.06H640.503Z" fill="#D900AB"/>
<path d="M654.013 92.734C654.088 92.9113 654.022 93 653.817 93H653.411C653.122 93 652.954 92.916 652.907 92.748L651.857 90.088H647.475L646.425 92.748C646.397 92.8507 646.35 92.9207 646.285 92.958C646.22 92.986 646.103 93 645.935 93H645.557C645.361 93 645.3 92.9113 645.375 92.734L649.127 83.256C649.183 83.0973 649.3 83.018 649.477 83.018H649.897C650.084 83.018 650.205 83.0927 650.261 83.242L654.013 92.734ZM649.897 84.95C649.766 84.5767 649.701 84.2547 649.701 83.984H649.631C649.631 84.2827 649.575 84.6047 649.463 84.95L647.769 89.248H651.577L649.897 84.95ZM660.208 83.06C660.311 83.06 660.381 83.0833 660.418 83.13C660.465 83.1673 660.488 83.2373 660.488 83.34V83.732C660.488 83.8347 660.465 83.9093 660.418 83.956C660.381 83.9933 660.311 84.012 660.208 84.012H657.38V92.72C657.38 92.8227 657.357 92.8973 657.31 92.944C657.273 92.9813 657.203 93 657.1 93H656.638C656.536 93 656.461 92.9813 656.414 92.944C656.377 92.8973 656.358 92.8227 656.358 92.72V84.012H653.53C653.428 84.012 653.353 83.9933 653.306 83.956C653.269 83.9093 653.25 83.8347 653.25 83.732V83.34C653.25 83.2373 653.269 83.1673 653.306 83.13C653.353 83.0833 653.428 83.06 653.53 83.06H660.208ZM661.318 86.378C661.318 85.2767 661.649 84.418 662.312 83.802C662.974 83.1767 663.926 82.864 665.168 82.864C666.4 82.864 667.347 83.1767 668.01 83.802C668.672 84.418 669.004 85.2767 669.004 86.378V89.682C669.004 90.7833 668.672 91.6467 668.01 92.272C667.347 92.888 666.4 93.196 665.168 93.196C663.926 93.196 662.974 92.888 662.312 92.272C661.649 91.6467 661.318 90.7833 661.318 89.682V86.378ZM667.996 86.378C667.996 85.5567 667.753 84.922 667.268 84.474C666.782 84.026 666.082 83.802 665.168 83.802C664.253 83.802 663.548 84.026 663.054 84.474C662.568 84.922 662.326 85.5567 662.326 86.378V89.682C662.326 90.5033 662.568 91.138 663.054 91.586C663.548 92.034 664.253 92.258 665.168 92.258C666.082 92.258 666.782 92.034 667.268 91.586C667.753 91.138 667.996 90.5033 667.996 89.682V86.378ZM679.645 83.06C679.747 83.06 679.817 83.0833 679.855 83.13C679.901 83.1673 679.925 83.2373 679.925 83.34V92.72C679.925 92.8227 679.901 92.8973 679.855 92.944C679.817 92.9813 679.747 93 679.645 93H679.225C679.122 93 679.047 92.9813 679.001 92.944C678.963 92.8973 678.945 92.8227 678.945 92.72L678.959 87.008C678.959 86.1493 679.015 85.3233 679.127 84.53H679.071C678.772 85.2393 678.413 85.9673 677.993 86.714L675.865 90.466C675.799 90.606 675.692 90.676 675.543 90.676H675.263C675.113 90.676 675.001 90.606 674.927 90.466L672.771 86.672C672.425 86.084 672.085 85.3653 671.749 84.516H671.693C671.795 85.3653 671.847 86.2007 671.847 87.022V92.72C671.847 92.8227 671.823 92.8973 671.777 92.944C671.739 92.9813 671.669 93 671.567 93H671.175C671.072 93 670.997 92.9813 670.951 92.944C670.913 92.8973 670.895 92.8227 670.895 92.72V83.34C670.895 83.2373 670.913 83.1673 670.951 83.13C670.997 83.0833 671.072 83.06 671.175 83.06H671.539C671.716 83.06 671.847 83.1347 671.931 83.284L675.403 89.43L678.847 83.298C678.903 83.1953 678.954 83.13 679.001 83.102C679.047 83.074 679.127 83.06 679.239 83.06H679.645Z" fill="#292929"/>
<line x1="130" y1="92.5" x2="624" y2="92.5" stroke="#A18EFF" stroke-dasharray="2 2"/>
</svg>
