<svg width="526" height="75" viewBox="0 0 526 75" fill="none" xmlns="http://www.w3.org/2000/svg">
<g filter="url(#filter0_d_799_23785)">
<rect x="15" y="11" width="496" height="45" rx="4" fill="white"/>
</g>
<path d="M170 28H172V40H170V28ZM180 33H174V35H180V40L186 34L180 28V33Z" fill="#A8C3E1"/>
<path d="M342 28H344V40H342V28ZM352 33H346V35H352V40L358 34L352 28V33Z" fill="#A8C3E1"/>
<path d="M210.848 38.584C210.944 38.8613 210.848 39 210.56 39H209.936C209.68 39 209.499 38.9787 209.392 38.936C209.296 38.8827 209.222 38.7813 209.168 38.632L208.176 36.024H203.44L202.448 38.632C202.395 38.7813 202.315 38.8827 202.208 38.936C202.112 38.9787 201.936 39 201.68 39H201.12C200.832 39 200.736 38.8613 200.832 38.584L204.992 27.96C205.067 27.7253 205.243 27.608 205.52 27.608H206.16C206.438 27.608 206.614 27.72 206.688 27.944L210.848 38.584ZM206.144 30.552C205.952 29.9867 205.856 29.4853 205.856 29.048H205.76L205.744 29.272C205.734 29.4107 205.707 29.6027 205.664 29.848C205.622 30.0933 205.563 30.3227 205.488 30.536L203.872 34.76H207.744L206.144 30.552ZM218.378 30.744C218.527 30.744 218.629 30.7707 218.682 30.824C218.735 30.8773 218.762 30.9787 218.762 31.128V37.8C218.762 38.056 218.719 38.2427 218.634 38.36C218.559 38.4773 218.399 38.5893 218.154 38.696C217.183 39.0587 216.165 39.24 215.098 39.24C212.933 39.24 211.85 38.184 211.85 36.072V31.128C211.85 30.9787 211.877 30.8773 211.93 30.824C211.983 30.7707 212.085 30.744 212.234 30.744H212.906C213.045 30.744 213.141 30.776 213.194 30.84C213.247 30.8933 213.274 30.9893 213.274 31.128V36.024C213.274 37.2933 213.946 37.928 215.29 37.928C215.909 37.928 216.511 37.8373 217.098 37.656C217.258 37.5813 217.338 37.4587 217.338 37.288V31.128C217.338 30.9787 217.365 30.8773 217.418 30.824C217.482 30.7707 217.583 30.744 217.722 30.744H218.378ZM222.598 28.824C222.737 28.824 222.833 28.8507 222.886 28.904C222.95 28.9573 222.982 29.0587 222.982 29.208V30.744H225.078C225.217 30.744 225.313 30.776 225.366 30.84C225.42 30.8933 225.446 30.9893 225.446 31.128V31.688C225.446 31.8267 225.42 31.928 225.366 31.992C225.313 32.0453 225.217 32.072 225.078 32.072H222.982V35.8C222.982 36.6427 223.126 37.2027 223.414 37.48C223.702 37.7467 224.246 37.88 225.046 37.88C225.196 37.88 225.297 37.9067 225.35 37.96C225.414 38.0133 225.446 38.1147 225.446 38.264V38.84C225.446 38.9787 225.414 39.0747 225.35 39.128C225.297 39.1813 225.196 39.2133 225.046 39.224C223.756 39.256 222.849 39.032 222.326 38.552C221.814 38.0613 221.558 37.1547 221.558 35.832V32.072H220.23C220.092 32.072 219.99 32.0453 219.926 31.992C219.873 31.928 219.846 31.8267 219.846 31.688V31.128C219.846 30.9787 219.873 30.8773 219.926 30.824C219.99 30.7707 220.092 30.744 220.23 30.744H221.558V29.208C221.558 29.0587 221.585 28.9573 221.638 28.904C221.692 28.8507 221.788 28.824 221.926 28.824H222.598ZM226.424 33.576C226.424 32.616 226.738 31.864 227.368 31.32C228.008 30.776 228.888 30.504 230.008 30.504C231.149 30.504 232.034 30.776 232.664 31.32C233.293 31.864 233.608 32.616 233.608 33.576V36.184C233.608 37.1333 233.293 37.88 232.664 38.424C232.034 38.968 231.149 39.24 230.008 39.24C228.888 39.24 228.008 38.968 227.368 38.424C226.738 37.88 226.424 37.1333 226.424 36.184V33.576ZM232.184 33.56C232.184 33.0053 231.992 32.5733 231.608 32.264C231.224 31.9547 230.69 31.8 230.008 31.8C229.336 31.8 228.808 31.9547 228.424 32.264C228.04 32.5733 227.848 33.0053 227.848 33.56V36.184C227.848 36.7387 228.04 37.1707 228.424 37.48C228.808 37.7893 229.336 37.944 230.008 37.944C230.69 37.944 231.224 37.7893 231.608 37.48C231.992 37.1707 232.184 36.7387 232.184 36.184V33.56ZM238.856 30.504H239.368C239.517 30.504 239.618 30.536 239.672 30.6C239.725 30.6533 239.752 30.7493 239.752 30.888V31.432C239.752 31.5707 239.725 31.672 239.672 31.736C239.618 31.7893 239.517 31.816 239.368 31.816H238.808C238.168 31.816 237.554 31.9067 236.968 32.088C236.818 32.1413 236.744 32.248 236.744 32.408V38.616C236.744 38.7653 236.717 38.8667 236.664 38.92C236.61 38.9733 236.509 39 236.36 39H235.688C235.549 39 235.453 38.9733 235.4 38.92C235.346 38.856 235.32 38.7547 235.32 38.616V31.896C235.32 31.64 235.357 31.4533 235.432 31.336C235.517 31.2187 235.682 31.1067 235.928 31C236.728 30.6907 237.704 30.5253 238.856 30.504ZM240.298 33.928C240.298 32.84 240.607 31.9973 241.226 31.4C241.844 30.8027 242.74 30.504 243.914 30.504C245.098 30.504 245.994 30.808 246.602 31.416C247.22 32.024 247.53 32.824 247.53 33.816V34.744C247.53 35.1173 247.332 35.304 246.938 35.304H241.722V36.072C241.722 36.6907 241.903 37.1653 242.266 37.496C242.639 37.8267 243.172 37.992 243.866 37.992C244.911 37.992 245.652 37.624 246.09 36.888C246.186 36.7493 246.276 36.6693 246.362 36.648C246.458 36.6267 246.575 36.6587 246.714 36.744L247.146 36.968C247.423 37.1067 247.471 37.3147 247.29 37.592C246.66 38.6907 245.514 39.24 243.85 39.24C242.655 39.24 241.764 38.9413 241.178 38.344C240.591 37.7467 240.298 36.936 240.298 35.912V33.928ZM246.106 33.736C246.106 33.096 245.919 32.6 245.546 32.248C245.172 31.896 244.628 31.72 243.914 31.72C243.199 31.72 242.655 31.9013 242.282 32.264C241.908 32.616 241.722 33.1067 241.722 33.736V34.2H246.106V33.736ZM248.813 32.984C248.813 32.216 249.085 31.6133 249.629 31.176C250.183 30.728 250.983 30.504 252.029 30.504C253.725 30.504 254.839 31.08 255.373 32.232C255.501 32.488 255.437 32.6747 255.181 32.792L254.637 33.016C254.487 33.08 254.381 33.1013 254.317 33.08C254.263 33.048 254.194 32.968 254.109 32.84C253.938 32.4987 253.698 32.2427 253.389 32.072C253.079 31.8907 252.637 31.8 252.061 31.8C250.845 31.8 250.237 32.184 250.237 32.952C250.237 33.4213 250.402 33.736 250.733 33.896C251.074 34.0453 251.634 34.152 252.413 34.216C253.469 34.3227 254.258 34.5467 254.781 34.888C255.314 35.2187 255.581 35.816 255.581 36.68C255.581 37.4693 255.293 38.0933 254.717 38.552C254.151 39.0107 253.325 39.24 252.237 39.24C250.402 39.24 249.234 38.584 248.733 37.272C248.626 37.016 248.706 36.8453 248.973 36.76L249.517 36.568C249.751 36.4933 249.922 36.5733 250.029 36.808C250.327 37.576 251.047 37.96 252.189 37.96C253.522 37.96 254.189 37.5547 254.189 36.744C254.189 36.296 254.023 35.992 253.693 35.832C253.362 35.672 252.818 35.5547 252.061 35.48C251.666 35.4373 251.341 35.3947 251.085 35.352C250.839 35.3093 250.557 35.2347 250.237 35.128C249.917 35.0107 249.666 34.872 249.485 34.712C249.303 34.5413 249.143 34.312 249.005 34.024C248.877 33.7253 248.813 33.3787 248.813 32.984ZM259.005 28.824C259.143 28.824 259.239 28.8507 259.293 28.904C259.357 28.9573 259.389 29.0587 259.389 29.208V30.744H261.485C261.623 30.744 261.719 30.776 261.773 30.84C261.826 30.8933 261.853 30.9893 261.853 31.128V31.688C261.853 31.8267 261.826 31.928 261.773 31.992C261.719 32.0453 261.623 32.072 261.485 32.072H259.389V35.8C259.389 36.6427 259.533 37.2027 259.821 37.48C260.109 37.7467 260.653 37.88 261.453 37.88C261.602 37.88 261.703 37.9067 261.757 37.96C261.821 38.0133 261.853 38.1147 261.853 38.264V38.84C261.853 38.9787 261.821 39.0747 261.757 39.128C261.703 39.1813 261.602 39.2133 261.453 39.224C260.162 39.256 259.255 39.032 258.733 38.552C258.221 38.0613 257.965 37.1547 257.965 35.832V32.072H256.637C256.498 32.072 256.397 32.0453 256.333 31.992C256.279 31.928 256.253 31.8267 256.253 31.688V31.128C256.253 30.9787 256.279 30.8773 256.333 30.824C256.397 30.7707 256.498 30.744 256.637 30.744H257.965V29.208C257.965 29.0587 257.991 28.9573 258.045 28.904C258.098 28.8507 258.194 28.824 258.333 28.824H259.005ZM262.926 32.184C263.502 31.064 264.584 30.504 266.174 30.504C267.379 30.504 268.232 30.792 268.734 31.368C269.235 31.944 269.486 32.7333 269.486 33.736V37.912C269.486 38.1893 269.443 38.3867 269.358 38.504C269.283 38.6213 269.134 38.728 268.91 38.824C268.27 39.1013 267.352 39.24 266.158 39.24C264.824 39.24 263.907 39.0373 263.406 38.632C262.904 38.216 262.654 37.5707 262.654 36.696C262.654 35.768 262.926 35.1173 263.47 34.744C264.014 34.3707 264.931 34.184 266.222 34.184C266.798 34.184 267.406 34.2213 268.046 34.296V33.688C268.046 33.0693 267.902 32.6 267.614 32.28C267.336 31.9493 266.846 31.784 266.142 31.784C265.214 31.784 264.552 32.1093 264.158 32.76C264.062 32.888 263.987 32.968 263.934 33C263.88 33.0213 263.779 33.0053 263.63 32.952L263.134 32.728C262.867 32.6213 262.798 32.44 262.926 32.184ZM268.046 35.48C267.192 35.3947 266.531 35.352 266.062 35.352C265.326 35.352 264.814 35.4587 264.526 35.672C264.238 35.8853 264.094 36.2267 264.094 36.696C264.094 37.1547 264.227 37.496 264.494 37.72C264.771 37.9333 265.283 38.04 266.03 38.04C266.84 38.04 267.432 37.976 267.806 37.848C267.966 37.784 268.046 37.6667 268.046 37.496V35.48ZM278.184 38.552C278.269 38.712 278.296 38.8293 278.264 38.904C278.232 38.968 278.125 39 277.944 39H277.32C277.106 39 276.962 38.9787 276.888 38.936C276.813 38.8933 276.738 38.7973 276.664 38.648L275.56 36.328C275.41 36.008 275.224 35.784 275 35.656C274.786 35.5173 274.493 35.448 274.12 35.448H272.776V38.6C272.776 38.7493 272.744 38.856 272.68 38.92C272.626 38.9733 272.525 39 272.376 39H271.752C271.602 39 271.496 38.9733 271.432 38.92C271.378 38.856 271.352 38.7493 271.352 38.6V27.544C271.352 27.3947 271.378 27.2933 271.432 27.24C271.496 27.1867 271.602 27.16 271.752 27.16H272.376C272.525 27.16 272.626 27.1867 272.68 27.24C272.744 27.2933 272.776 27.3947 272.776 27.544V34.12H273.944H274.072L276.456 31.032C276.552 30.8933 276.642 30.8133 276.728 30.792C276.813 30.76 276.973 30.744 277.208 30.744H277.816C278.21 30.744 278.29 30.8933 278.056 31.192L275.496 34.392C276.008 34.584 276.434 35.0213 276.776 35.704L278.184 38.552ZM279.157 33.928C279.157 32.84 279.466 31.9973 280.085 31.4C280.704 30.8027 281.6 30.504 282.773 30.504C283.957 30.504 284.853 30.808 285.461 31.416C286.08 32.024 286.389 32.824 286.389 33.816V34.744C286.389 35.1173 286.192 35.304 285.797 35.304H280.581V36.072C280.581 36.6907 280.762 37.1653 281.125 37.496C281.498 37.8267 282.032 37.992 282.725 37.992C283.77 37.992 284.512 37.624 284.949 36.888C285.045 36.7493 285.136 36.6693 285.221 36.648C285.317 36.6267 285.434 36.6587 285.573 36.744L286.005 36.968C286.282 37.1067 286.33 37.3147 286.149 37.592C285.52 38.6907 284.373 39.24 282.709 39.24C281.514 39.24 280.624 38.9413 280.037 38.344C279.45 37.7467 279.157 36.936 279.157 35.912V33.928ZM284.965 33.736C284.965 33.096 284.778 32.6 284.405 32.248C284.032 31.896 283.488 31.72 282.773 31.72C282.058 31.72 281.514 31.9013 281.141 32.264C280.768 32.616 280.581 33.1067 280.581 33.736V34.2H284.965V33.736Z" fill="#59779A"/>
<rect x="295" y="29.3333" width="28" height="9.33333" rx="4.66667" fill="#C3D6EC"/>
<rect x="295" y="27" width="14" height="14" rx="7" fill="#6B93C0"/>
<path d="M39.8483 38.584C39.9443 38.8613 39.8483 39 39.5603 39H38.9363C38.6803 39 38.4989 38.9787 38.3923 38.936C38.2963 38.8827 38.2216 38.7813 38.1683 38.632L37.1763 36.024H32.4403L31.4483 38.632C31.3949 38.7813 31.3149 38.8827 31.2083 38.936C31.1123 38.9787 30.9363 39 30.6803 39H30.1203C29.8323 39 29.7363 38.8613 29.8323 38.584L33.9923 27.96C34.0669 27.7253 34.2429 27.608 34.5203 27.608H35.1603C35.4376 27.608 35.6136 27.72 35.6883 27.944L39.8483 38.584ZM35.1443 30.552C34.9523 29.9867 34.8563 29.4853 34.8563 29.048H34.7603L34.7443 29.272C34.7336 29.4107 34.7069 29.6027 34.6643 29.848C34.6216 30.0933 34.5629 30.3227 34.4883 30.536L32.8723 34.76H36.7443L35.1443 30.552ZM47.3779 30.744C47.5272 30.744 47.6285 30.7707 47.6819 30.824C47.7352 30.8773 47.7619 30.9787 47.7619 31.128V37.8C47.7619 38.056 47.7192 38.2427 47.6339 38.36C47.5592 38.4773 47.3992 38.5893 47.1539 38.696C46.1832 39.0587 45.1645 39.24 44.0979 39.24C41.9325 39.24 40.8499 38.184 40.8499 36.072V31.128C40.8499 30.9787 40.8765 30.8773 40.9299 30.824C40.9832 30.7707 41.0845 30.744 41.2339 30.744H41.9059C42.0445 30.744 42.1405 30.776 42.1939 30.84C42.2472 30.8933 42.2739 30.9893 42.2739 31.128V36.024C42.2739 37.2933 42.9459 37.928 44.2899 37.928C44.9085 37.928 45.5112 37.8373 46.0979 37.656C46.2579 37.5813 46.3379 37.4587 46.3379 37.288V31.128C46.3379 30.9787 46.3645 30.8773 46.4179 30.824C46.4819 30.7707 46.5832 30.744 46.7219 30.744H47.3779ZM51.5984 28.824C51.737 28.824 51.833 28.8507 51.8864 28.904C51.9504 28.9573 51.9824 29.0587 51.9824 29.208V30.744H54.0784C54.217 30.744 54.313 30.776 54.3664 30.84C54.4197 30.8933 54.4464 30.9893 54.4464 31.128V31.688C54.4464 31.8267 54.4197 31.928 54.3664 31.992C54.313 32.0453 54.217 32.072 54.0784 32.072H51.9824V35.8C51.9824 36.6427 52.1264 37.2027 52.4144 37.48C52.7024 37.7467 53.2464 37.88 54.0464 37.88C54.1957 37.88 54.297 37.9067 54.3504 37.96C54.4144 38.0133 54.4464 38.1147 54.4464 38.264V38.84C54.4464 38.9787 54.4144 39.0747 54.3504 39.128C54.297 39.1813 54.1957 39.2133 54.0464 39.224C52.7557 39.256 51.849 39.032 51.3264 38.552C50.8144 38.0613 50.5584 37.1547 50.5584 35.832V32.072H49.2304C49.0917 32.072 48.9904 32.0453 48.9264 31.992C48.873 31.928 48.8464 31.8267 48.8464 31.688V31.128C48.8464 30.9787 48.873 30.8773 48.9264 30.824C48.9904 30.7707 49.0917 30.744 49.2304 30.744H50.5584V29.208C50.5584 29.0587 50.585 28.9573 50.6384 28.904C50.6917 28.8507 50.7877 28.824 50.9264 28.824H51.5984ZM55.4235 33.576C55.4235 32.616 55.7382 31.864 56.3675 31.32C57.0075 30.776 57.8875 30.504 59.0075 30.504C60.1488 30.504 61.0342 30.776 61.6635 31.32C62.2928 31.864 62.6075 32.616 62.6075 33.576V36.184C62.6075 37.1333 62.2928 37.88 61.6635 38.424C61.0342 38.968 60.1488 39.24 59.0075 39.24C57.8875 39.24 57.0075 38.968 56.3675 38.424C55.7382 37.88 55.4235 37.1333 55.4235 36.184V33.576ZM61.1835 33.56C61.1835 33.0053 60.9915 32.5733 60.6075 32.264C60.2235 31.9547 59.6902 31.8 59.0075 31.8C58.3355 31.8 57.8075 31.9547 57.4235 32.264C57.0395 32.5733 56.8475 33.0053 56.8475 33.56V36.184C56.8475 36.7387 57.0395 37.1707 57.4235 37.48C57.8075 37.7893 58.3355 37.944 59.0075 37.944C59.6902 37.944 60.2235 37.7893 60.6075 37.48C60.9915 37.1707 61.1835 36.7387 61.1835 36.184V33.56ZM67.8558 30.504H68.3678C68.5171 30.504 68.6184 30.536 68.6718 30.6C68.7251 30.6533 68.7518 30.7493 68.7518 30.888V31.432C68.7518 31.5707 68.7251 31.672 68.6718 31.736C68.6184 31.7893 68.5171 31.816 68.3678 31.816H67.8078C67.1678 31.816 66.5544 31.9067 65.9678 32.088C65.8184 32.1413 65.7438 32.248 65.7438 32.408V38.616C65.7438 38.7653 65.7171 38.8667 65.6638 38.92C65.6104 38.9733 65.5091 39 65.3598 39H64.6878C64.5491 39 64.4531 38.9733 64.3997 38.92C64.3464 38.856 64.3198 38.7547 64.3198 38.616V31.896C64.3198 31.64 64.3571 31.4533 64.4318 31.336C64.5171 31.2187 64.6824 31.1067 64.9278 31C65.7278 30.6907 66.7038 30.5253 67.8558 30.504ZM69.2978 33.928C69.2978 32.84 69.6071 31.9973 70.2258 31.4C70.8444 30.8027 71.7404 30.504 72.9138 30.504C74.0978 30.504 74.9938 30.808 75.6018 31.416C76.2204 32.024 76.5298 32.824 76.5298 33.816V34.744C76.5298 35.1173 76.3324 35.304 75.9378 35.304H70.7218V36.072C70.7218 36.6907 70.9031 37.1653 71.2658 37.496C71.6391 37.8267 72.1724 37.992 72.8658 37.992C73.9111 37.992 74.6524 37.624 75.0898 36.888C75.1858 36.7493 75.2764 36.6693 75.3618 36.648C75.4578 36.6267 75.5751 36.6587 75.7138 36.744L76.1458 36.968C76.4231 37.1067 76.4711 37.3147 76.2898 37.592C75.6604 38.6907 74.5138 39.24 72.8498 39.24C71.6551 39.24 70.7644 38.9413 70.1778 38.344C69.5911 37.7467 69.2978 36.936 69.2978 35.912V33.928ZM75.1058 33.736C75.1058 33.096 74.9191 32.6 74.5458 32.248C74.1724 31.896 73.6284 31.72 72.9138 31.72C72.1991 31.72 71.6551 31.9013 71.2818 32.264C70.9084 32.616 70.7218 33.1067 70.7218 33.736V34.2H75.1058V33.736ZM77.8126 32.984C77.8126 32.216 78.0846 31.6133 78.6286 31.176C79.1833 30.728 79.9833 30.504 81.0286 30.504C82.7246 30.504 83.8393 31.08 84.3726 32.232C84.5006 32.488 84.4366 32.6747 84.1806 32.792L83.6366 33.016C83.4873 33.08 83.3806 33.1013 83.3166 33.08C83.2633 33.048 83.194 32.968 83.1086 32.84C82.938 32.4987 82.698 32.2427 82.3886 32.072C82.0793 31.8907 81.6366 31.8 81.0606 31.8C79.8446 31.8 79.2366 32.184 79.2366 32.952C79.2366 33.4213 79.402 33.736 79.7326 33.896C80.074 34.0453 80.634 34.152 81.4126 34.216C82.4686 34.3227 83.258 34.5467 83.7806 34.888C84.314 35.2187 84.5806 35.816 84.5806 36.68C84.5806 37.4693 84.2926 38.0933 83.7166 38.552C83.1513 39.0107 82.3246 39.24 81.2366 39.24C79.402 39.24 78.234 38.584 77.7326 37.272C77.626 37.016 77.706 36.8453 77.9726 36.76L78.5166 36.568C78.7513 36.4933 78.922 36.5733 79.0286 36.808C79.3273 37.576 80.0473 37.96 81.1886 37.96C82.522 37.96 83.1886 37.5547 83.1886 36.744C83.1886 36.296 83.0233 35.992 82.6926 35.832C82.362 35.672 81.818 35.5547 81.0606 35.48C80.666 35.4373 80.3406 35.3947 80.0846 35.352C79.8393 35.3093 79.5566 35.2347 79.2366 35.128C78.9166 35.0107 78.666 34.872 78.4846 34.712C78.3033 34.5413 78.1433 34.312 78.0046 34.024C77.8766 33.7253 77.8126 33.3787 77.8126 32.984ZM88.0046 28.824C88.1433 28.824 88.2393 28.8507 88.2926 28.904C88.3566 28.9573 88.3886 29.0587 88.3886 29.208V30.744H90.4846C90.6233 30.744 90.7193 30.776 90.7726 30.84C90.826 30.8933 90.8526 30.9893 90.8526 31.128V31.688C90.8526 31.8267 90.826 31.928 90.7726 31.992C90.7193 32.0453 90.6233 32.072 90.4846 32.072H88.3886V35.8C88.3886 36.6427 88.5326 37.2027 88.8206 37.48C89.1086 37.7467 89.6526 37.88 90.4526 37.88C90.602 37.88 90.7033 37.9067 90.7566 37.96C90.8206 38.0133 90.8526 38.1147 90.8526 38.264V38.84C90.8526 38.9787 90.8206 39.0747 90.7566 39.128C90.7033 39.1813 90.602 39.2133 90.4526 39.224C89.162 39.256 88.2553 39.032 87.7326 38.552C87.2206 38.0613 86.9646 37.1547 86.9646 35.832V32.072H85.6366C85.498 32.072 85.3966 32.0453 85.3326 31.992C85.2793 31.928 85.2526 31.8267 85.2526 31.688V31.128C85.2526 30.9787 85.2793 30.8773 85.3326 30.824C85.3966 30.7707 85.498 30.744 85.6366 30.744H86.9646V29.208C86.9646 29.0587 86.9913 28.9573 87.0446 28.904C87.098 28.8507 87.194 28.824 87.3326 28.824H88.0046ZM91.9258 32.184C92.5018 31.064 93.5844 30.504 95.1738 30.504C96.3791 30.504 97.2324 30.792 97.7338 31.368C98.2351 31.944 98.4858 32.7333 98.4858 33.736V37.912C98.4858 38.1893 98.4431 38.3867 98.3578 38.504C98.2831 38.6213 98.1338 38.728 97.9098 38.824C97.2698 39.1013 96.3524 39.24 95.1578 39.24C93.8244 39.24 92.9071 39.0373 92.4058 38.632C91.9044 38.216 91.6538 37.5707 91.6538 36.696C91.6538 35.768 91.9258 35.1173 92.4698 34.744C93.0138 34.3707 93.9311 34.184 95.2218 34.184C95.7978 34.184 96.4058 34.2213 97.0458 34.296V33.688C97.0458 33.0693 96.9018 32.6 96.6138 32.28C96.3364 31.9493 95.8458 31.784 95.1418 31.784C94.2138 31.784 93.5524 32.1093 93.1578 32.76C93.0618 32.888 92.9871 32.968 92.9338 33C92.8804 33.0213 92.7791 33.0053 92.6298 32.952L92.1338 32.728C91.8671 32.6213 91.7978 32.44 91.9258 32.184ZM97.0458 35.48C96.1924 35.3947 95.5311 35.352 95.0618 35.352C94.3258 35.352 93.8138 35.4587 93.5258 35.672C93.2378 35.8853 93.0938 36.2267 93.0938 36.696C93.0938 37.1547 93.2271 37.496 93.4938 37.72C93.7711 37.9333 94.2831 38.04 95.0298 38.04C95.8404 38.04 96.4324 37.976 96.8058 37.848C96.9658 37.784 97.0458 37.6667 97.0458 37.496V35.48ZM107.184 38.552C107.269 38.712 107.296 38.8293 107.264 38.904C107.232 38.968 107.125 39 106.944 39H106.32C106.106 39 105.962 38.9787 105.888 38.936C105.813 38.8933 105.738 38.7973 105.664 38.648L104.56 36.328C104.41 36.008 104.224 35.784 104 35.656C103.786 35.5173 103.493 35.448 103.12 35.448H101.776V38.6C101.776 38.7493 101.744 38.856 101.68 38.92C101.626 38.9733 101.525 39 101.376 39H100.752C100.602 39 100.496 38.9733 100.432 38.92C100.378 38.856 100.352 38.7493 100.352 38.6V27.544C100.352 27.3947 100.378 27.2933 100.432 27.24C100.496 27.1867 100.602 27.16 100.752 27.16H101.376C101.525 27.16 101.626 27.1867 101.68 27.24C101.744 27.2933 101.776 27.3947 101.776 27.544V34.12H102.944H103.072L105.456 31.032C105.552 30.8933 105.642 30.8133 105.728 30.792C105.813 30.76 105.973 30.744 106.208 30.744H106.816C107.21 30.744 107.29 30.8933 107.056 31.192L104.496 34.392C105.008 34.584 105.434 35.0213 105.776 35.704L107.184 38.552ZM108.157 33.928C108.157 32.84 108.466 31.9973 109.085 31.4C109.704 30.8027 110.6 30.504 111.773 30.504C112.957 30.504 113.853 30.808 114.461 31.416C115.08 32.024 115.389 32.824 115.389 33.816V34.744C115.389 35.1173 115.192 35.304 114.797 35.304H109.581V36.072C109.581 36.6907 109.762 37.1653 110.125 37.496C110.498 37.8267 111.032 37.992 111.725 37.992C112.77 37.992 113.512 37.624 113.949 36.888C114.045 36.7493 114.136 36.6693 114.221 36.648C114.317 36.6267 114.434 36.6587 114.573 36.744L115.005 36.968C115.282 37.1067 115.33 37.3147 115.149 37.592C114.52 38.6907 113.373 39.24 111.709 39.24C110.514 39.24 109.624 38.9413 109.037 38.344C108.45 37.7467 108.157 36.936 108.157 35.912V33.928ZM113.965 33.736C113.965 33.096 113.778 32.6 113.405 32.248C113.032 31.896 112.488 31.72 111.773 31.72C111.058 31.72 110.514 31.9013 110.141 32.264C109.768 32.616 109.581 33.1067 109.581 33.736V34.2H113.965V33.736Z" fill="#292929"/>
<rect x="124" y="29.3333" width="28" height="9.33333" rx="4.66667" fill="#C6D1FF"/>
<rect x="138" y="27" width="14" height="14" rx="7" fill="#5639E0"/>
<path d="M384.848 38.584C384.944 38.8613 384.848 39 384.56 39H383.936C383.68 39 383.499 38.9787 383.392 38.936C383.296 38.8827 383.222 38.7813 383.168 38.632L382.176 36.024H377.44L376.448 38.632C376.395 38.7813 376.315 38.8827 376.208 38.936C376.112 38.9787 375.936 39 375.68 39H375.12C374.832 39 374.736 38.8613 374.832 38.584L378.992 27.96C379.067 27.7253 379.243 27.608 379.52 27.608H380.16C380.438 27.608 380.614 27.72 380.688 27.944L384.848 38.584ZM380.144 30.552C379.952 29.9867 379.856 29.4853 379.856 29.048H379.76L379.744 29.272C379.734 29.4107 379.707 29.6027 379.664 29.848C379.622 30.0933 379.563 30.3227 379.488 30.536L377.872 34.76H381.744L380.144 30.552ZM392.378 30.744C392.527 30.744 392.629 30.7707 392.682 30.824C392.735 30.8773 392.762 30.9787 392.762 31.128V37.8C392.762 38.056 392.719 38.2427 392.634 38.36C392.559 38.4773 392.399 38.5893 392.154 38.696C391.183 39.0587 390.165 39.24 389.098 39.24C386.933 39.24 385.85 38.184 385.85 36.072V31.128C385.85 30.9787 385.877 30.8773 385.93 30.824C385.983 30.7707 386.085 30.744 386.234 30.744H386.906C387.045 30.744 387.141 30.776 387.194 30.84C387.247 30.8933 387.274 30.9893 387.274 31.128V36.024C387.274 37.2933 387.946 37.928 389.29 37.928C389.909 37.928 390.511 37.8373 391.098 37.656C391.258 37.5813 391.338 37.4587 391.338 37.288V31.128C391.338 30.9787 391.365 30.8773 391.418 30.824C391.482 30.7707 391.583 30.744 391.722 30.744H392.378ZM396.598 28.824C396.737 28.824 396.833 28.8507 396.886 28.904C396.95 28.9573 396.982 29.0587 396.982 29.208V30.744H399.078C399.217 30.744 399.313 30.776 399.366 30.84C399.42 30.8933 399.446 30.9893 399.446 31.128V31.688C399.446 31.8267 399.42 31.928 399.366 31.992C399.313 32.0453 399.217 32.072 399.078 32.072H396.982V35.8C396.982 36.6427 397.126 37.2027 397.414 37.48C397.702 37.7467 398.246 37.88 399.046 37.88C399.196 37.88 399.297 37.9067 399.35 37.96C399.414 38.0133 399.446 38.1147 399.446 38.264V38.84C399.446 38.9787 399.414 39.0747 399.35 39.128C399.297 39.1813 399.196 39.2133 399.046 39.224C397.756 39.256 396.849 39.032 396.326 38.552C395.814 38.0613 395.558 37.1547 395.558 35.832V32.072H394.23C394.092 32.072 393.99 32.0453 393.926 31.992C393.873 31.928 393.846 31.8267 393.846 31.688V31.128C393.846 30.9787 393.873 30.8773 393.926 30.824C393.99 30.7707 394.092 30.744 394.23 30.744H395.558V29.208C395.558 29.0587 395.585 28.9573 395.638 28.904C395.692 28.8507 395.788 28.824 395.926 28.824H396.598ZM400.424 33.576C400.424 32.616 400.738 31.864 401.368 31.32C402.008 30.776 402.888 30.504 404.008 30.504C405.149 30.504 406.034 30.776 406.664 31.32C407.293 31.864 407.608 32.616 407.608 33.576V36.184C407.608 37.1333 407.293 37.88 406.664 38.424C406.034 38.968 405.149 39.24 404.008 39.24C402.888 39.24 402.008 38.968 401.368 38.424C400.738 37.88 400.424 37.1333 400.424 36.184V33.576ZM406.184 33.56C406.184 33.0053 405.992 32.5733 405.608 32.264C405.224 31.9547 404.69 31.8 404.008 31.8C403.336 31.8 402.808 31.9547 402.424 32.264C402.04 32.5733 401.848 33.0053 401.848 33.56V36.184C401.848 36.7387 402.04 37.1707 402.424 37.48C402.808 37.7893 403.336 37.944 404.008 37.944C404.69 37.944 405.224 37.7893 405.608 37.48C405.992 37.1707 406.184 36.7387 406.184 36.184V33.56ZM412.856 30.504H413.368C413.517 30.504 413.618 30.536 413.672 30.6C413.725 30.6533 413.752 30.7493 413.752 30.888V31.432C413.752 31.5707 413.725 31.672 413.672 31.736C413.618 31.7893 413.517 31.816 413.368 31.816H412.808C412.168 31.816 411.554 31.9067 410.968 32.088C410.818 32.1413 410.744 32.248 410.744 32.408V38.616C410.744 38.7653 410.717 38.8667 410.664 38.92C410.61 38.9733 410.509 39 410.36 39H409.688C409.549 39 409.453 38.9733 409.4 38.92C409.346 38.856 409.32 38.7547 409.32 38.616V31.896C409.32 31.64 409.357 31.4533 409.432 31.336C409.517 31.2187 409.682 31.1067 409.928 31C410.728 30.6907 411.704 30.5253 412.856 30.504ZM414.298 33.928C414.298 32.84 414.607 31.9973 415.226 31.4C415.844 30.8027 416.74 30.504 417.914 30.504C419.098 30.504 419.994 30.808 420.602 31.416C421.22 32.024 421.53 32.824 421.53 33.816V34.744C421.53 35.1173 421.332 35.304 420.938 35.304H415.722V36.072C415.722 36.6907 415.903 37.1653 416.266 37.496C416.639 37.8267 417.172 37.992 417.866 37.992C418.911 37.992 419.652 37.624 420.09 36.888C420.186 36.7493 420.276 36.6693 420.362 36.648C420.458 36.6267 420.575 36.6587 420.714 36.744L421.146 36.968C421.423 37.1067 421.471 37.3147 421.29 37.592C420.66 38.6907 419.514 39.24 417.85 39.24C416.655 39.24 415.764 38.9413 415.178 38.344C414.591 37.7467 414.298 36.936 414.298 35.912V33.928ZM420.106 33.736C420.106 33.096 419.919 32.6 419.546 32.248C419.172 31.896 418.628 31.72 417.914 31.72C417.199 31.72 416.655 31.9013 416.282 32.264C415.908 32.616 415.722 33.1067 415.722 33.736V34.2H420.106V33.736ZM422.813 32.984C422.813 32.216 423.085 31.6133 423.629 31.176C424.183 30.728 424.983 30.504 426.029 30.504C427.725 30.504 428.839 31.08 429.373 32.232C429.501 32.488 429.437 32.6747 429.181 32.792L428.637 33.016C428.487 33.08 428.381 33.1013 428.317 33.08C428.263 33.048 428.194 32.968 428.109 32.84C427.938 32.4987 427.698 32.2427 427.389 32.072C427.079 31.8907 426.637 31.8 426.061 31.8C424.845 31.8 424.237 32.184 424.237 32.952C424.237 33.4213 424.402 33.736 424.733 33.896C425.074 34.0453 425.634 34.152 426.413 34.216C427.469 34.3227 428.258 34.5467 428.781 34.888C429.314 35.2187 429.581 35.816 429.581 36.68C429.581 37.4693 429.293 38.0933 428.717 38.552C428.151 39.0107 427.325 39.24 426.237 39.24C424.402 39.24 423.234 38.584 422.733 37.272C422.626 37.016 422.706 36.8453 422.973 36.76L423.517 36.568C423.751 36.4933 423.922 36.5733 424.029 36.808C424.327 37.576 425.047 37.96 426.189 37.96C427.522 37.96 428.189 37.5547 428.189 36.744C428.189 36.296 428.023 35.992 427.693 35.832C427.362 35.672 426.818 35.5547 426.061 35.48C425.666 35.4373 425.341 35.3947 425.085 35.352C424.839 35.3093 424.557 35.2347 424.237 35.128C423.917 35.0107 423.666 34.872 423.485 34.712C423.303 34.5413 423.143 34.312 423.005 34.024C422.877 33.7253 422.813 33.3787 422.813 32.984ZM433.005 28.824C433.143 28.824 433.239 28.8507 433.293 28.904C433.357 28.9573 433.389 29.0587 433.389 29.208V30.744H435.485C435.623 30.744 435.719 30.776 435.773 30.84C435.826 30.8933 435.853 30.9893 435.853 31.128V31.688C435.853 31.8267 435.826 31.928 435.773 31.992C435.719 32.0453 435.623 32.072 435.485 32.072H433.389V35.8C433.389 36.6427 433.533 37.2027 433.821 37.48C434.109 37.7467 434.653 37.88 435.453 37.88C435.602 37.88 435.703 37.9067 435.757 37.96C435.821 38.0133 435.853 38.1147 435.853 38.264V38.84C435.853 38.9787 435.821 39.0747 435.757 39.128C435.703 39.1813 435.602 39.2133 435.453 39.224C434.162 39.256 433.255 39.032 432.733 38.552C432.221 38.0613 431.965 37.1547 431.965 35.832V32.072H430.637C430.498 32.072 430.397 32.0453 430.333 31.992C430.279 31.928 430.253 31.8267 430.253 31.688V31.128C430.253 30.9787 430.279 30.8773 430.333 30.824C430.397 30.7707 430.498 30.744 430.637 30.744H431.965V29.208C431.965 29.0587 431.991 28.9573 432.045 28.904C432.098 28.8507 432.194 28.824 432.333 28.824H433.005ZM436.926 32.184C437.502 31.064 438.584 30.504 440.174 30.504C441.379 30.504 442.232 30.792 442.734 31.368C443.235 31.944 443.486 32.7333 443.486 33.736V37.912C443.486 38.1893 443.443 38.3867 443.358 38.504C443.283 38.6213 443.134 38.728 442.91 38.824C442.27 39.1013 441.352 39.24 440.158 39.24C438.824 39.24 437.907 39.0373 437.406 38.632C436.904 38.216 436.654 37.5707 436.654 36.696C436.654 35.768 436.926 35.1173 437.47 34.744C438.014 34.3707 438.931 34.184 440.222 34.184C440.798 34.184 441.406 34.2213 442.046 34.296V33.688C442.046 33.0693 441.902 32.6 441.614 32.28C441.336 31.9493 440.846 31.784 440.142 31.784C439.214 31.784 438.552 32.1093 438.158 32.76C438.062 32.888 437.987 32.968 437.934 33C437.88 33.0213 437.779 33.0053 437.63 32.952L437.134 32.728C436.867 32.6213 436.798 32.44 436.926 32.184ZM442.046 35.48C441.192 35.3947 440.531 35.352 440.062 35.352C439.326 35.352 438.814 35.4587 438.526 35.672C438.238 35.8853 438.094 36.2267 438.094 36.696C438.094 37.1547 438.227 37.496 438.494 37.72C438.771 37.9333 439.283 38.04 440.03 38.04C440.84 38.04 441.432 37.976 441.806 37.848C441.966 37.784 442.046 37.6667 442.046 37.496V35.48ZM452.184 38.552C452.269 38.712 452.296 38.8293 452.264 38.904C452.232 38.968 452.125 39 451.944 39H451.32C451.106 39 450.962 38.9787 450.888 38.936C450.813 38.8933 450.738 38.7973 450.664 38.648L449.56 36.328C449.41 36.008 449.224 35.784 449 35.656C448.786 35.5173 448.493 35.448 448.12 35.448H446.776V38.6C446.776 38.7493 446.744 38.856 446.68 38.92C446.626 38.9733 446.525 39 446.376 39H445.752C445.602 39 445.496 38.9733 445.432 38.92C445.378 38.856 445.352 38.7493 445.352 38.6V27.544C445.352 27.3947 445.378 27.2933 445.432 27.24C445.496 27.1867 445.602 27.16 445.752 27.16H446.376C446.525 27.16 446.626 27.1867 446.68 27.24C446.744 27.2933 446.776 27.3947 446.776 27.544V34.12H447.944H448.072L450.456 31.032C450.552 30.8933 450.642 30.8133 450.728 30.792C450.813 30.76 450.973 30.744 451.208 30.744H451.816C452.21 30.744 452.29 30.8933 452.056 31.192L449.496 34.392C450.008 34.584 450.434 35.0213 450.776 35.704L452.184 38.552ZM453.157 33.928C453.157 32.84 453.466 31.9973 454.085 31.4C454.704 30.8027 455.6 30.504 456.773 30.504C457.957 30.504 458.853 30.808 459.461 31.416C460.08 32.024 460.389 32.824 460.389 33.816V34.744C460.389 35.1173 460.192 35.304 459.797 35.304H454.581V36.072C454.581 36.6907 454.762 37.1653 455.125 37.496C455.498 37.8267 456.032 37.992 456.725 37.992C457.77 37.992 458.512 37.624 458.949 36.888C459.045 36.7493 459.136 36.6693 459.221 36.648C459.317 36.6267 459.434 36.6587 459.573 36.744L460.005 36.968C460.282 37.1067 460.33 37.3147 460.149 37.592C459.52 38.6907 458.373 39.24 456.709 39.24C455.514 39.24 454.624 38.9413 454.037 38.344C453.45 37.7467 453.157 36.936 453.157 35.912V33.928ZM458.965 33.736C458.965 33.096 458.778 32.6 458.405 32.248C458.032 31.896 457.488 31.72 456.773 31.72C456.058 31.72 455.514 31.9013 455.141 32.264C454.768 32.616 454.581 33.1067 454.581 33.736V34.2H458.965V33.736Z" fill="#292929"/>
<rect x="469" y="29.3333" width="28" height="9.33333" rx="4.66667" fill="#C6D1FF"/>
<rect x="483" y="27" width="14" height="14" rx="7" fill="#5639E0"/>
<defs>
<filter id="filter0_d_799_23785" x="0" y="0" width="526" height="75" filterUnits="userSpaceOnUse" color-interpolation-filters="sRGB">
<feFlood flood-opacity="0" result="BackgroundImageFix"/>
<feColorMatrix in="SourceAlpha" type="matrix" values="0 0 0 0 0 0 0 0 0 0 0 0 0 0 0 0 0 0 127 0" result="hardAlpha"/>
<feOffset dy="4"/>
<feGaussianBlur stdDeviation="7.5"/>
<feComposite in2="hardAlpha" operator="out"/>
<feColorMatrix type="matrix" values="0 0 0 0 0.454167 0 0 0 0 0.454167 0 0 0 0 0.454167 0 0 0 0.15 0"/>
<feBlend mode="normal" in2="BackgroundImageFix" result="effect1_dropShadow_799_23785"/>
<feBlend mode="normal" in="SourceGraphic" in2="effect1_dropShadow_799_23785" result="shape"/>
</filter>
</defs>
</svg>
