<svg width="483" height="43" viewBox="0 0 483 43" fill="none" xmlns="http://www.w3.org/2000/svg">
<rect width="483" height="43" rx="4" fill="url(#paint0_linear_2248_19606)"/>
<path d="M19.8805 17.4648C19.9685 17.4648 20.0285 17.4848 20.0605 17.5248C20.1005 17.5568 20.1205 17.6168 20.1205 17.7048V25.7448C20.1205 25.8328 20.1005 25.8968 20.0605 25.9368C20.0285 25.9688 19.9685 25.9848 19.8805 25.9848H19.5205C19.4325 25.9848 19.3685 25.9688 19.3285 25.9368C19.2965 25.8968 19.2805 25.8328 19.2805 25.7448L19.2925 20.8488C19.2925 20.1128 19.3405 19.4048 19.4365 18.7248H19.3885C19.1325 19.3328 18.8245 19.9568 18.4645 20.5968L16.6405 23.8128C16.5845 23.9328 16.4925 23.9928 16.3645 23.9928H16.1245C15.9965 23.9928 15.9005 23.9328 15.8365 23.8128L13.9885 20.5608C13.6925 20.0568 13.4005 19.4408 13.1125 18.7128H13.0645C13.1525 19.4408 13.1965 20.1568 13.1965 20.8608V25.7448C13.1965 25.8328 13.1765 25.8968 13.1365 25.9368C13.1045 25.9688 13.0445 25.9848 12.9565 25.9848H12.6205C12.5325 25.9848 12.4685 25.9688 12.4285 25.9368C12.3965 25.8968 12.3805 25.8328 12.3805 25.7448V17.7048C12.3805 17.6168 12.3965 17.5568 12.4285 17.5248C12.4685 17.4848 12.5325 17.4648 12.6205 17.4648H12.9325C13.0845 17.4648 13.1965 17.5288 13.2685 17.6568L16.2445 22.9248L19.1965 17.6688C19.2445 17.5808 19.2885 17.5248 19.3285 17.5008C19.3685 17.4768 19.4365 17.4648 19.5325 17.4648H19.8805ZM22.1241 17.6088C22.2921 17.6088 22.4081 17.6408 22.4721 17.7048C22.5361 17.7688 22.5681 17.8848 22.5681 18.0528V18.1368C22.5681 18.3048 22.5361 18.4208 22.4721 18.4848C22.4081 18.5488 22.2921 18.5808 22.1241 18.5808H22.0521C21.8841 18.5808 21.7681 18.5488 21.7041 18.4848C21.6401 18.4208 21.6081 18.3048 21.6081 18.1368V18.0528C21.6081 17.8848 21.6401 17.7688 21.7041 17.7048C21.7681 17.6408 21.8841 17.6088 22.0521 17.6088H22.1241ZM22.2801 19.8168C22.4241 19.8168 22.4961 19.8888 22.4961 20.0328V25.7688C22.4961 25.9128 22.4241 25.9848 22.2801 25.9848H21.8961C21.7521 25.9848 21.6801 25.9128 21.6801 25.7688V20.0328C21.6801 19.8888 21.7521 19.8168 21.8961 19.8168H22.2801ZM24.3605 20.0448C25.0245 19.7728 25.7685 19.6368 26.5925 19.6368C28.1845 19.6368 28.9805 20.4208 28.9805 21.9888V25.7688C28.9805 25.9128 28.9085 25.9848 28.7645 25.9848H28.3925C28.3125 25.9848 28.2565 25.9688 28.2245 25.9368C28.1925 25.9048 28.1765 25.8488 28.1765 25.7688V22.0128C28.1765 20.9248 27.6165 20.3808 26.4965 20.3808C25.9285 20.3808 25.3965 20.4688 24.9005 20.6448C24.7805 20.7008 24.7205 20.8008 24.7205 20.9448V25.7688C24.7205 25.9128 24.6485 25.9848 24.5045 25.9848H24.1205C23.9765 25.9848 23.9045 25.9128 23.9045 25.7688V20.7048C23.9045 20.5208 23.9325 20.3848 23.9885 20.2968C24.0525 20.2088 24.1765 20.1248 24.3605 20.0448ZM32.8983 20.8968C33.3463 20.0568 34.1503 19.6368 35.3103 19.6368C36.1983 19.6368 36.8183 19.8528 37.1703 20.2848C37.5303 20.7088 37.7103 21.2848 37.7103 22.0128V25.1568C37.7103 25.3648 37.6783 25.5128 37.6143 25.6008C37.5583 25.6888 37.4463 25.7688 37.2783 25.8408C36.7983 26.0488 36.1343 26.1528 35.2863 26.1528C34.2943 26.1528 33.6143 26.0048 33.2463 25.7088C32.8783 25.4048 32.6943 24.9328 32.6943 24.2928C32.6943 23.6128 32.8943 23.1328 33.2943 22.8528C33.7023 22.5728 34.3823 22.4328 35.3343 22.4328C35.6623 22.4328 36.1863 22.4728 36.9063 22.5528V22.0008C36.9063 21.4808 36.7863 21.0768 36.5463 20.7888C36.3143 20.5008 35.8943 20.3568 35.2863 20.3568C34.4943 20.3568 33.9343 20.6488 33.6063 21.2328C33.5183 21.3528 33.4183 21.3848 33.3063 21.3288L33.0183 21.2088C32.8663 21.1528 32.8263 21.0488 32.8983 20.8968ZM36.9063 23.2128C36.1863 23.1408 35.6343 23.1048 35.2503 23.1048C34.6183 23.1048 34.1703 23.1968 33.9063 23.3808C33.6503 23.5648 33.5223 23.8648 33.5223 24.2808C33.5223 24.6888 33.6383 24.9928 33.8703 25.1928C34.1103 25.3848 34.5623 25.4808 35.2263 25.4808C35.8343 25.4808 36.3183 25.4168 36.6783 25.2888C36.7743 25.2488 36.8343 25.2088 36.8583 25.1688C36.8903 25.1288 36.9063 25.0528 36.9063 24.9408V23.2128ZM42.929 20.1528C43.689 19.8088 44.413 19.6368 45.101 19.6368C46.565 19.6368 47.297 20.3968 47.297 21.9168V25.7688C47.297 25.8488 47.281 25.9048 47.249 25.9368C47.225 25.9688 47.169 25.9848 47.081 25.9848H46.709C46.629 25.9848 46.573 25.9688 46.541 25.9368C46.509 25.9048 46.493 25.8488 46.493 25.7688V21.9528C46.493 20.9048 45.997 20.3808 45.005 20.3808C44.437 20.3808 43.893 20.5168 43.373 20.7888C43.525 21.0848 43.601 21.4608 43.601 21.9168V25.7688C43.601 25.8488 43.585 25.9048 43.553 25.9368C43.529 25.9688 43.473 25.9848 43.385 25.9848H43.013C42.933 25.9848 42.877 25.9688 42.845 25.9368C42.813 25.9048 42.797 25.8488 42.797 25.7688V21.9528C42.797 20.9048 42.289 20.3808 41.273 20.3808C40.801 20.3808 40.381 20.4608 40.013 20.6208C39.885 20.6768 39.821 20.7848 39.821 20.9448V25.7688C39.821 25.9128 39.749 25.9848 39.605 25.9848H39.221C39.077 25.9848 39.005 25.9128 39.005 25.7688V20.7048C39.005 20.5208 39.037 20.3808 39.101 20.2848C39.165 20.1888 39.285 20.1008 39.461 20.0208C40.037 19.7648 40.677 19.6368 41.381 19.6368C42.053 19.6368 42.569 19.8088 42.929 20.1528ZM48.4916 21.8448C48.4916 21.1568 48.7236 20.6168 49.1876 20.2248C49.6596 19.8328 50.3036 19.6368 51.1196 19.6368C51.9436 19.6368 52.5916 19.8328 53.0636 20.2248C53.5356 20.6168 53.7716 21.1568 53.7716 21.8448V23.9568C53.7716 24.6448 53.5356 25.1848 53.0636 25.5768C52.5916 25.9608 51.9436 26.1528 51.1196 26.1528C50.3036 26.1528 49.6596 25.9568 49.1876 25.5648C48.7236 25.1728 48.4916 24.6368 48.4916 23.9568V21.8448ZM52.9556 21.8448C52.9556 21.3888 52.7916 21.0288 52.4636 20.7648C52.1356 20.5008 51.6876 20.3688 51.1196 20.3688C50.5596 20.3688 50.1156 20.5008 49.7876 20.7648C49.4596 21.0288 49.2956 21.3888 49.2956 21.8448V23.9568C49.2956 24.4128 49.4596 24.7728 49.7876 25.0368C50.1236 25.2928 50.5676 25.4208 51.1196 25.4208C51.6876 25.4208 52.1356 25.2928 52.4636 25.0368C52.7916 24.7728 52.9556 24.4128 52.9556 23.9568V21.8448ZM59.8103 19.8168C59.9543 19.8168 60.0263 19.8888 60.0263 20.0328V25.0968C60.0263 25.2808 59.9943 25.4168 59.9303 25.5048C59.8743 25.5928 59.7543 25.6768 59.5703 25.7568C58.9303 26.0208 58.1823 26.1528 57.3263 26.1528C55.7423 26.1528 54.9503 25.3728 54.9503 23.8128V20.0328C54.9503 19.9528 54.9663 19.8968 54.9983 19.8648C55.0303 19.8328 55.0863 19.8168 55.1663 19.8168H55.5383C55.6263 19.8168 55.6823 19.8328 55.7063 19.8648C55.7383 19.8968 55.7543 19.9528 55.7543 20.0328V23.7768C55.7543 24.8728 56.3143 25.4208 57.4343 25.4208C58.0343 25.4208 58.5543 25.3328 58.9943 25.1568C59.1383 25.0928 59.2103 24.9808 59.2103 24.8208V20.0328C59.2103 19.8888 59.2823 19.8168 59.4263 19.8168H59.8103ZM61.8622 20.0448C62.5262 19.7728 63.2702 19.6368 64.0942 19.6368C65.6862 19.6368 66.4822 20.4208 66.4822 21.9888V25.7688C66.4822 25.9128 66.4102 25.9848 66.2662 25.9848H65.8942C65.8142 25.9848 65.7582 25.9688 65.7262 25.9368C65.6942 25.9048 65.6782 25.8488 65.6782 25.7688V22.0128C65.6782 20.9248 65.1182 20.3808 63.9982 20.3808C63.4302 20.3808 62.8982 20.4688 62.4022 20.6448C62.2822 20.7008 62.2222 20.8008 62.2222 20.9448V25.7688C62.2222 25.9128 62.1502 25.9848 62.0062 25.9848H61.6222C61.4782 25.9848 61.4062 25.9128 61.4062 25.7688V20.7048C61.4062 20.5208 61.4342 20.3848 61.4902 20.2968C61.5542 20.2088 61.6782 20.1248 61.8622 20.0448ZM68.9921 18.3768C69.0801 18.3768 69.1361 18.3928 69.1601 18.4248C69.1921 18.4568 69.2081 18.5128 69.2081 18.5928V19.8168H70.9481C71.0921 19.8168 71.1641 19.8888 71.1641 20.0328V20.3448C71.1641 20.4888 71.0921 20.5608 70.9481 20.5608H69.2081V23.6808C69.2081 24.3768 69.3241 24.8368 69.5561 25.0608C69.7961 25.2768 70.2521 25.3848 70.9241 25.3848C71.0681 25.3848 71.1401 25.4608 71.1401 25.6128V25.9368C71.1401 26.0168 71.1241 26.0728 71.0921 26.1048C71.0601 26.1368 71.0041 26.1528 70.9241 26.1528C69.9881 26.1688 69.3321 26.0048 68.9561 25.6608C68.5881 25.3088 68.4041 24.6568 68.4041 23.7048V20.5608H67.2641C67.1201 20.5608 67.0481 20.4888 67.0481 20.3448V20.0328C67.0481 19.8888 67.1201 19.8168 67.2641 19.8168H68.4041V18.5928C68.4041 18.4488 68.4761 18.3768 68.6201 18.3768H68.9921ZM75.5748 18.3768C75.6628 18.3768 75.7188 18.3928 75.7428 18.4248C75.7748 18.4568 75.7908 18.5128 75.7908 18.5928V19.8168H77.5308C77.6748 19.8168 77.7468 19.8888 77.7468 20.0328V20.3448C77.7468 20.4888 77.6748 20.5608 77.5308 20.5608H75.7908V23.6808C75.7908 24.3768 75.9068 24.8368 76.1388 25.0608C76.3788 25.2768 76.8348 25.3848 77.5068 25.3848C77.6508 25.3848 77.7228 25.4608 77.7228 25.6128V25.9368C77.7228 26.0168 77.7068 26.0728 77.6748 26.1048C77.6428 26.1368 77.5868 26.1528 77.5068 26.1528C76.5708 26.1688 75.9148 26.0048 75.5388 25.6608C75.1708 25.3088 74.9868 24.6568 74.9868 23.7048V20.5608H73.8468C73.7028 20.5608 73.6308 20.4888 73.6308 20.3448V20.0328C73.6308 19.8888 73.7028 19.8168 73.8468 19.8168H74.9868V18.5928C74.9868 18.4488 75.0588 18.3768 75.2028 18.3768H75.5748ZM78.3293 21.8448C78.3293 21.1568 78.5613 20.6168 79.0253 20.2248C79.4973 19.8328 80.1413 19.6368 80.9573 19.6368C81.7813 19.6368 82.4293 19.8328 82.9013 20.2248C83.3733 20.6168 83.6093 21.1568 83.6093 21.8448V23.9568C83.6093 24.6448 83.3733 25.1848 82.9013 25.5768C82.4293 25.9608 81.7813 26.1528 80.9573 26.1528C80.1413 26.1528 79.4973 25.9568 79.0253 25.5648C78.5613 25.1728 78.3293 24.6368 78.3293 23.9568V21.8448ZM82.7933 21.8448C82.7933 21.3888 82.6293 21.0288 82.3013 20.7648C81.9733 20.5008 81.5253 20.3688 80.9573 20.3688C80.3973 20.3688 79.9533 20.5008 79.6253 20.7648C79.2973 21.0288 79.1333 21.3888 79.1333 21.8448V23.9568C79.1333 24.4128 79.2973 24.7728 79.6253 25.0368C79.9613 25.2928 80.4053 25.4208 80.9573 25.4208C81.5253 25.4208 81.9733 25.2928 82.3013 25.0368C82.6293 24.7728 82.7933 24.4128 82.7933 23.9568V21.8448ZM90.122 19.6368H90.494C90.638 19.6368 90.71 19.7088 90.71 19.8528V20.1648C90.71 20.3088 90.638 20.3808 90.494 20.3808H90.098C89.498 20.3808 88.97 20.4648 88.514 20.6328C88.378 20.6888 88.31 20.7928 88.31 20.9448V25.7688C88.31 25.9128 88.238 25.9848 88.094 25.9848H87.71C87.566 25.9848 87.494 25.9128 87.494 25.7688V20.6808C87.494 20.4968 87.526 20.3608 87.59 20.2728C87.654 20.1768 87.774 20.0888 87.95 20.0088C88.558 19.7768 89.282 19.6528 90.122 19.6368ZM90.9446 22.1688C90.9446 21.3688 91.1686 20.7488 91.6166 20.3088C92.0726 19.8608 92.7326 19.6368 93.5966 19.6368C94.4686 19.6368 95.1286 19.8648 95.5766 20.3208C96.0326 20.7688 96.2606 21.3688 96.2606 22.1208V22.7808C96.2606 23.0048 96.1406 23.1168 95.9006 23.1168H91.7486V23.8128C91.7486 24.3328 91.9006 24.7368 92.2046 25.0248C92.5166 25.3128 92.9646 25.4568 93.5486 25.4568C94.4366 25.4568 95.0646 25.1248 95.4326 24.4608C95.5286 24.3328 95.6446 24.3048 95.7806 24.3768L96.0326 24.5088C96.1846 24.5888 96.2126 24.7048 96.1166 24.8568C95.6366 25.7208 94.7806 26.1528 93.5486 26.1528C92.6766 26.1528 92.0246 25.9368 91.5926 25.5048C91.1606 25.0728 90.9446 24.4808 90.9446 23.7288V22.1688ZM95.4566 22.0728C95.4566 21.5288 95.2966 21.1048 94.9766 20.8008C94.6646 20.4888 94.2046 20.3328 93.5966 20.3328C92.9966 20.3328 92.5366 20.4888 92.2166 20.8008C91.9046 21.1048 91.7486 21.5288 91.7486 22.0728V22.4928H95.4566V22.0728ZM97.1418 21.4368C97.1418 20.8768 97.3418 20.4368 97.7418 20.1168C98.1498 19.7968 98.7378 19.6368 99.5058 19.6368C100.754 19.6368 101.57 20.0728 101.954 20.9448C102.034 21.0888 101.998 21.1928 101.846 21.2568L101.546 21.3888C101.418 21.4448 101.318 21.4088 101.246 21.2808C101.11 20.9768 100.91 20.7488 100.646 20.5968C100.39 20.4448 100.014 20.3688 99.5178 20.3688C98.4698 20.3688 97.9458 20.7168 97.9458 21.4128C97.9458 21.5968 97.9778 21.7568 98.0418 21.8928C98.1058 22.0208 98.1818 22.1208 98.2698 22.1928C98.3578 22.2648 98.4898 22.3248 98.6658 22.3728C98.8498 22.4208 99.0098 22.4568 99.1458 22.4808C99.2898 22.4968 99.4938 22.5168 99.7578 22.5408C100.126 22.5728 100.434 22.6208 100.682 22.6848C100.93 22.7408 101.17 22.8328 101.402 22.9608C101.634 23.0808 101.806 23.2528 101.918 23.4768C102.038 23.7008 102.098 23.9808 102.098 24.3168C102.098 24.8928 101.89 25.3448 101.474 25.6728C101.058 25.9928 100.446 26.1528 99.6378 26.1528C98.2938 26.1528 97.4298 25.6568 97.0458 24.6648C96.9818 24.5208 97.0258 24.4248 97.1778 24.3768L97.4898 24.2688C97.6178 24.2288 97.7138 24.2728 97.7778 24.4008C98.0418 25.0968 98.6538 25.4448 99.6138 25.4448C100.742 25.4448 101.306 25.0808 101.306 24.3528C101.306 23.9608 101.166 23.6968 100.886 23.5608C100.614 23.4168 100.174 23.3128 99.5658 23.2488C99.2618 23.2168 99.0178 23.1888 98.8338 23.1648C98.6578 23.1328 98.4458 23.0768 98.1978 22.9968C97.9578 22.9168 97.7698 22.8168 97.6338 22.6968C97.4978 22.5768 97.3818 22.4128 97.2858 22.2048C97.1898 21.9888 97.1418 21.7328 97.1418 21.4368ZM104.393 18.3768C104.481 18.3768 104.537 18.3928 104.561 18.4248C104.593 18.4568 104.609 18.5128 104.609 18.5928V19.8168H106.349C106.493 19.8168 106.565 19.8888 106.565 20.0328V20.3448C106.565 20.4888 106.493 20.5608 106.349 20.5608H104.609V23.6808C104.609 24.3768 104.725 24.8368 104.957 25.0608C105.197 25.2768 105.653 25.3848 106.325 25.3848C106.469 25.3848 106.541 25.4608 106.541 25.6128V25.9368C106.541 26.0168 106.525 26.0728 106.493 26.1048C106.461 26.1368 106.405 26.1528 106.325 26.1528C105.389 26.1688 104.733 26.0048 104.357 25.6608C103.989 25.3088 103.805 24.6568 103.805 23.7048V20.5608H102.665C102.521 20.5608 102.449 20.4888 102.449 20.3448V20.0328C102.449 19.8888 102.521 19.8168 102.665 19.8168H103.805V18.5928C103.805 18.4488 103.877 18.3768 104.021 18.3768H104.393ZM107.195 20.8968C107.643 20.0568 108.447 19.6368 109.607 19.6368C110.495 19.6368 111.115 19.8528 111.467 20.2848C111.827 20.7088 112.007 21.2848 112.007 22.0128V25.1568C112.007 25.3648 111.975 25.5128 111.911 25.6008C111.855 25.6888 111.743 25.7688 111.575 25.8408C111.095 26.0488 110.431 26.1528 109.583 26.1528C108.591 26.1528 107.911 26.0048 107.543 25.7088C107.175 25.4048 106.991 24.9328 106.991 24.2928C106.991 23.6128 107.191 23.1328 107.591 22.8528C107.999 22.5728 108.679 22.4328 109.631 22.4328C109.959 22.4328 110.483 22.4728 111.203 22.5528V22.0008C111.203 21.4808 111.083 21.0768 110.843 20.7888C110.611 20.5008 110.191 20.3568 109.583 20.3568C108.791 20.3568 108.231 20.6488 107.903 21.2328C107.815 21.3528 107.715 21.3848 107.603 21.3288L107.315 21.2088C107.163 21.1528 107.123 21.0488 107.195 20.8968ZM111.203 23.2128C110.483 23.1408 109.931 23.1048 109.547 23.1048C108.915 23.1048 108.467 23.1968 108.203 23.3808C107.947 23.5648 107.819 23.8648 107.819 24.2808C107.819 24.6888 107.935 24.9928 108.167 25.1928C108.407 25.3848 108.859 25.4808 109.523 25.4808C110.131 25.4808 110.615 25.4168 110.975 25.2888C111.071 25.2488 111.131 25.2088 111.155 25.1688C111.187 25.1288 111.203 25.0528 111.203 24.9408V23.2128ZM118.33 25.7328C118.378 25.8208 118.39 25.8848 118.366 25.9248C118.35 25.9648 118.294 25.9848 118.198 25.9848H117.838C117.718 25.9848 117.634 25.9728 117.586 25.9488C117.546 25.9248 117.506 25.8728 117.466 25.7928L116.554 23.9208C116.434 23.6648 116.282 23.4808 116.098 23.3688C115.922 23.2488 115.686 23.1888 115.39 23.1888H114.142V25.7568C114.142 25.8448 114.126 25.9048 114.094 25.9368C114.062 25.9688 114.002 25.9848 113.914 25.9848H113.566C113.478 25.9848 113.418 25.9688 113.386 25.9368C113.354 25.9048 113.338 25.8448 113.338 25.7568V17.3208C113.338 17.2328 113.354 17.1768 113.386 17.1528C113.418 17.1208 113.478 17.1048 113.566 17.1048H113.914C114.002 17.1048 114.062 17.1208 114.094 17.1528C114.126 17.1768 114.142 17.2328 114.142 17.3208V22.4448H115.294H115.402L117.334 19.9848C117.39 19.9048 117.442 19.8568 117.49 19.8408C117.538 19.8248 117.626 19.8168 117.754 19.8168H118.09C118.306 19.8168 118.354 19.9008 118.234 20.0688L116.206 22.6008C116.638 22.7128 116.986 23.0368 117.25 23.5728L118.33 25.7328ZM118.968 22.1688C118.968 21.3688 119.192 20.7488 119.64 20.3088C120.096 19.8608 120.756 19.6368 121.62 19.6368C122.492 19.6368 123.152 19.8648 123.6 20.3208C124.056 20.7688 124.284 21.3688 124.284 22.1208V22.7808C124.284 23.0048 124.164 23.1168 123.924 23.1168H119.772V23.8128C119.772 24.3328 119.924 24.7368 120.228 25.0248C120.54 25.3128 120.988 25.4568 121.572 25.4568C122.46 25.4568 123.088 25.1248 123.456 24.4608C123.552 24.3328 123.668 24.3048 123.804 24.3768L124.056 24.5088C124.208 24.5888 124.236 24.7048 124.14 24.8568C123.66 25.7208 122.804 26.1528 121.572 26.1528C120.7 26.1528 120.048 25.9368 119.616 25.5048C119.184 25.0728 118.968 24.4808 118.968 23.7288V22.1688ZM123.48 22.0728C123.48 21.5288 123.32 21.1048 123 20.8008C122.688 20.4888 122.228 20.3328 121.62 20.3328C121.02 20.3328 120.56 20.4888 120.24 20.8008C119.928 21.1048 119.772 21.5288 119.772 22.0728V22.4928H123.48V22.0728Z" fill="#182969"/>
<rect x="431" y="9" width="42" height="26" rx="4" fill="#C6D1FF"/>
<path d="M437.628 20.928C437.628 20.144 437.912 19.512 438.48 19.032C439.056 18.544 439.868 18.3 440.916 18.3C441.748 18.3 442.408 18.448 442.896 18.744C443.384 19.04 443.776 19.496 444.072 20.112C444.192 20.36 444.116 20.544 443.844 20.664L443.184 20.952C443.048 21.008 442.944 21.024 442.872 21C442.808 20.968 442.74 20.884 442.668 20.748C442.5 20.412 442.28 20.16 442.008 19.992C441.736 19.824 441.372 19.74 440.916 19.74C439.756 19.74 439.176 20.108 439.176 20.844C439.176 21.052 439.228 21.228 439.332 21.372C439.436 21.508 439.596 21.616 439.812 21.696C440.036 21.776 440.248 21.836 440.448 21.876C440.648 21.908 440.916 21.944 441.252 21.984C441.588 22.024 441.876 22.068 442.116 22.116C442.364 22.164 442.632 22.248 442.92 22.368C443.216 22.48 443.456 22.62 443.64 22.788C443.824 22.956 443.98 23.188 444.108 23.484C444.236 23.772 444.3 24.108 444.3 24.492C444.3 25.308 444 25.96 443.4 26.448C442.8 26.936 441.96 27.18 440.88 27.18C439.976 27.18 439.264 27.016 438.744 26.688C438.224 26.352 437.836 25.848 437.58 25.176C437.524 25.024 437.516 24.912 437.556 24.84C437.596 24.76 437.688 24.696 437.832 24.648L438.492 24.408C438.628 24.36 438.732 24.356 438.804 24.396C438.876 24.428 438.944 24.516 439.008 24.66C439.32 25.404 439.944 25.776 440.88 25.776C442.152 25.776 442.788 25.36 442.788 24.528C442.788 24.264 442.692 24.052 442.5 23.892C442.308 23.732 442.092 23.624 441.852 23.568C441.612 23.504 441.292 23.452 440.892 23.412C440.62 23.38 440.4 23.356 440.232 23.34C440.072 23.316 439.864 23.276 439.608 23.22C439.352 23.164 439.144 23.1 438.984 23.028C438.824 22.956 438.648 22.86 438.456 22.74C438.264 22.612 438.116 22.468 438.012 22.308C437.908 22.148 437.816 21.952 437.736 21.72C437.664 21.48 437.628 21.216 437.628 20.928ZM452.152 26.604C452.248 26.868 452.156 27 451.876 27H451.252C451.004 27 450.828 26.976 450.724 26.928C450.628 26.88 450.556 26.784 450.508 26.64L449.956 25.092H446.644L446.08 26.64C446.032 26.784 445.956 26.88 445.852 26.928C445.756 26.976 445.584 27 445.336 27H444.784C444.504 27 444.412 26.868 444.508 26.604L447.508 18.804C447.564 18.668 447.624 18.58 447.688 18.54C447.76 18.492 447.868 18.468 448.012 18.468H448.648C448.792 18.468 448.9 18.492 448.972 18.54C449.044 18.58 449.104 18.664 449.152 18.792L452.152 26.604ZM448.624 21.324C448.552 21.108 448.492 20.88 448.444 20.64C448.396 20.392 448.364 20.2 448.348 20.064L448.336 19.86H448.252C448.252 20.316 448.164 20.8 447.988 21.312L447.064 23.856H449.536L448.624 21.324ZM458.689 18.48C458.977 18.48 459.065 18.612 458.953 18.876L456.085 26.664C456.029 26.8 455.965 26.892 455.893 26.94C455.829 26.98 455.725 27 455.581 27H454.945C454.801 27 454.689 26.98 454.609 26.94C454.537 26.892 454.481 26.804 454.441 26.676L451.561 18.876C451.465 18.612 451.553 18.48 451.825 18.48H452.437C452.685 18.48 452.857 18.504 452.953 18.552C453.057 18.6 453.133 18.696 453.181 18.84L454.933 23.952C454.965 24.056 454.997 24.172 455.029 24.3C455.069 24.42 455.101 24.532 455.125 24.636C455.149 24.74 455.169 24.836 455.185 24.924C455.201 25.012 455.213 25.084 455.221 25.14C455.237 25.188 455.245 25.216 455.245 25.224H455.317C455.325 25.216 455.341 25.148 455.365 25.02C455.389 24.892 455.425 24.724 455.473 24.516C455.521 24.308 455.573 24.124 455.629 23.964L457.369 18.84C457.417 18.696 457.489 18.6 457.585 18.552C457.689 18.504 457.865 18.48 458.113 18.48H458.689ZM464.951 18.48C465.103 18.48 465.211 18.512 465.275 18.576C465.339 18.632 465.371 18.736 465.371 18.888V19.476C465.371 19.628 465.339 19.736 465.275 19.8C465.211 19.856 465.103 19.884 464.951 19.884H461.279V21.984H464.387C464.539 21.984 464.643 22.016 464.699 22.08C464.763 22.136 464.795 22.24 464.795 22.392V22.98C464.795 23.132 464.763 23.24 464.699 23.304C464.643 23.36 464.539 23.388 464.387 23.388H461.279V25.596H465.083C465.235 25.596 465.339 25.628 465.395 25.692C465.459 25.748 465.491 25.852 465.491 26.004V26.592C465.491 26.744 465.459 26.852 465.395 26.916C465.339 26.972 465.235 27 465.083 27H460.187C460.035 27 459.927 26.972 459.863 26.916C459.799 26.852 459.767 26.744 459.767 26.592V18.888C459.767 18.736 459.799 18.632 459.863 18.576C459.927 18.512 460.035 18.48 460.187 18.48H464.951Z" fill="#5639E0"/>
<rect x="286.5" y="8.5" width="129" height="26" rx="3.5" fill="white"/>
<path d="M365.106 16.6188C365.283 16.6188 365.405 16.6562 365.47 16.7308C365.545 16.7962 365.582 16.9175 365.582 17.0948V26.0828C365.582 26.2602 365.545 26.3862 365.47 26.4608C365.405 26.5262 365.283 26.5588 365.106 26.5588H364.308C364.131 26.5588 364.005 26.5262 363.93 26.4608C363.865 26.3862 363.832 26.2602 363.832 26.0828V18.7468L361.872 19.8388C361.685 19.9415 361.541 19.9788 361.438 19.9508C361.335 19.9135 361.242 19.8155 361.158 19.6568L360.808 19.0268C360.733 18.8682 360.71 18.7468 360.738 18.6628C360.775 18.5695 360.873 18.4762 361.032 18.3828L363.762 16.8148C363.977 16.6842 364.201 16.6188 364.434 16.6188H365.106ZM367.154 19.7828C367.154 18.7468 367.481 17.9255 368.134 17.3188C368.787 16.7122 369.697 16.4088 370.864 16.4088C372.031 16.4088 372.936 16.7122 373.58 17.3188C374.233 17.9255 374.56 18.7468 374.56 19.7828V23.3808C374.56 24.4262 374.233 25.2522 373.58 25.8588C372.936 26.4655 372.031 26.7688 370.864 26.7688C369.697 26.7688 368.787 26.4655 368.134 25.8588C367.481 25.2522 367.154 24.4262 367.154 23.3808V19.7828ZM372.81 19.7828C372.81 19.2322 372.637 18.8075 372.292 18.5088C371.956 18.2008 371.48 18.0468 370.864 18.0468C370.248 18.0468 369.767 18.2008 369.422 18.5088C369.086 18.8075 368.918 19.2322 368.918 19.7828V23.3808C368.918 23.9315 369.086 24.3608 369.422 24.6688C369.767 24.9768 370.248 25.1308 370.864 25.1308C371.48 25.1308 371.956 24.9768 372.292 24.6688C372.637 24.3608 372.81 23.9315 372.81 23.3808V19.7828Z" fill="#5639E0"/>
<path d="M378.609 19.2928C378.609 18.4155 378.927 17.7202 379.561 17.2068C380.196 16.6842 381.083 16.4228 382.221 16.4228C383.173 16.4228 383.934 16.5955 384.503 16.9408C385.073 17.2862 385.539 17.8322 385.903 18.5788C385.987 18.7375 385.936 18.8588 385.749 18.9428L385.315 19.1388C385.222 19.1762 385.152 19.1902 385.105 19.1808C385.059 19.1622 385.007 19.1062 384.951 19.0128C384.671 18.4528 384.317 18.0422 383.887 17.7808C383.467 17.5195 382.912 17.3888 382.221 17.3888C381.391 17.3888 380.751 17.5475 380.303 17.8648C379.865 18.1822 379.645 18.6395 379.645 19.2368C379.645 19.5168 379.701 19.7595 379.813 19.9648C379.925 20.1702 380.061 20.3335 380.219 20.4548C380.387 20.5762 380.611 20.6835 380.891 20.7768C381.181 20.8608 381.437 20.9215 381.661 20.9588C381.885 20.9962 382.179 21.0335 382.543 21.0708C382.954 21.1175 383.295 21.1688 383.565 21.2248C383.836 21.2715 384.144 21.3602 384.489 21.4908C384.835 21.6122 385.11 21.7662 385.315 21.9528C385.521 22.1302 385.693 22.3775 385.833 22.6948C385.983 23.0122 386.057 23.3855 386.057 23.8148C386.057 24.7388 385.731 25.4622 385.077 25.9848C384.424 26.4982 383.481 26.7548 382.249 26.7548C381.251 26.7548 380.448 26.5588 379.841 26.1668C379.244 25.7748 378.782 25.1682 378.455 24.3468C378.399 24.1695 378.455 24.0435 378.623 23.9688L379.057 23.8148C379.216 23.7588 379.337 23.8148 379.421 23.9828C379.935 25.1962 380.877 25.8028 382.249 25.8028C384.107 25.8028 385.035 25.1495 385.035 23.8428C385.035 23.5628 384.979 23.3248 384.867 23.1288C384.765 22.9235 384.639 22.7602 384.489 22.6388C384.34 22.5175 384.13 22.4148 383.859 22.3308C383.598 22.2468 383.36 22.1908 383.145 22.1628C382.931 22.1255 382.651 22.0882 382.305 22.0508C381.867 22.0042 381.512 21.9575 381.241 21.9108C380.971 21.8642 380.649 21.7802 380.275 21.6588C379.902 21.5282 379.608 21.3742 379.393 21.1968C379.179 21.0102 378.992 20.7582 378.833 20.4408C378.684 20.1142 378.609 19.7315 378.609 19.2928ZM387.203 19.9368C387.203 18.8355 387.53 17.9768 388.183 17.3608C388.846 16.7355 389.798 16.4228 391.039 16.4228C392.084 16.4228 392.901 16.6235 393.489 17.0248C394.086 17.4168 394.511 18.0142 394.763 18.8168C394.8 18.9195 394.805 18.9988 394.777 19.0548C394.758 19.1015 394.698 19.1435 394.595 19.1808L394.161 19.3348C393.984 19.3815 393.862 19.3255 393.797 19.1668C393.601 18.5415 393.288 18.0842 392.859 17.7948C392.439 17.5055 391.832 17.3608 391.039 17.3608C390.124 17.3608 389.424 17.5848 388.939 18.0328C388.463 18.4808 388.225 19.1108 388.225 19.9228V23.2548C388.225 24.0575 388.468 24.6875 388.953 25.1448C389.438 25.5928 390.134 25.8168 391.039 25.8168C391.842 25.8168 392.458 25.6675 392.887 25.3688C393.316 25.0702 393.629 24.6035 393.825 23.9688C393.9 23.8008 394.021 23.7402 394.189 23.7868L394.623 23.9548C394.791 24.0202 394.847 24.1368 394.791 24.3048C394.539 25.1168 394.114 25.7282 393.517 26.1388C392.92 26.5495 392.094 26.7548 391.039 26.7548C389.816 26.7548 388.869 26.4468 388.197 25.8308C387.534 25.2055 387.203 24.3422 387.203 23.2408V19.9368ZM400.399 16.6188C401.323 16.6188 402.042 16.8755 402.555 17.3888C403.078 17.8928 403.339 18.6022 403.339 19.5168C403.339 20.2822 403.139 20.9028 402.737 21.3788C402.345 21.8548 401.795 22.1488 401.085 22.2608C401.449 22.4288 401.753 22.7508 401.995 23.2268L403.563 26.2788C403.685 26.4655 403.638 26.5588 403.423 26.5588H402.961C402.672 26.5588 402.49 26.4748 402.415 26.3068L401.057 23.6048C400.833 23.1568 400.577 22.8442 400.287 22.6668C400.007 22.4802 399.597 22.3868 399.055 22.3868H397.165V26.2788C397.165 26.3815 397.147 26.4562 397.109 26.5028C397.072 26.5402 397.002 26.5588 396.899 26.5588H396.437C396.335 26.5588 396.26 26.5402 396.213 26.5028C396.176 26.4562 396.157 26.3815 396.157 26.2788V16.8988C396.157 16.7962 396.176 16.7262 396.213 16.6888C396.26 16.6422 396.335 16.6188 396.437 16.6188H400.399ZM402.289 19.5168C402.289 18.8915 402.117 18.4108 401.771 18.0748C401.426 17.7388 400.936 17.5708 400.301 17.5708H397.165V21.4348H400.301C400.927 21.4348 401.412 21.2715 401.757 20.9448C402.112 20.6088 402.289 20.1328 402.289 19.5168ZM410.811 16.6188C410.914 16.6188 410.984 16.6422 411.021 16.6888C411.068 16.7262 411.091 16.7962 411.091 16.8988V17.2908C411.091 17.3935 411.068 17.4682 411.021 17.5148C410.984 17.5522 410.914 17.5708 410.811 17.5708H407.983V26.2788C407.983 26.3815 407.96 26.4562 407.913 26.5028C407.876 26.5402 407.806 26.5588 407.703 26.5588H407.241C407.139 26.5588 407.064 26.5402 407.017 26.5028C406.98 26.4562 406.961 26.3815 406.961 26.2788V17.5708H404.133C404.031 17.5708 403.956 17.5522 403.909 17.5148C403.872 17.4682 403.853 17.3935 403.853 17.2908V16.8988C403.853 16.7962 403.872 16.7262 403.909 16.6888C403.956 16.6422 404.031 16.6188 404.133 16.6188H410.811Z" fill="#A8C3E1"/>
<rect x="286.5" y="8.5" width="129" height="26" rx="3.5" stroke="#C6D1FF"/>
<defs>
<linearGradient id="paint0_linear_2248_19606" x1="0" y1="21.5" x2="483" y2="21.5" gradientUnits="userSpaceOnUse">
<stop stop-color="#EEF6FF"/>
<stop offset="0.99" stop-color="#F4E8FF"/>
</linearGradient>
</defs>
</svg>
