<svg width="483" height="43" viewBox="0 0 483 43" fill="none" xmlns="http://www.w3.org/2000/svg">
<rect width="483" height="43" rx="4" fill="url(#paint0_linear_2248_19595)"/>
<path d="M19.8805 17.4648C19.9685 17.4648 20.0285 17.4848 20.0605 17.5248C20.1005 17.5568 20.1205 17.6168 20.1205 17.7048V25.7448C20.1205 25.8328 20.1005 25.8968 20.0605 25.9368C20.0285 25.9688 19.9685 25.9848 19.8805 25.9848H19.5205C19.4325 25.9848 19.3685 25.9688 19.3285 25.9368C19.2965 25.8968 19.2805 25.8328 19.2805 25.7448L19.2925 20.8488C19.2925 20.1128 19.3405 19.4048 19.4365 18.7248H19.3885C19.1325 19.3328 18.8245 19.9568 18.4645 20.5968L16.6405 23.8128C16.5845 23.9328 16.4925 23.9928 16.3645 23.9928H16.1245C15.9965 23.9928 15.9005 23.9328 15.8365 23.8128L13.9885 20.5608C13.6925 20.0568 13.4005 19.4408 13.1125 18.7128H13.0645C13.1525 19.4408 13.1965 20.1568 13.1965 20.8608V25.7448C13.1965 25.8328 13.1765 25.8968 13.1365 25.9368C13.1045 25.9688 13.0445 25.9848 12.9565 25.9848H12.6205C12.5325 25.9848 12.4685 25.9688 12.4285 25.9368C12.3965 25.8968 12.3805 25.8328 12.3805 25.7448V17.7048C12.3805 17.6168 12.3965 17.5568 12.4285 17.5248C12.4685 17.4848 12.5325 17.4648 12.6205 17.4648H12.9325C13.0845 17.4648 13.1965 17.5288 13.2685 17.6568L16.2445 22.9248L19.1965 17.6688C19.2445 17.5808 19.2885 17.5248 19.3285 17.5008C19.3685 17.4768 19.4365 17.4648 19.5325 17.4648H19.8805ZM22.1241 17.6088C22.2921 17.6088 22.4081 17.6408 22.4721 17.7048C22.5361 17.7688 22.5681 17.8848 22.5681 18.0528V18.1368C22.5681 18.3048 22.5361 18.4208 22.4721 18.4848C22.4081 18.5488 22.2921 18.5808 22.1241 18.5808H22.0521C21.8841 18.5808 21.7681 18.5488 21.7041 18.4848C21.6401 18.4208 21.6081 18.3048 21.6081 18.1368V18.0528C21.6081 17.8848 21.6401 17.7688 21.7041 17.7048C21.7681 17.6408 21.8841 17.6088 22.0521 17.6088H22.1241ZM22.2801 19.8168C22.4241 19.8168 22.4961 19.8888 22.4961 20.0328V25.7688C22.4961 25.9128 22.4241 25.9848 22.2801 25.9848H21.8961C21.7521 25.9848 21.6801 25.9128 21.6801 25.7688V20.0328C21.6801 19.8888 21.7521 19.8168 21.8961 19.8168H22.2801ZM24.3605 20.0448C25.0245 19.7728 25.7685 19.6368 26.5925 19.6368C28.1845 19.6368 28.9805 20.4208 28.9805 21.9888V25.7688C28.9805 25.9128 28.9085 25.9848 28.7645 25.9848H28.3925C28.3125 25.9848 28.2565 25.9688 28.2245 25.9368C28.1925 25.9048 28.1765 25.8488 28.1765 25.7688V22.0128C28.1765 20.9248 27.6165 20.3808 26.4965 20.3808C25.9285 20.3808 25.3965 20.4688 24.9005 20.6448C24.7805 20.7008 24.7205 20.8008 24.7205 20.9448V25.7688C24.7205 25.9128 24.6485 25.9848 24.5045 25.9848H24.1205C23.9765 25.9848 23.9045 25.9128 23.9045 25.7688V20.7048C23.9045 20.5208 23.9325 20.3848 23.9885 20.2968C24.0525 20.2088 24.1765 20.1248 24.3605 20.0448ZM32.8983 20.8968C33.3463 20.0568 34.1503 19.6368 35.3103 19.6368C36.1983 19.6368 36.8183 19.8528 37.1703 20.2848C37.5303 20.7088 37.7103 21.2848 37.7103 22.0128V25.1568C37.7103 25.3648 37.6783 25.5128 37.6143 25.6008C37.5583 25.6888 37.4463 25.7688 37.2783 25.8408C36.7983 26.0488 36.1343 26.1528 35.2863 26.1528C34.2943 26.1528 33.6143 26.0048 33.2463 25.7088C32.8783 25.4048 32.6943 24.9328 32.6943 24.2928C32.6943 23.6128 32.8943 23.1328 33.2943 22.8528C33.7023 22.5728 34.3823 22.4328 35.3343 22.4328C35.6623 22.4328 36.1863 22.4728 36.9063 22.5528V22.0008C36.9063 21.4808 36.7863 21.0768 36.5463 20.7888C36.3143 20.5008 35.8943 20.3568 35.2863 20.3568C34.4943 20.3568 33.9343 20.6488 33.6063 21.2328C33.5183 21.3528 33.4183 21.3848 33.3063 21.3288L33.0183 21.2088C32.8663 21.1528 32.8263 21.0488 32.8983 20.8968ZM36.9063 23.2128C36.1863 23.1408 35.6343 23.1048 35.2503 23.1048C34.6183 23.1048 34.1703 23.1968 33.9063 23.3808C33.6503 23.5648 33.5223 23.8648 33.5223 24.2808C33.5223 24.6888 33.6383 24.9928 33.8703 25.1928C34.1103 25.3848 34.5623 25.4808 35.2263 25.4808C35.8343 25.4808 36.3183 25.4168 36.6783 25.2888C36.7743 25.2488 36.8343 25.2088 36.8583 25.1688C36.8903 25.1288 36.9063 25.0528 36.9063 24.9408V23.2128ZM42.929 20.1528C43.689 19.8088 44.413 19.6368 45.101 19.6368C46.565 19.6368 47.297 20.3968 47.297 21.9168V25.7688C47.297 25.8488 47.281 25.9048 47.249 25.9368C47.225 25.9688 47.169 25.9848 47.081 25.9848H46.709C46.629 25.9848 46.573 25.9688 46.541 25.9368C46.509 25.9048 46.493 25.8488 46.493 25.7688V21.9528C46.493 20.9048 45.997 20.3808 45.005 20.3808C44.437 20.3808 43.893 20.5168 43.373 20.7888C43.525 21.0848 43.601 21.4608 43.601 21.9168V25.7688C43.601 25.8488 43.585 25.9048 43.553 25.9368C43.529 25.9688 43.473 25.9848 43.385 25.9848H43.013C42.933 25.9848 42.877 25.9688 42.845 25.9368C42.813 25.9048 42.797 25.8488 42.797 25.7688V21.9528C42.797 20.9048 42.289 20.3808 41.273 20.3808C40.801 20.3808 40.381 20.4608 40.013 20.6208C39.885 20.6768 39.821 20.7848 39.821 20.9448V25.7688C39.821 25.9128 39.749 25.9848 39.605 25.9848H39.221C39.077 25.9848 39.005 25.9128 39.005 25.7688V20.7048C39.005 20.5208 39.037 20.3808 39.101 20.2848C39.165 20.1888 39.285 20.1008 39.461 20.0208C40.037 19.7648 40.677 19.6368 41.381 19.6368C42.053 19.6368 42.569 19.8088 42.929 20.1528ZM48.4916 21.8448C48.4916 21.1568 48.7236 20.6168 49.1876 20.2248C49.6596 19.8328 50.3036 19.6368 51.1196 19.6368C51.9436 19.6368 52.5916 19.8328 53.0636 20.2248C53.5356 20.6168 53.7716 21.1568 53.7716 21.8448V23.9568C53.7716 24.6448 53.5356 25.1848 53.0636 25.5768C52.5916 25.9608 51.9436 26.1528 51.1196 26.1528C50.3036 26.1528 49.6596 25.9568 49.1876 25.5648C48.7236 25.1728 48.4916 24.6368 48.4916 23.9568V21.8448ZM52.9556 21.8448C52.9556 21.3888 52.7916 21.0288 52.4636 20.7648C52.1356 20.5008 51.6876 20.3688 51.1196 20.3688C50.5596 20.3688 50.1156 20.5008 49.7876 20.7648C49.4596 21.0288 49.2956 21.3888 49.2956 21.8448V23.9568C49.2956 24.4128 49.4596 24.7728 49.7876 25.0368C50.1236 25.2928 50.5676 25.4208 51.1196 25.4208C51.6876 25.4208 52.1356 25.2928 52.4636 25.0368C52.7916 24.7728 52.9556 24.4128 52.9556 23.9568V21.8448ZM59.8103 19.8168C59.9543 19.8168 60.0263 19.8888 60.0263 20.0328V25.0968C60.0263 25.2808 59.9943 25.4168 59.9303 25.5048C59.8743 25.5928 59.7543 25.6768 59.5703 25.7568C58.9303 26.0208 58.1823 26.1528 57.3263 26.1528C55.7423 26.1528 54.9503 25.3728 54.9503 23.8128V20.0328C54.9503 19.9528 54.9663 19.8968 54.9983 19.8648C55.0303 19.8328 55.0863 19.8168 55.1663 19.8168H55.5383C55.6263 19.8168 55.6823 19.8328 55.7063 19.8648C55.7383 19.8968 55.7543 19.9528 55.7543 20.0328V23.7768C55.7543 24.8728 56.3143 25.4208 57.4343 25.4208C58.0343 25.4208 58.5543 25.3328 58.9943 25.1568C59.1383 25.0928 59.2103 24.9808 59.2103 24.8208V20.0328C59.2103 19.8888 59.2823 19.8168 59.4263 19.8168H59.8103ZM61.8622 20.0448C62.5262 19.7728 63.2702 19.6368 64.0942 19.6368C65.6862 19.6368 66.4822 20.4208 66.4822 21.9888V25.7688C66.4822 25.9128 66.4102 25.9848 66.2662 25.9848H65.8942C65.8142 25.9848 65.7582 25.9688 65.7262 25.9368C65.6942 25.9048 65.6782 25.8488 65.6782 25.7688V22.0128C65.6782 20.9248 65.1182 20.3808 63.9982 20.3808C63.4302 20.3808 62.8982 20.4688 62.4022 20.6448C62.2822 20.7008 62.2222 20.8008 62.2222 20.9448V25.7688C62.2222 25.9128 62.1502 25.9848 62.0062 25.9848H61.6222C61.4782 25.9848 61.4062 25.9128 61.4062 25.7688V20.7048C61.4062 20.5208 61.4342 20.3848 61.4902 20.2968C61.5542 20.2088 61.6782 20.1248 61.8622 20.0448ZM68.9921 18.3768C69.0801 18.3768 69.1361 18.3928 69.1601 18.4248C69.1921 18.4568 69.2081 18.5128 69.2081 18.5928V19.8168H70.9481C71.0921 19.8168 71.1641 19.8888 71.1641 20.0328V20.3448C71.1641 20.4888 71.0921 20.5608 70.9481 20.5608H69.2081V23.6808C69.2081 24.3768 69.3241 24.8368 69.5561 25.0608C69.7961 25.2768 70.2521 25.3848 70.9241 25.3848C71.0681 25.3848 71.1401 25.4608 71.1401 25.6128V25.9368C71.1401 26.0168 71.1241 26.0728 71.0921 26.1048C71.0601 26.1368 71.0041 26.1528 70.9241 26.1528C69.9881 26.1688 69.3321 26.0048 68.9561 25.6608C68.5881 25.3088 68.4041 24.6568 68.4041 23.7048V20.5608H67.2641C67.1201 20.5608 67.0481 20.4888 67.0481 20.3448V20.0328C67.0481 19.8888 67.1201 19.8168 67.2641 19.8168H68.4041V18.5928C68.4041 18.4488 68.4761 18.3768 68.6201 18.3768H68.9921ZM75.5748 18.3768C75.6628 18.3768 75.7188 18.3928 75.7428 18.4248C75.7748 18.4568 75.7908 18.5128 75.7908 18.5928V19.8168H77.5308C77.6748 19.8168 77.7468 19.8888 77.7468 20.0328V20.3448C77.7468 20.4888 77.6748 20.5608 77.5308 20.5608H75.7908V23.6808C75.7908 24.3768 75.9068 24.8368 76.1388 25.0608C76.3788 25.2768 76.8348 25.3848 77.5068 25.3848C77.6508 25.3848 77.7228 25.4608 77.7228 25.6128V25.9368C77.7228 26.0168 77.7068 26.0728 77.6748 26.1048C77.6428 26.1368 77.5868 26.1528 77.5068 26.1528C76.5708 26.1688 75.9148 26.0048 75.5388 25.6608C75.1708 25.3088 74.9868 24.6568 74.9868 23.7048V20.5608H73.8468C73.7028 20.5608 73.6308 20.4888 73.6308 20.3448V20.0328C73.6308 19.8888 73.7028 19.8168 73.8468 19.8168H74.9868V18.5928C74.9868 18.4488 75.0588 18.3768 75.2028 18.3768H75.5748ZM78.3293 21.8448C78.3293 21.1568 78.5613 20.6168 79.0253 20.2248C79.4973 19.8328 80.1413 19.6368 80.9573 19.6368C81.7813 19.6368 82.4293 19.8328 82.9013 20.2248C83.3733 20.6168 83.6093 21.1568 83.6093 21.8448V23.9568C83.6093 24.6448 83.3733 25.1848 82.9013 25.5768C82.4293 25.9608 81.7813 26.1528 80.9573 26.1528C80.1413 26.1528 79.4973 25.9568 79.0253 25.5648C78.5613 25.1728 78.3293 24.6368 78.3293 23.9568V21.8448ZM82.7933 21.8448C82.7933 21.3888 82.6293 21.0288 82.3013 20.7648C81.9733 20.5008 81.5253 20.3688 80.9573 20.3688C80.3973 20.3688 79.9533 20.5008 79.6253 20.7648C79.2973 21.0288 79.1333 21.3888 79.1333 21.8448V23.9568C79.1333 24.4128 79.2973 24.7728 79.6253 25.0368C79.9613 25.2928 80.4053 25.4208 80.9573 25.4208C81.5253 25.4208 81.9733 25.2928 82.3013 25.0368C82.6293 24.7728 82.7933 24.4128 82.7933 23.9568V21.8448ZM90.122 19.6368H90.494C90.638 19.6368 90.71 19.7088 90.71 19.8528V20.1648C90.71 20.3088 90.638 20.3808 90.494 20.3808H90.098C89.498 20.3808 88.97 20.4648 88.514 20.6328C88.378 20.6888 88.31 20.7928 88.31 20.9448V25.7688C88.31 25.9128 88.238 25.9848 88.094 25.9848H87.71C87.566 25.9848 87.494 25.9128 87.494 25.7688V20.6808C87.494 20.4968 87.526 20.3608 87.59 20.2728C87.654 20.1768 87.774 20.0888 87.95 20.0088C88.558 19.7768 89.282 19.6528 90.122 19.6368ZM90.9446 22.1688C90.9446 21.3688 91.1686 20.7488 91.6166 20.3088C92.0726 19.8608 92.7326 19.6368 93.5966 19.6368C94.4686 19.6368 95.1286 19.8648 95.5766 20.3208C96.0326 20.7688 96.2606 21.3688 96.2606 22.1208V22.7808C96.2606 23.0048 96.1406 23.1168 95.9006 23.1168H91.7486V23.8128C91.7486 24.3328 91.9006 24.7368 92.2046 25.0248C92.5166 25.3128 92.9646 25.4568 93.5486 25.4568C94.4366 25.4568 95.0646 25.1248 95.4326 24.4608C95.5286 24.3328 95.6446 24.3048 95.7806 24.3768L96.0326 24.5088C96.1846 24.5888 96.2126 24.7048 96.1166 24.8568C95.6366 25.7208 94.7806 26.1528 93.5486 26.1528C92.6766 26.1528 92.0246 25.9368 91.5926 25.5048C91.1606 25.0728 90.9446 24.4808 90.9446 23.7288V22.1688ZM95.4566 22.0728C95.4566 21.5288 95.2966 21.1048 94.9766 20.8008C94.6646 20.4888 94.2046 20.3328 93.5966 20.3328C92.9966 20.3328 92.5366 20.4888 92.2166 20.8008C91.9046 21.1048 91.7486 21.5288 91.7486 22.0728V22.4928H95.4566V22.0728ZM97.1418 21.4368C97.1418 20.8768 97.3418 20.4368 97.7418 20.1168C98.1498 19.7968 98.7378 19.6368 99.5058 19.6368C100.754 19.6368 101.57 20.0728 101.954 20.9448C102.034 21.0888 101.998 21.1928 101.846 21.2568L101.546 21.3888C101.418 21.4448 101.318 21.4088 101.246 21.2808C101.11 20.9768 100.91 20.7488 100.646 20.5968C100.39 20.4448 100.014 20.3688 99.5178 20.3688C98.4698 20.3688 97.9458 20.7168 97.9458 21.4128C97.9458 21.5968 97.9778 21.7568 98.0418 21.8928C98.1058 22.0208 98.1818 22.1208 98.2698 22.1928C98.3578 22.2648 98.4898 22.3248 98.6658 22.3728C98.8498 22.4208 99.0098 22.4568 99.1458 22.4808C99.2898 22.4968 99.4938 22.5168 99.7578 22.5408C100.126 22.5728 100.434 22.6208 100.682 22.6848C100.93 22.7408 101.17 22.8328 101.402 22.9608C101.634 23.0808 101.806 23.2528 101.918 23.4768C102.038 23.7008 102.098 23.9808 102.098 24.3168C102.098 24.8928 101.89 25.3448 101.474 25.6728C101.058 25.9928 100.446 26.1528 99.6378 26.1528C98.2938 26.1528 97.4298 25.6568 97.0458 24.6648C96.9818 24.5208 97.0258 24.4248 97.1778 24.3768L97.4898 24.2688C97.6178 24.2288 97.7138 24.2728 97.7778 24.4008C98.0418 25.0968 98.6538 25.4448 99.6138 25.4448C100.742 25.4448 101.306 25.0808 101.306 24.3528C101.306 23.9608 101.166 23.6968 100.886 23.5608C100.614 23.4168 100.174 23.3128 99.5658 23.2488C99.2618 23.2168 99.0178 23.1888 98.8338 23.1648C98.6578 23.1328 98.4458 23.0768 98.1978 22.9968C97.9578 22.9168 97.7698 22.8168 97.6338 22.6968C97.4978 22.5768 97.3818 22.4128 97.2858 22.2048C97.1898 21.9888 97.1418 21.7328 97.1418 21.4368ZM104.393 18.3768C104.481 18.3768 104.537 18.3928 104.561 18.4248C104.593 18.4568 104.609 18.5128 104.609 18.5928V19.8168H106.349C106.493 19.8168 106.565 19.8888 106.565 20.0328V20.3448C106.565 20.4888 106.493 20.5608 106.349 20.5608H104.609V23.6808C104.609 24.3768 104.725 24.8368 104.957 25.0608C105.197 25.2768 105.653 25.3848 106.325 25.3848C106.469 25.3848 106.541 25.4608 106.541 25.6128V25.9368C106.541 26.0168 106.525 26.0728 106.493 26.1048C106.461 26.1368 106.405 26.1528 106.325 26.1528C105.389 26.1688 104.733 26.0048 104.357 25.6608C103.989 25.3088 103.805 24.6568 103.805 23.7048V20.5608H102.665C102.521 20.5608 102.449 20.4888 102.449 20.3448V20.0328C102.449 19.8888 102.521 19.8168 102.665 19.8168H103.805V18.5928C103.805 18.4488 103.877 18.3768 104.021 18.3768H104.393ZM107.195 20.8968C107.643 20.0568 108.447 19.6368 109.607 19.6368C110.495 19.6368 111.115 19.8528 111.467 20.2848C111.827 20.7088 112.007 21.2848 112.007 22.0128V25.1568C112.007 25.3648 111.975 25.5128 111.911 25.6008C111.855 25.6888 111.743 25.7688 111.575 25.8408C111.095 26.0488 110.431 26.1528 109.583 26.1528C108.591 26.1528 107.911 26.0048 107.543 25.7088C107.175 25.4048 106.991 24.9328 106.991 24.2928C106.991 23.6128 107.191 23.1328 107.591 22.8528C107.999 22.5728 108.679 22.4328 109.631 22.4328C109.959 22.4328 110.483 22.4728 111.203 22.5528V22.0008C111.203 21.4808 111.083 21.0768 110.843 20.7888C110.611 20.5008 110.191 20.3568 109.583 20.3568C108.791 20.3568 108.231 20.6488 107.903 21.2328C107.815 21.3528 107.715 21.3848 107.603 21.3288L107.315 21.2088C107.163 21.1528 107.123 21.0488 107.195 20.8968ZM111.203 23.2128C110.483 23.1408 109.931 23.1048 109.547 23.1048C108.915 23.1048 108.467 23.1968 108.203 23.3808C107.947 23.5648 107.819 23.8648 107.819 24.2808C107.819 24.6888 107.935 24.9928 108.167 25.1928C108.407 25.3848 108.859 25.4808 109.523 25.4808C110.131 25.4808 110.615 25.4168 110.975 25.2888C111.071 25.2488 111.131 25.2088 111.155 25.1688C111.187 25.1288 111.203 25.0528 111.203 24.9408V23.2128ZM118.33 25.7328C118.378 25.8208 118.39 25.8848 118.366 25.9248C118.35 25.9648 118.294 25.9848 118.198 25.9848H117.838C117.718 25.9848 117.634 25.9728 117.586 25.9488C117.546 25.9248 117.506 25.8728 117.466 25.7928L116.554 23.9208C116.434 23.6648 116.282 23.4808 116.098 23.3688C115.922 23.2488 115.686 23.1888 115.39 23.1888H114.142V25.7568C114.142 25.8448 114.126 25.9048 114.094 25.9368C114.062 25.9688 114.002 25.9848 113.914 25.9848H113.566C113.478 25.9848 113.418 25.9688 113.386 25.9368C113.354 25.9048 113.338 25.8448 113.338 25.7568V17.3208C113.338 17.2328 113.354 17.1768 113.386 17.1528C113.418 17.1208 113.478 17.1048 113.566 17.1048H113.914C114.002 17.1048 114.062 17.1208 114.094 17.1528C114.126 17.1768 114.142 17.2328 114.142 17.3208V22.4448H115.294H115.402L117.334 19.9848C117.39 19.9048 117.442 19.8568 117.49 19.8408C117.538 19.8248 117.626 19.8168 117.754 19.8168H118.09C118.306 19.8168 118.354 19.9008 118.234 20.0688L116.206 22.6008C116.638 22.7128 116.986 23.0368 117.25 23.5728L118.33 25.7328ZM118.968 22.1688C118.968 21.3688 119.192 20.7488 119.64 20.3088C120.096 19.8608 120.756 19.6368 121.62 19.6368C122.492 19.6368 123.152 19.8648 123.6 20.3208C124.056 20.7688 124.284 21.3688 124.284 22.1208V22.7808C124.284 23.0048 124.164 23.1168 123.924 23.1168H119.772V23.8128C119.772 24.3328 119.924 24.7368 120.228 25.0248C120.54 25.3128 120.988 25.4568 121.572 25.4568C122.46 25.4568 123.088 25.1248 123.456 24.4608C123.552 24.3328 123.668 24.3048 123.804 24.3768L124.056 24.5088C124.208 24.5888 124.236 24.7048 124.14 24.8568C123.66 25.7208 122.804 26.1528 121.572 26.1528C120.7 26.1528 120.048 25.9368 119.616 25.5048C119.184 25.0728 118.968 24.4808 118.968 23.7288V22.1688ZM123.48 22.0728C123.48 21.5288 123.32 21.1048 123 20.8008C122.688 20.4888 122.228 20.3328 121.62 20.3328C121.02 20.3328 120.56 20.4888 120.24 20.8008C119.928 21.1048 119.772 21.5288 119.772 22.0728V22.4928H123.48V22.0728Z" fill="#182969"/>
<path d="M371.875 17.0448C372.052 17.0448 372.173 17.0822 372.239 17.1568C372.313 17.2222 372.351 17.3435 372.351 17.5208V26.5088C372.351 26.6862 372.313 26.8122 372.239 26.8868C372.173 26.9522 372.052 26.9848 371.875 26.9848H371.077C370.899 26.9848 370.773 26.9522 370.699 26.8868C370.633 26.8122 370.601 26.6862 370.601 26.5088V19.1728L368.641 20.2648C368.454 20.3675 368.309 20.4048 368.207 20.3768C368.104 20.3395 368.011 20.2415 367.927 20.0828L367.577 19.4528C367.502 19.2942 367.479 19.1728 367.507 19.0888C367.544 18.9955 367.642 18.9022 367.801 18.8088L370.531 17.2408C370.745 17.1102 370.969 17.0448 371.203 17.0448H371.875ZM373.923 20.2088C373.923 19.1728 374.249 18.3515 374.903 17.7448C375.556 17.1382 376.466 16.8348 377.633 16.8348C378.799 16.8348 379.705 17.1382 380.349 17.7448C381.002 18.3515 381.329 19.1728 381.329 20.2088V23.8068C381.329 24.8522 381.002 25.6782 380.349 26.2848C379.705 26.8915 378.799 27.1948 377.633 27.1948C376.466 27.1948 375.556 26.8915 374.903 26.2848C374.249 25.6782 373.923 24.8522 373.923 23.8068V20.2088ZM379.579 20.2088C379.579 19.6582 379.406 19.2335 379.061 18.9348C378.725 18.6268 378.249 18.4728 377.633 18.4728C377.017 18.4728 376.536 18.6268 376.191 18.9348C375.855 19.2335 375.687 19.6582 375.687 20.2088V23.8068C375.687 24.3575 375.855 24.7868 376.191 25.0948C376.536 25.4028 377.017 25.5568 377.633 25.5568C378.249 25.5568 378.725 25.4028 379.061 25.0948C379.406 24.7868 379.579 24.3575 379.579 23.8068V20.2088Z" fill="#5639E0"/>
<path d="M385.378 19.7188C385.378 18.8415 385.696 18.1462 386.33 17.6328C386.965 17.1102 387.852 16.8488 388.99 16.8488C389.942 16.8488 390.703 17.0215 391.272 17.3668C391.842 17.7122 392.308 18.2582 392.672 19.0048C392.756 19.1635 392.705 19.2848 392.518 19.3688L392.084 19.5648C391.991 19.6022 391.921 19.6162 391.874 19.6068C391.828 19.5882 391.776 19.5322 391.72 19.4388C391.44 18.8788 391.086 18.4682 390.656 18.2068C390.236 17.9455 389.681 17.8148 388.99 17.8148C388.16 17.8148 387.52 17.9735 387.072 18.2908C386.634 18.6082 386.414 19.0655 386.414 19.6628C386.414 19.9428 386.47 20.1855 386.582 20.3908C386.694 20.5962 386.83 20.7595 386.988 20.8808C387.156 21.0022 387.38 21.1095 387.66 21.2028C387.95 21.2868 388.206 21.3475 388.43 21.3848C388.654 21.4222 388.948 21.4595 389.312 21.4968C389.723 21.5435 390.064 21.5948 390.334 21.6508C390.605 21.6975 390.913 21.7862 391.258 21.9168C391.604 22.0382 391.879 22.1922 392.084 22.3788C392.29 22.5562 392.462 22.8035 392.602 23.1208C392.752 23.4382 392.826 23.8115 392.826 24.2408C392.826 25.1648 392.5 25.8882 391.846 26.4108C391.193 26.9242 390.25 27.1808 389.018 27.1808C388.02 27.1808 387.217 26.9848 386.61 26.5928C386.013 26.2008 385.551 25.5942 385.224 24.7728C385.168 24.5955 385.224 24.4695 385.392 24.3948L385.826 24.2408C385.985 24.1848 386.106 24.2408 386.19 24.4088C386.704 25.6222 387.646 26.2288 389.018 26.2288C390.876 26.2288 391.804 25.5755 391.804 24.2688C391.804 23.9888 391.748 23.7508 391.636 23.5548C391.534 23.3495 391.408 23.1862 391.258 23.0648C391.109 22.9435 390.899 22.8408 390.628 22.7568C390.367 22.6728 390.129 22.6168 389.914 22.5888C389.7 22.5515 389.42 22.5142 389.074 22.4768C388.636 22.4302 388.281 22.3835 388.01 22.3368C387.74 22.2902 387.418 22.2062 387.044 22.0848C386.671 21.9542 386.377 21.8002 386.162 21.6228C385.948 21.4362 385.761 21.1842 385.602 20.8668C385.453 20.5402 385.378 20.1575 385.378 19.7188ZM393.972 20.3628C393.972 19.2615 394.299 18.4028 394.952 17.7868C395.615 17.1615 396.567 16.8488 397.808 16.8488C398.853 16.8488 399.67 17.0495 400.258 17.4508C400.855 17.8428 401.28 18.4402 401.532 19.2428C401.569 19.3455 401.574 19.4248 401.546 19.4808C401.527 19.5275 401.467 19.5695 401.364 19.6068L400.93 19.7608C400.753 19.8075 400.631 19.7515 400.566 19.5928C400.37 18.9675 400.057 18.5102 399.628 18.2208C399.208 17.9315 398.601 17.7868 397.808 17.7868C396.893 17.7868 396.193 18.0108 395.708 18.4588C395.232 18.9068 394.994 19.5368 394.994 20.3488V23.6808C394.994 24.4835 395.237 25.1135 395.722 25.5708C396.207 26.0188 396.903 26.2428 397.808 26.2428C398.611 26.2428 399.227 26.0935 399.656 25.7948C400.085 25.4962 400.398 25.0295 400.594 24.3948C400.669 24.2268 400.79 24.1662 400.958 24.2128L401.392 24.3808C401.56 24.4462 401.616 24.5628 401.56 24.7308C401.308 25.5428 400.883 26.1542 400.286 26.5648C399.689 26.9755 398.863 27.1808 397.808 27.1808C396.585 27.1808 395.638 26.8728 394.966 26.2568C394.303 25.6315 393.972 24.7682 393.972 23.6668V20.3628ZM407.168 17.0448C408.092 17.0448 408.811 17.3015 409.324 17.8148C409.847 18.3188 410.108 19.0282 410.108 19.9428C410.108 20.7082 409.908 21.3288 409.506 21.8048C409.114 22.2808 408.564 22.5748 407.854 22.6868C408.218 22.8548 408.522 23.1768 408.764 23.6528L410.332 26.7048C410.454 26.8915 410.407 26.9848 410.192 26.9848H409.73C409.441 26.9848 409.259 26.9008 409.184 26.7328L407.826 24.0308C407.602 23.5828 407.346 23.2702 407.056 23.0928C406.776 22.9062 406.366 22.8128 405.824 22.8128H403.934V26.7048C403.934 26.8075 403.916 26.8822 403.878 26.9288C403.841 26.9662 403.771 26.9848 403.668 26.9848H403.206C403.104 26.9848 403.029 26.9662 402.982 26.9288C402.945 26.8822 402.926 26.8075 402.926 26.7048V17.3248C402.926 17.2222 402.945 17.1522 402.982 17.1148C403.029 17.0682 403.104 17.0448 403.206 17.0448H407.168ZM409.058 19.9428C409.058 19.3175 408.886 18.8368 408.54 18.5008C408.195 18.1648 407.705 17.9968 407.07 17.9968H403.934V21.8608H407.07C407.696 21.8608 408.181 21.6975 408.526 21.3708C408.881 21.0348 409.058 20.5588 409.058 19.9428ZM417.58 17.0448C417.683 17.0448 417.753 17.0682 417.79 17.1148C417.837 17.1522 417.86 17.2222 417.86 17.3248V17.7168C417.86 17.8195 417.837 17.8942 417.79 17.9408C417.753 17.9782 417.683 17.9968 417.58 17.9968H414.752V26.7048C414.752 26.8075 414.729 26.8822 414.682 26.9288C414.645 26.9662 414.575 26.9848 414.472 26.9848H414.01C413.907 26.9848 413.833 26.9662 413.786 26.9288C413.749 26.8822 413.73 26.8075 413.73 26.7048V17.9968H410.902C410.799 17.9968 410.725 17.9782 410.678 17.9408C410.641 17.8942 410.622 17.8195 410.622 17.7168V17.3248C410.622 17.2222 410.641 17.1522 410.678 17.1148C410.725 17.0682 410.799 17.0448 410.902 17.0448H417.58Z" fill="#292929"/>
<rect x="431" y="9" width="42" height="26" rx="4" fill="#C6D1FF"/>
<path d="M445.292 18.48C445.444 18.48 445.552 18.512 445.616 18.576C445.68 18.632 445.712 18.736 445.712 18.888V19.476C445.712 19.628 445.68 19.736 445.616 19.8C445.552 19.856 445.444 19.884 445.292 19.884H441.62V21.984H444.728C444.88 21.984 444.984 22.016 445.04 22.08C445.104 22.136 445.136 22.24 445.136 22.392V22.98C445.136 23.132 445.104 23.24 445.04 23.304C444.984 23.36 444.88 23.388 444.728 23.388H441.62V25.596H445.424C445.576 25.596 445.68 25.628 445.736 25.692C445.8 25.748 445.832 25.852 445.832 26.004V26.592C445.832 26.744 445.8 26.852 445.736 26.916C445.68 26.972 445.576 27 445.424 27H440.528C440.376 27 440.268 26.972 440.204 26.916C440.14 26.852 440.108 26.744 440.108 26.592V18.888C440.108 18.736 440.14 18.632 440.204 18.576C440.268 18.512 440.376 18.48 440.528 18.48H445.292ZM450.011 18.48C451.115 18.48 451.971 18.764 452.579 19.332C453.187 19.892 453.491 20.664 453.491 21.648V23.832C453.491 24.816 453.187 25.592 452.579 26.16C451.971 26.72 451.115 27 450.011 27H447.323C447.171 27 447.063 26.972 446.999 26.916C446.935 26.852 446.903 26.744 446.903 26.592V18.888C446.903 18.736 446.935 18.632 446.999 18.576C447.063 18.512 447.171 18.48 447.323 18.48H450.011ZM451.991 21.636C451.991 21.068 451.819 20.636 451.475 20.34C451.139 20.036 450.655 19.884 450.023 19.884H448.415V25.596H450.023C450.655 25.596 451.139 25.448 451.475 25.152C451.819 24.848 451.991 24.412 451.991 23.844V21.636ZM454.741 18.888C454.741 18.736 454.773 18.632 454.837 18.576C454.901 18.512 455.009 18.48 455.161 18.48H455.845C455.997 18.48 456.101 18.512 456.157 18.576C456.221 18.632 456.253 18.736 456.253 18.888V26.592C456.253 26.744 456.221 26.852 456.157 26.916C456.101 26.972 455.997 27 455.845 27H455.161C455.009 27 454.901 26.972 454.837 26.916C454.773 26.852 454.741 26.744 454.741 26.592V18.888ZM463.139 18.48C463.291 18.48 463.395 18.512 463.451 18.576C463.515 18.632 463.547 18.736 463.547 18.888V19.476C463.547 19.628 463.515 19.736 463.451 19.8C463.395 19.856 463.291 19.884 463.139 19.884H461.075V26.592C461.075 26.744 461.043 26.852 460.979 26.916C460.923 26.972 460.819 27 460.667 27H459.971C459.819 27 459.711 26.972 459.647 26.916C459.591 26.852 459.563 26.744 459.563 26.592V19.884H457.499C457.347 19.884 457.239 19.856 457.175 19.8C457.119 19.736 457.091 19.628 457.091 19.476V18.888C457.091 18.736 457.119 18.632 457.175 18.576C457.239 18.512 457.347 18.48 457.499 18.48H463.139Z" fill="#5639E0"/>
<defs>
<linearGradient id="paint0_linear_2248_19595" x1="0" y1="21.5" x2="483" y2="21.5" gradientUnits="userSpaceOnUse">
<stop stop-color="#EEF6FF"/>
<stop offset="0.99" stop-color="#F4E8FF"/>
</linearGradient>
</defs>
</svg>
