<svg width="2161" height="1992" viewBox="0 0 2161 1992" fill="none" xmlns="http://www.w3.org/2000/svg">
<path d="M1080.5 108.297C1489.15 108.297 1835.46 357.707 1963.6 702.287C1977.45 744.949 2015.55 777.766 2064.03 777.766C2112.52 777.766 2161 758.076 2161 702.287V134.55C2161 59.0708 2095.2 0 2019.01 0H141.989C65.7997 0 0 62.3526 0 134.55V1857.45C0 1932.93 65.7997 1992 141.989 1992H2015.55C2095.2 1992 2157.54 1929.65 2157.54 1857.45V1289.71C2157.54 1237.21 2119.44 1197.83 2064.03 1197.83C2008.62 1197.83 1973.99 1237.21 1956.67 1289.71C1835.46 1637.58 1489.15 1886.99 1080.5 1886.99C561.029 1886.99 141.989 1489.9 141.989 997.641C141.989 505.384 561.029 108.297 1080.5 108.297Z" fill="black"/>
</svg>
