<svg width="350" height="232" viewBox="0 0 350 232" fill="none" xmlns="http://www.w3.org/2000/svg">
<rect x="0.5" y="0.5" width="349" height="71" rx="7.5" stroke="#E5EDF5"/>
<circle cx="39" cy="36" r="24" fill="#C3D6EC"/>
<g clip-path="url(#clip0_5801_52355)">
<path d="M47.7478 26.0862L31.0705 42.913L31.0592 37.3763C31.0579 36.7585 30.5561 36.2587 29.9382 36.26C29.3204 36.2612 28.8206 36.7632 28.8218 37.381L28.8387 45.6276C28.8386 45.6281 28.8387 45.6286 28.8387 45.6291C28.8408 46.2461 29.3445 46.7473 29.9635 46.744C29.964 46.7439 29.9645 46.744 29.965 46.744L38.2114 46.6873C38.8291 46.683 39.3266 46.1789 39.3224 45.5609C39.3181 44.9431 38.8139 44.4457 38.1961 44.4499L32.6596 44.488L49.3369 27.6612C49.7718 27.2224 49.7687 26.5141 49.3298 26.0792C48.891 25.6443 48.1827 25.6474 47.7478 26.0862Z" fill="white"/>
</g>
<rect x="75" y="25" width="66" height="8" rx="4" fill="#6B93C0"/>
<rect x="75" y="42" width="44" height="5" rx="2.5" fill="#C3D6EC"/>
<rect x="260" y="28" width="73" height="5" rx="2.5" fill="#6B93C0"/>
<rect x="289" y="42" width="44" height="5" rx="2.5" fill="#C3D6EC"/>
<rect x="0.5" y="80.5" width="349" height="71" rx="7.5" stroke="#E5EDF5"/>
<circle cx="39" cy="116" r="24" fill="#C3D6EC"/>
<rect x="75" y="105" width="66" height="8" rx="4" fill="#6B93C0"/>
<rect x="75" y="122" width="44" height="5" rx="2.5" fill="#C3D6EC"/>
<rect x="260" y="108" width="73" height="5" rx="2.5" fill="#6B93C0"/>
<rect x="289" y="122" width="44" height="5" rx="2.5" fill="#C3D6EC"/>
<g clip-path="url(#clip1_5801_52355)">
<path d="M30.8579 126.5L47.357 109.499L47.4266 115.035C47.4344 115.653 47.9415 116.147 48.5593 116.14C49.1771 116.132 49.6716 115.625 49.6638 115.007L49.5601 106.761C49.5601 106.76 49.56 106.76 49.56 106.759C49.5515 106.142 49.0425 105.647 48.4236 105.656C48.4231 105.656 48.4226 105.656 48.4221 105.656L40.1768 105.8C39.5592 105.811 39.0669 106.32 39.0777 106.938C39.0884 107.556 39.5979 108.048 40.2156 108.037L45.7514 107.941L29.2523 124.942C28.822 125.386 28.8326 126.094 29.276 126.524C29.7194 126.954 30.4276 126.944 30.8579 126.5Z" fill="white"/>
</g>
<rect x="0.5" y="160.5" width="349" height="71" rx="7.5" stroke="#E5EDF5"/>
<circle cx="39" cy="196" r="24" fill="#C3D6EC"/>
<rect x="75" y="185" width="66" height="8" rx="4" fill="#6B93C0"/>
<rect x="75" y="202" width="44" height="5" rx="2.5" fill="#C3D6EC"/>
<rect x="260" y="188" width="73" height="5" rx="2.5" fill="#6B93C0"/>
<rect x="289" y="202" width="44" height="5" rx="2.5" fill="#C3D6EC"/>
<path d="M38.4159 184.919V198.053L35.9257 195.609C35.5606 195.25 34.9696 195.251 34.6058 195.611C34.2419 195.971 34.2429 196.553 34.6081 196.911L38.7291 200.957C39.0933 201.314 39.6825 201.314 40.0467 200.957L44.1678 196.911C44.5329 196.553 44.534 195.971 44.1701 195.611C43.8063 195.251 43.2153 195.25 42.8502 195.609L40.2826 198.129V184.919C40.2826 184.412 39.8647 184 39.3493 184C38.8338 184 38.4159 184.412 38.4159 184.919Z" fill="white"/>
<path d="M26.8667 197.725C26.8667 197.217 26.4488 196.805 25.9333 196.805C25.4179 196.805 25 197.217 25 197.725V205.081C25 205.588 25.4179 206 25.9333 206H52.0667C52.5821 206 53 205.588 53 205.081V197.725C53 197.217 52.5821 196.805 52.0667 196.805C51.5512 196.805 51.1333 197.217 51.1333 197.725V204.161H26.8667V197.725Z" fill="white"/>
<defs>
<clipPath id="clip0_5801_52355">
<rect width="28.6381" height="28.6381" fill="white" transform="translate(19 36.3398) rotate(-45.2556)"/>
</clipPath>
<clipPath id="clip1_5801_52355">
<rect width="28.6381" height="28.6381" fill="white" transform="translate(59.4961 115.944) rotate(134.141)"/>
</clipPath>
</defs>
</svg>
