<svg width="1607" height="824" viewBox="0 0 1607 824" fill="none" xmlns="http://www.w3.org/2000/svg">
<g opacity="0.2">
<path fill-rule="evenodd" clip-rule="evenodd" d="M102.05 5.57357C101.1 4.69894 100.609 4.68238 100.527 4.68238C100.444 4.68238 99.9541 4.69894 99.0035 5.57357C98.0279 6.47138 96.8617 8.02039 95.6056 10.4105C93.0975 15.1811 90.6972 22.392 88.6282 31.6965C86.3016 42.1597 84.4632 54.9486 83.3032 69.265C88.905 71.9754 94.6658 74.9222 100.526 78.0862C106.386 74.9213 112.147 71.9746 117.751 69.2634C116.591 54.9478 114.752 42.1593 112.425 31.6965C110.357 22.392 107.956 15.1811 105.449 10.4105C104.192 8.02039 103.026 6.47134 102.05 5.57357ZM95.6226 80.7716C91.3194 78.4854 87.0799 76.3223 82.9286 74.2899C82.6139 78.8987 82.3688 83.6497 82.1986 88.5173C84.3941 87.2025 86.6221 85.8927 88.8796 84.5899C91.1371 83.2876 93.3859 82.0144 95.6226 80.7716ZM78.784 67.1132C82.1457 27.8557 90.6131 0 100.527 0C110.441 0 118.908 27.8549 122.27 67.1115C157.969 50.3936 186.34 43.795 191.297 52.3752C196.254 60.9554 176.349 82.2109 144.012 104.749C176.349 127.287 196.254 148.542 191.297 157.123C186.34 165.703 157.969 159.104 122.27 142.386C118.908 181.643 110.441 209.497 100.527 209.497C90.6131 209.497 82.1457 181.642 78.784 142.385C43.0839 159.103 14.7111 165.703 9.75403 157.123C4.79712 148.542 24.7019 127.287 57.039 104.749C24.7019 82.2109 4.79712 60.9554 9.75403 52.3752C14.7111 43.7946 43.0839 50.394 78.784 67.1132ZM61.1649 101.912C49.3383 93.7495 39.174 85.7632 31.2697 78.5178C24.2407 72.0744 19.1922 66.3915 16.3121 61.8356C14.8691 59.5527 14.11 57.7693 13.8199 56.4765C13.5374 55.2179 13.7683 54.7867 13.8084 54.7172C13.8488 54.6473 14.1079 54.231 15.3415 53.8456C16.6079 53.4502 18.5341 53.2151 21.2341 53.3229C26.6231 53.5376 34.0725 55.0656 43.1704 57.927C53.4009 61.1452 65.4028 65.9486 78.389 72.1027C77.937 78.3055 77.6103 84.7635 77.4225 91.4162C71.7496 94.9061 66.3155 98.4185 61.1649 101.912ZM61.1649 107.586C49.3383 115.748 39.174 123.734 31.2697 130.98C24.2407 137.423 19.1922 143.106 16.3121 147.662C14.8691 149.945 14.11 151.729 13.8199 153.021C13.5374 154.28 13.7683 154.711 13.8084 154.78C13.8487 154.85 14.1075 155.266 15.3415 155.652C16.6079 156.048 18.5341 156.282 21.2341 156.175C26.6231 155.96 34.0725 154.432 43.1704 151.57C53.4009 148.352 65.4028 143.549 78.389 137.395C77.937 131.192 77.6103 124.734 77.4225 118.081C71.7496 114.591 66.3155 111.079 61.1649 107.586ZM77.2981 112.496C73.1643 109.914 69.1695 107.326 65.332 104.749C69.1695 102.172 73.1643 99.5835 77.2981 97.0022C77.2565 99.5598 77.2357 102.143 77.2357 104.749C77.2357 107.354 77.2565 109.938 77.2981 112.496ZM82.0383 115.415C81.9588 111.911 81.918 108.352 81.918 104.749C81.918 101.145 81.9588 97.587 82.0383 94.082C85.035 92.2615 88.0975 90.4473 91.2195 88.6459C94.3432 86.8437 97.4477 85.0994 100.526 83.4154C103.603 85.0994 106.708 86.8437 109.831 88.6459C112.955 90.4477 116.018 92.2628 119.015 94.0841C119.095 97.5882 119.136 101.146 119.136 104.749C119.136 108.352 119.095 111.91 119.015 115.413C116.018 117.235 112.955 119.05 109.831 120.852C106.708 122.654 103.603 124.398 100.526 126.082C97.4477 124.398 94.3432 122.654 91.2195 120.852C88.0975 119.05 85.035 117.236 82.0383 115.415ZM82.1986 120.98C82.3688 125.848 82.6139 130.599 82.9286 135.207C87.0799 133.176 91.3194 131.012 95.6226 128.726C93.3859 127.483 91.1371 126.21 88.8796 124.907C86.6221 123.605 84.3941 122.295 82.1986 120.98ZM100.526 131.411C94.6658 134.576 88.905 137.522 83.3032 140.233C84.4632 154.549 86.3016 167.338 88.6282 177.801C90.6972 187.106 93.0975 194.317 95.6056 199.087C96.8617 201.477 98.0279 203.026 99.0035 203.924C99.9541 204.798 100.444 204.815 100.527 204.815C100.609 204.815 101.1 204.798 102.05 203.924C103.026 203.026 104.192 201.477 105.449 199.087C107.956 194.317 110.357 187.106 112.425 177.801C114.752 167.338 116.591 154.55 117.751 140.234C112.147 137.523 106.386 134.576 100.526 131.411ZM122.665 137.396C135.65 143.55 147.651 148.353 157.88 151.57C166.978 154.432 174.428 155.96 179.817 156.175C182.517 156.282 184.443 156.048 185.709 155.652C186.944 155.266 187.202 154.85 187.242 154.78C187.282 154.711 187.513 154.28 187.231 153.021C186.941 151.729 186.182 149.945 184.739 147.662C181.859 143.106 176.81 137.423 169.782 130.98C161.877 123.734 151.713 115.748 139.886 107.586C134.736 111.078 129.303 114.59 123.632 118.08C123.443 124.733 123.117 131.192 122.665 137.396ZM139.886 101.912C151.713 93.7495 161.877 85.7632 169.782 78.5178C176.81 72.0744 181.859 66.3915 184.739 61.8356C186.182 59.5527 186.941 57.7693 187.231 56.4765C187.513 55.2171 187.282 54.7863 187.242 54.7172C187.202 54.6477 186.944 54.231 185.709 53.8456C184.443 53.4502 182.517 53.2151 179.817 53.3229C174.428 53.5376 166.978 55.0656 157.88 57.927C147.651 61.1452 135.65 65.9478 122.665 72.1015C123.117 78.3051 123.443 84.7643 123.632 91.4183C129.303 94.9074 134.736 98.4194 139.886 101.912ZM123.756 97.0038C127.889 99.5848 131.883 102.172 135.719 104.749C131.883 107.325 127.889 109.913 123.756 112.494C123.797 109.936 123.818 107.354 123.818 104.749C123.818 102.144 123.797 99.561 123.756 97.0038ZM118.855 88.519C118.685 83.6501 118.44 78.8986 118.125 74.2887C113.973 76.321 109.733 78.4845 105.428 80.7716C107.665 82.0144 109.914 83.2876 112.171 84.5899C114.43 85.8935 116.659 87.2037 118.855 88.519ZM118.125 135.209C113.973 133.176 109.733 131.013 105.428 128.726C107.665 127.483 109.914 126.21 112.171 124.907C114.43 123.604 116.659 122.294 118.855 120.978C118.685 125.847 118.44 130.599 118.125 135.209Z" fill="white"/>
<path fill-rule="evenodd" clip-rule="evenodd" d="M33.5755 75.4147C37.6436 75.4147 40.9416 78.714 40.9416 82.7842C40.9416 86.8543 37.6436 90.1536 33.5755 90.1536C29.5075 90.1536 26.2098 86.8543 26.2098 82.7842C26.2098 78.714 29.5075 75.4147 33.5755 75.4147Z" fill="white"/>
<path fill-rule="evenodd" clip-rule="evenodd" d="M150.645 50.1779C154.714 50.1779 158.014 53.4772 158.014 57.5473C158.014 61.6174 154.714 64.9167 150.645 64.9167C146.574 64.9167 143.275 61.6174 143.275 57.5473C143.275 53.4772 146.574 50.1779 150.645 50.1779Z" fill="white"/>
<path fill-rule="evenodd" clip-rule="evenodd" d="M85.6843 165.848C89.7545 165.848 93.0538 169.146 93.0538 173.214C93.0538 177.282 89.7545 180.58 85.6843 180.58C81.6142 180.58 78.3145 177.282 78.3145 173.214C78.3145 169.146 81.6142 165.848 85.6843 165.848Z" fill="white"/>
<path fill-rule="evenodd" clip-rule="evenodd" d="M100.117 92.2168C107.008 92.2168 112.594 97.8032 112.594 104.694C112.594 111.585 107.008 117.171 100.117 117.171C93.2261 117.171 87.6397 111.585 87.6397 104.694C87.6397 97.8032 93.2261 92.2168 100.117 92.2168Z" fill="white"/>
<path fill-rule="evenodd" clip-rule="evenodd" d="M397.075 731.101C396.717 730.771 396.532 730.765 396.501 730.765C396.469 730.765 396.285 730.771 395.926 731.101C395.559 731.439 395.119 732.023 394.646 732.924C393.7 734.722 392.795 737.441 392.015 740.948C391.138 744.892 390.445 749.713 390.008 755.109C392.12 756.131 394.291 757.242 396.5 758.434C398.709 757.241 400.881 756.13 402.993 755.108C402.556 749.712 401.863 744.892 400.986 740.948C400.206 737.441 399.301 734.722 398.356 732.924C397.882 732.023 397.443 731.439 397.075 731.101ZM394.652 759.446C393.03 758.585 391.432 757.769 389.867 757.003C389.748 758.74 389.656 760.531 389.592 762.366C390.419 761.871 391.259 761.377 392.11 760.886C392.961 760.395 393.809 759.915 394.652 759.446ZM388.305 754.298C389.572 739.5 392.764 729 396.501 729C400.237 729 403.429 739.5 404.696 754.297C418.153 747.996 428.847 745.508 430.716 748.743C432.584 751.977 425.081 759.989 412.892 768.484C425.081 776.98 432.584 784.992 430.716 788.227C428.847 791.461 418.153 788.973 404.696 782.672C403.429 797.469 400.237 807.969 396.501 807.969C392.764 807.969 389.572 797.469 388.305 782.671C374.848 788.973 364.153 791.461 362.284 788.227C360.416 784.992 367.919 776.98 380.108 768.484C367.919 759.989 360.416 751.977 362.284 748.743C364.153 745.508 374.848 747.996 388.305 754.298ZM381.663 767.415C377.205 764.338 373.374 761.328 370.394 758.597C367.745 756.168 365.842 754.026 364.756 752.309C364.212 751.448 363.926 750.776 363.817 750.289C363.71 749.814 363.797 749.652 363.813 749.625C363.828 749.599 363.925 749.442 364.39 749.297C364.868 749.148 365.594 749.059 366.612 749.1C368.643 749.181 371.451 749.757 374.88 750.835C378.737 752.048 383.261 753.859 388.156 756.179C387.985 758.517 387.862 760.951 387.792 763.459C385.653 764.774 383.605 766.098 381.663 767.415ZM381.663 769.554C377.205 772.631 373.374 775.641 370.394 778.372C367.745 780.801 365.842 782.943 364.756 784.66C364.212 785.521 363.926 786.193 363.817 786.68C363.71 787.155 363.797 787.317 363.813 787.344C363.828 787.37 363.925 787.527 364.39 787.672C364.868 787.821 365.594 787.91 366.612 787.869C368.643 787.788 371.451 787.212 374.88 786.134C378.737 784.921 383.261 783.11 388.156 780.79C387.985 778.452 387.862 776.018 387.792 773.51C385.653 772.195 383.605 770.871 381.663 769.554ZM387.745 771.405C386.186 770.431 384.681 769.456 383.234 768.484C384.681 767.513 386.186 766.537 387.745 765.564C387.729 766.529 387.721 767.502 387.721 768.484C387.721 769.467 387.729 770.44 387.745 771.405ZM389.531 772.505C389.501 771.184 389.486 769.843 389.486 768.484C389.486 767.126 389.501 765.785 389.531 764.464C390.661 763.777 391.815 763.094 392.992 762.415C394.17 761.735 395.34 761.078 396.5 760.443C397.66 761.078 398.83 761.735 400.008 762.415C401.185 763.094 402.34 763.778 403.47 764.465C403.5 765.785 403.515 767.126 403.515 768.484C403.515 769.843 403.5 771.184 403.47 772.504C402.34 773.191 401.185 773.875 400.008 774.554C398.83 775.234 397.66 775.891 396.5 776.526C395.34 775.891 394.17 775.234 392.992 774.554C391.815 773.875 390.661 773.192 389.531 772.505ZM389.592 774.603C389.656 776.438 389.748 778.228 389.867 779.966C391.432 779.2 393.03 778.384 394.652 777.522C393.809 777.054 392.961 776.574 392.11 776.083C391.259 775.592 390.419 775.098 389.592 774.603ZM396.5 778.535C394.291 779.728 392.12 780.838 390.008 781.86C390.445 787.256 391.138 792.077 392.015 796.021C392.795 799.528 393.7 802.247 394.646 804.045C395.119 804.946 395.559 805.53 395.926 805.868C396.285 806.198 396.469 806.204 396.501 806.204C396.532 806.204 396.717 806.198 397.075 805.868C397.443 805.53 397.882 804.946 398.356 804.045C399.301 802.247 400.206 799.528 400.986 796.021C401.863 792.077 402.556 787.257 402.993 781.86C400.881 780.839 398.709 779.728 396.5 778.535ZM404.845 780.791C409.74 783.11 414.264 784.921 418.12 786.134C421.549 787.212 424.357 787.788 426.388 787.869C427.406 787.91 428.132 787.821 428.61 787.672C429.075 787.527 429.172 787.37 429.188 787.344C429.203 787.318 429.29 787.155 429.183 786.68C429.074 786.193 428.788 785.521 428.244 784.66C427.158 782.943 425.255 780.801 422.606 778.372C419.626 775.641 415.795 772.631 411.337 769.554C409.396 770.87 407.348 772.194 405.21 773.509C405.139 776.017 405.016 778.452 404.845 780.791ZM411.337 767.415C415.795 764.338 419.626 761.328 422.606 758.597C425.255 756.168 427.158 754.026 428.244 752.309C428.788 751.448 429.074 750.776 429.183 750.289C429.29 749.814 429.203 749.651 429.188 749.625C429.172 749.599 429.075 749.442 428.61 749.297C428.132 749.148 427.406 749.059 426.388 749.1C424.357 749.181 421.549 749.757 418.12 750.835C414.264 752.048 409.74 753.859 404.845 756.178C405.016 758.517 405.139 760.951 405.21 763.46C407.348 764.775 409.396 766.099 411.337 767.415ZM405.257 765.565C406.814 766.538 408.32 767.513 409.766 768.484C408.32 769.456 406.814 770.431 405.257 771.404C405.272 770.44 405.28 769.466 405.28 768.484C405.28 767.503 405.272 766.529 405.257 765.565ZM403.409 762.367C403.345 760.531 403.253 758.74 403.134 757.003C401.569 757.769 399.971 758.584 398.348 759.446C399.191 759.915 400.039 760.395 400.89 760.886C401.741 761.377 402.581 761.871 403.409 762.367ZM403.134 779.966C401.569 779.2 399.971 778.385 398.348 777.522C399.191 777.054 400.039 776.574 400.89 776.083C401.741 775.592 402.581 775.098 403.409 774.602C403.345 776.437 403.253 778.229 403.134 779.966Z" fill="white"/>
<path fill-rule="evenodd" clip-rule="evenodd" d="M371.264 757.427C372.797 757.427 374.04 758.671 374.04 760.205C374.04 761.739 372.797 762.983 371.264 762.983C369.73 762.983 368.487 761.739 368.487 760.205C368.487 758.671 369.73 757.427 371.264 757.427Z" fill="white"/>
<path fill-rule="evenodd" clip-rule="evenodd" d="M415.392 747.914C416.926 747.914 418.17 749.158 418.17 750.692C418.17 752.226 416.926 753.47 415.392 753.47C413.858 753.47 412.614 752.226 412.614 750.692C412.614 749.158 413.858 747.914 415.392 747.914Z" fill="white"/>
<path fill-rule="evenodd" clip-rule="evenodd" d="M390.906 791.515C392.44 791.515 393.684 792.759 393.684 794.292C393.684 795.825 392.44 797.069 390.906 797.069C389.372 797.069 388.128 795.825 388.128 794.292C388.128 792.759 389.372 791.515 390.906 791.515Z" fill="white"/>
<path fill-rule="evenodd" clip-rule="evenodd" d="M396.346 763.761C398.943 763.761 401.049 765.866 401.049 768.464C401.049 771.061 398.943 773.167 396.346 773.167C393.749 773.167 391.643 771.061 391.643 768.464C391.643 765.866 393.749 763.761 396.346 763.761Z" fill="white"/>
<g opacity="0.7">
<path d="M881 110.545V146.09H885.862H890.725V110.545V75H885.862H881V110.545Z" fill="white"/>
<path d="M919.228 81.7737C916.377 85.4958 910.241 93.5102 905.58 99.5461L897.129 110.545L909.268 126.238C915.941 134.856 922.145 142.837 923.017 144.011L924.626 146.09H930.83C934.217 146.09 937 146.023 937 145.922C937 145.822 930.931 137.908 923.52 128.384C916.109 118.861 910.04 110.847 910.04 110.545C910.04 110.277 916.008 102.229 923.352 92.6719C930.662 83.1485 936.665 75.2683 936.665 75.1677C936.665 75.0671 933.915 75 930.528 75H924.392L919.228 81.7737Z" fill="white"/>
</g>
<path opacity="0.2" fill-rule="evenodd" clip-rule="evenodd" d="M1554.16 673.526C1609.13 673.526 1653.7 718.094 1653.7 773.072C1653.7 828.049 1609.13 872.617 1554.16 872.617C1499.18 872.617 1454.61 828.049 1454.61 773.072C1454.61 718.094 1499.18 673.526 1554.16 673.526Z" fill="white"/>
<path fill-rule="evenodd" clip-rule="evenodd" d="M1557.2 630.038C1555.83 628.777 1555.12 628.753 1555 628.753C1554.88 628.753 1554.18 628.777 1552.81 630.038C1551.4 631.333 1549.72 633.567 1547.9 637.014C1544.29 643.895 1540.83 654.294 1537.84 667.713C1534.49 682.804 1531.83 701.248 1530.16 721.896C1538.24 725.805 1546.55 730.054 1555 734.618C1563.45 730.053 1571.76 725.803 1579.84 721.893C1578.17 701.247 1575.52 682.803 1572.16 667.713C1569.18 654.294 1565.72 643.895 1562.1 637.014C1560.29 633.567 1558.61 631.333 1557.2 630.038ZM1547.93 738.491C1541.72 735.193 1535.61 732.074 1529.62 729.143C1529.17 735.789 1528.81 742.641 1528.57 749.662C1531.74 747.765 1534.95 745.876 1538.2 743.997C1541.46 742.119 1544.7 740.283 1547.93 738.491ZM1523.64 718.792C1528.49 662.174 1540.7 622 1555 622C1569.3 622 1581.51 662.173 1586.36 718.79C1637.85 694.679 1678.76 685.162 1685.91 697.537C1693.06 709.911 1664.35 740.566 1617.72 773.071C1664.35 805.576 1693.06 836.231 1685.91 848.606C1678.76 860.98 1637.85 851.463 1586.36 827.352C1581.51 883.969 1569.3 924.142 1555 924.142C1540.7 924.142 1528.49 883.968 1523.64 827.35C1472.16 851.463 1431.24 860.98 1424.09 848.606C1416.94 836.231 1445.65 805.576 1492.28 773.071C1445.65 740.566 1416.94 709.911 1424.09 697.537C1431.24 685.161 1472.16 694.679 1523.64 718.792ZM1498.23 768.98C1481.18 757.208 1466.52 745.69 1455.12 735.24C1444.98 725.947 1437.7 717.751 1433.55 711.181C1431.46 707.888 1430.37 705.316 1429.95 703.452C1429.54 701.636 1429.88 701.015 1429.93 700.914H1429.93C1429.99 700.814 1430.37 700.213 1432.15 699.657C1433.97 699.087 1436.75 698.748 1440.64 698.903C1448.42 699.213 1459.16 701.417 1472.28 705.544C1487.04 710.185 1504.35 717.113 1523.07 725.988C1522.42 734.934 1521.95 744.248 1521.68 753.843C1513.5 758.876 1505.66 763.941 1498.23 768.98ZM1498.23 777.162C1481.18 788.934 1466.52 800.452 1455.12 810.902C1444.98 820.195 1437.7 828.391 1433.55 834.962C1431.46 838.254 1430.37 840.826 1429.95 842.69C1429.54 844.506 1429.88 845.127 1429.93 845.228C1429.99 845.328 1430.37 845.929 1432.15 846.484C1433.97 847.055 1436.75 847.394 1440.64 847.238C1448.42 846.929 1459.16 844.725 1472.28 840.598C1487.04 835.957 1504.35 829.029 1523.07 820.154C1522.42 811.208 1521.95 801.894 1521.68 792.299C1513.5 787.266 1505.66 782.2 1498.23 777.162ZM1521.5 784.244C1515.54 780.52 1509.78 776.788 1504.24 773.071C1509.78 769.354 1515.54 765.622 1521.5 761.899C1521.44 765.587 1521.41 769.313 1521.41 773.071C1521.41 776.829 1521.44 780.555 1521.5 784.244ZM1528.34 788.455C1528.22 783.4 1528.16 778.268 1528.16 773.071C1528.16 767.874 1528.22 762.742 1528.34 757.687C1532.66 755.062 1537.08 752.445 1541.58 749.847C1546.08 747.248 1550.56 744.732 1555 742.304C1559.44 744.732 1563.92 747.248 1568.42 749.847C1572.93 752.446 1577.34 755.063 1581.67 757.69C1581.78 762.744 1581.84 767.875 1581.84 773.071C1581.84 778.267 1581.78 783.399 1581.67 788.452C1577.34 791.079 1572.93 793.696 1568.42 796.295C1563.92 798.895 1559.44 801.41 1555 803.838C1550.56 801.41 1546.08 798.895 1541.58 796.295C1537.08 793.697 1532.66 791.081 1528.34 788.455ZM1528.57 796.48C1528.81 803.501 1529.17 810.352 1529.62 816.999C1535.61 814.069 1541.72 810.949 1547.93 807.651C1544.7 805.859 1541.46 804.023 1538.2 802.144C1534.95 800.266 1531.74 798.377 1528.57 796.48ZM1555 811.524C1546.55 816.088 1538.24 820.337 1530.16 824.247C1531.83 844.894 1534.49 863.338 1537.84 878.428C1540.83 891.848 1544.29 902.248 1547.9 909.128C1549.72 912.575 1551.4 914.809 1552.81 916.104C1554.18 917.365 1554.88 917.389 1555 917.389C1555.12 917.389 1555.83 917.365 1557.2 916.104C1558.61 914.809 1560.29 912.575 1562.1 909.128C1565.72 902.248 1569.18 891.848 1572.16 878.428C1575.52 863.339 1578.17 844.895 1579.84 824.249C1571.76 820.339 1563.45 816.089 1555 811.524ZM1586.93 820.155C1605.66 829.03 1622.97 835.958 1637.72 840.598C1650.84 844.725 1661.58 846.929 1669.36 847.238C1673.25 847.394 1676.03 847.055 1677.85 846.484C1679.63 845.929 1680.01 845.328 1680.07 845.228C1680.12 845.128 1680.46 844.507 1680.05 842.69C1679.63 840.826 1678.54 838.254 1676.45 834.962C1672.3 828.391 1665.02 820.195 1654.88 810.902C1643.48 800.452 1628.82 788.934 1611.77 777.162C1604.34 782.199 1596.5 787.264 1588.32 792.297C1588.05 801.893 1587.58 811.208 1586.93 820.155ZM1611.77 768.98C1628.82 757.208 1643.48 745.69 1654.88 735.24C1665.02 725.947 1672.3 717.751 1676.45 711.181C1678.54 707.888 1679.63 705.316 1680.05 703.452C1680.46 701.635 1680.12 701.014 1680.07 700.914C1680.01 700.814 1679.63 700.213 1677.85 699.657C1676.03 699.087 1673.25 698.748 1669.36 698.903C1661.58 699.213 1650.84 701.417 1637.72 705.544C1622.97 710.185 1605.66 717.111 1586.93 725.986C1587.58 734.933 1588.05 744.249 1588.32 753.846C1596.5 758.878 1604.34 763.943 1611.77 768.98ZM1588.5 761.901C1594.46 765.623 1600.22 769.355 1605.76 773.071C1600.22 776.787 1594.46 780.518 1588.5 784.241C1588.56 780.553 1588.59 776.828 1588.59 773.071C1588.59 769.314 1588.56 765.589 1588.5 761.901ZM1581.44 749.664C1581.19 742.642 1580.84 735.789 1580.38 729.141C1574.39 732.072 1568.28 735.192 1562.07 738.491C1565.3 740.283 1568.54 742.119 1571.8 743.997C1575.05 745.878 1578.27 747.767 1581.44 749.664ZM1580.38 817.002C1574.39 814.07 1568.28 810.95 1562.07 807.651C1565.3 805.859 1568.54 804.023 1571.8 802.144C1575.05 800.265 1578.27 798.375 1581.44 796.478C1581.19 803.5 1580.84 810.353 1580.38 817.002Z" fill="white"/>
<path fill-rule="evenodd" clip-rule="evenodd" d="M1458.44 730.767C1464.31 730.767 1469.07 735.525 1469.07 741.395C1469.07 747.265 1464.31 752.023 1458.44 752.023C1452.58 752.023 1447.82 747.265 1447.82 741.395C1447.82 735.525 1452.58 730.767 1458.44 730.767Z" fill="white"/>
<path fill-rule="evenodd" clip-rule="evenodd" d="M1554.41 754.997C1564.35 754.997 1572.41 763.054 1572.41 772.992C1572.41 782.93 1564.35 790.986 1554.41 790.986C1544.47 790.986 1536.42 782.93 1536.42 772.992C1536.42 763.054 1544.47 754.997 1554.41 754.997Z" fill="white"/>
<path opacity="0.2" fill-rule="evenodd" clip-rule="evenodd" d="M1198.34 44.5635C1208.55 44.5635 1216.82 52.8356 1216.82 63.0398C1216.82 73.2439 1208.55 81.516 1198.34 81.516C1188.14 81.516 1179.87 73.2439 1179.87 63.0398C1179.87 52.8356 1188.14 44.5635 1198.34 44.5635Z" fill="white"/>
<path fill-rule="evenodd" clip-rule="evenodd" d="M1198.91 36.492C1198.65 36.2578 1198.52 36.2534 1198.5 36.2534C1198.48 36.2534 1198.35 36.2578 1198.09 36.492C1197.83 36.7323 1197.52 37.1469 1197.18 37.7867C1196.51 39.0638 1195.87 40.994 1195.32 43.4847C1194.69 46.2855 1194.2 49.7089 1193.89 53.5412C1195.39 54.2668 1196.93 55.0556 1198.5 55.9025C1200.07 55.0553 1201.61 54.2665 1203.11 53.5408C1202.8 49.7087 1202.31 46.2854 1201.69 43.4847C1201.13 40.994 1200.49 39.0638 1199.82 37.7867C1199.48 37.1469 1199.17 36.7323 1198.91 36.492ZM1197.19 56.6214C1196.04 56.0094 1194.9 55.4304 1193.79 54.8863C1193.71 56.12 1193.64 57.3918 1193.59 58.6948C1194.18 58.3428 1194.78 57.9922 1195.38 57.6435C1195.99 57.2949 1196.59 56.954 1197.19 56.6214ZM1192.68 52.9652C1193.58 42.4566 1195.85 35 1198.5 35C1201.15 35 1203.42 42.4563 1204.32 52.9648C1213.88 48.4896 1221.47 46.7233 1222.8 49.0201C1224.13 51.3169 1218.8 57.0066 1210.14 63.0397C1218.8 69.0727 1224.13 74.7626 1222.8 77.0594C1221.47 79.3562 1213.88 77.5898 1204.32 73.1146C1203.42 83.623 1201.15 91.0794 1198.5 91.0794C1195.85 91.0794 1193.58 83.6228 1192.68 73.1143C1183.12 77.5896 1175.53 79.3562 1174.2 77.0594C1172.87 74.7626 1178.2 69.0727 1186.86 63.0397C1178.2 57.0066 1172.87 51.3169 1174.2 49.0201C1175.53 46.7232 1183.12 48.4897 1192.68 52.9652ZM1187.96 62.2804C1184.8 60.0954 1182.08 57.9576 1179.96 56.0181C1178.08 54.2933 1176.73 52.772 1175.96 51.5525C1175.57 50.9414 1175.37 50.464 1175.29 50.1179C1175.21 49.781 1175.28 49.6656 1175.29 49.647H1175.29C1175.3 49.6283 1175.37 49.5169 1175.7 49.4137C1176.04 49.3078 1176.55 49.2449 1177.27 49.2737C1178.72 49.3312 1180.71 49.7402 1183.15 50.5062C1185.89 51.3677 1189.1 52.6535 1192.57 54.3008C1192.45 55.9612 1192.37 57.6899 1192.32 59.4708C1190.8 60.405 1189.34 61.3452 1187.96 62.2804ZM1187.96 63.7991C1184.8 65.984 1182.08 68.1218 1179.96 70.0614C1178.08 71.7861 1176.73 73.3073 1175.96 74.527C1175.57 75.138 1175.37 75.6155 1175.29 75.9614C1175.21 76.2985 1175.28 76.4138 1175.29 76.4324C1175.3 76.451 1175.37 76.5625 1175.7 76.6657C1176.04 76.7716 1176.55 76.8345 1177.27 76.8056C1178.72 76.7482 1180.71 76.3391 1183.15 75.5732C1185.89 74.7117 1189.1 73.4259 1192.57 71.7785C1192.45 70.1181 1192.37 68.3894 1192.32 66.6086C1190.8 65.6744 1189.34 64.7342 1187.96 63.7991ZM1192.28 65.1134C1191.18 64.4223 1190.11 63.7296 1189.08 63.0397C1190.11 62.3498 1191.18 61.657 1192.28 60.9661C1192.27 61.6507 1192.27 62.3422 1192.27 63.0397C1192.27 63.7371 1192.27 64.4287 1192.28 65.1134ZM1193.55 65.895C1193.53 64.9569 1193.52 64.0043 1193.52 63.0397C1193.52 62.0751 1193.53 61.1226 1193.55 60.1844C1194.35 59.6971 1195.17 59.2114 1196.01 58.7292C1196.85 58.2468 1197.68 57.7798 1198.5 57.3291C1199.32 57.7798 1200.15 58.2468 1200.99 58.7292C1201.83 59.2115 1202.65 59.6974 1203.45 60.1849C1203.47 61.1229 1203.48 62.0753 1203.48 63.0397C1203.48 64.0042 1203.47 64.9566 1203.45 65.8944C1202.65 66.3821 1201.83 66.8679 1200.99 67.3502C1200.15 67.8327 1199.32 68.2995 1198.5 68.7503C1197.68 68.2995 1196.85 67.8327 1196.01 67.3502C1195.17 66.868 1194.35 66.3824 1193.55 65.895ZM1193.59 67.3846C1193.64 68.6877 1193.71 69.9594 1193.79 71.193C1194.9 70.6491 1196.04 70.0701 1197.19 69.458C1196.59 69.1253 1195.99 68.7845 1195.38 68.4359C1194.78 68.0872 1194.18 67.7365 1193.59 67.3846ZM1198.5 70.1768C1196.93 71.0239 1195.39 71.8126 1193.89 72.5383C1194.2 76.3704 1194.69 79.7938 1195.32 82.5947C1195.87 85.0854 1196.51 87.0157 1197.18 88.2927C1197.52 88.9324 1197.83 89.3471 1198.09 89.5874C1198.35 89.8215 1198.48 89.826 1198.5 89.826C1198.52 89.826 1198.65 89.8215 1198.91 89.5874C1199.17 89.3471 1199.48 88.9324 1199.82 88.2927C1200.49 87.0157 1201.13 85.0854 1201.69 82.5947C1202.31 79.794 1202.8 76.3707 1203.11 72.5386C1201.61 71.813 1200.07 71.024 1198.5 70.1768ZM1204.43 71.7789C1207.9 73.4261 1211.11 74.7118 1213.85 75.5732C1216.29 76.3391 1218.28 76.7482 1219.73 76.8056C1220.45 76.8345 1220.96 76.7716 1221.3 76.6657C1221.63 76.5625 1221.7 76.451 1221.71 76.4324C1221.72 76.4139 1221.79 76.2986 1221.71 75.9614C1221.63 75.6155 1221.43 75.138 1221.04 74.527C1220.27 73.3073 1218.92 71.7861 1217.04 70.0614C1214.92 68.1218 1212.2 65.984 1209.04 63.7991C1207.66 64.734 1206.2 65.6741 1204.69 66.6082C1204.63 68.3892 1204.55 70.1182 1204.43 71.7789ZM1209.04 62.2804C1212.2 60.0954 1214.92 57.9576 1217.04 56.0181C1218.92 54.2933 1220.27 52.772 1221.04 51.5525C1221.43 50.9414 1221.63 50.464 1221.71 50.1179C1221.79 49.7808 1221.72 49.6655 1221.71 49.647C1221.7 49.6284 1221.63 49.5169 1221.3 49.4137C1220.96 49.3078 1220.45 49.2449 1219.73 49.2737C1218.28 49.3312 1216.29 49.7402 1213.85 50.5062C1211.11 51.3677 1207.9 52.6533 1204.43 54.3005C1204.55 55.9611 1204.63 57.6902 1204.69 59.4713C1206.2 60.4053 1207.66 61.3454 1209.04 62.2804ZM1204.72 60.9665C1205.82 61.6574 1206.89 62.35 1207.92 63.0397C1206.89 63.7293 1205.82 64.422 1204.72 65.1129C1204.73 64.4283 1204.74 63.737 1204.74 63.0397C1204.74 62.3425 1204.73 61.651 1204.72 60.9665ZM1203.41 58.6952C1203.36 57.3919 1203.3 56.12 1203.21 54.886C1202.1 55.43 1200.96 56.0091 1199.81 56.6214C1200.41 56.954 1201.01 57.2949 1201.62 57.6435C1202.22 57.9924 1202.82 58.3432 1203.41 58.6952ZM1203.21 71.1935C1202.1 70.6493 1200.96 70.0702 1199.81 69.458C1200.41 69.1253 1201.01 68.7845 1201.62 68.4359C1202.22 68.0871 1202.82 67.7362 1203.41 67.3841C1203.36 68.6875 1203.3 69.9595 1203.21 71.1935Z" fill="white"/>
<path fill-rule="evenodd" clip-rule="evenodd" d="M1180.58 55.1875C1181.67 55.1875 1182.55 56.0707 1182.55 57.1602C1182.55 58.2497 1181.67 59.1329 1180.58 59.1329C1179.49 59.1329 1178.61 58.2497 1178.61 57.1602C1178.61 56.0707 1179.49 55.1875 1180.58 55.1875Z" fill="white"/>
<path fill-rule="evenodd" clip-rule="evenodd" d="M1211.92 48.4316C1213.01 48.4316 1213.89 49.3148 1213.89 50.4043C1213.89 51.4938 1213.01 52.377 1211.92 52.377C1210.83 52.377 1209.94 51.4938 1209.94 50.4043C1209.94 49.3148 1210.83 48.4316 1211.92 48.4316Z" fill="white"/>
<path fill-rule="evenodd" clip-rule="evenodd" d="M1194.53 79.395C1195.62 79.395 1196.5 80.2779 1196.5 81.3668C1196.5 82.4558 1195.62 83.3386 1194.53 83.3386C1193.44 83.3386 1192.55 82.4558 1192.55 81.3668C1192.55 80.2779 1193.44 79.395 1194.53 79.395Z" fill="white"/>
<path fill-rule="evenodd" clip-rule="evenodd" d="M1198.39 59.6851C1200.24 59.6851 1201.73 61.1805 1201.73 63.025C1201.73 64.8696 1200.24 66.3649 1198.39 66.3649C1196.55 66.3649 1195.05 64.8696 1195.05 63.025C1195.05 61.1805 1196.55 59.6851 1198.39 59.6851Z" fill="white"/>
<g opacity="0.7">
<path d="M268.905 205.268C262.352 206.261 256.25 209.298 251.654 213.89C247.552 217.977 244.769 223.145 243.391 229.204C243.014 230.888 243 231.118 243 234.99C243 238.862 243.014 239.092 243.391 240.776C245.45 249.873 250.741 256.983 258.67 261.315C262.976 263.647 268.194 265 272.993 265C275.167 265 277.965 264.655 279.951 264.151C281.502 263.762 284.851 262.611 285.749 262.165C287.344 261.373 289.417 260.164 290.243 259.545C291.925 258.307 292.287 258.005 293.751 256.638C296.883 253.73 299.39 250.045 301.014 246.001C302.594 242.028 303 239.783 303 234.99C303 230.197 302.594 227.952 301.014 223.979C299.39 219.935 296.883 216.25 293.751 213.343C292.287 211.976 291.925 211.673 290.243 210.435C289.417 209.817 287.344 208.608 285.749 207.816C284.851 207.37 281.502 206.218 279.951 205.83C276.602 204.98 272.311 204.765 268.905 205.268ZM276.472 207.859C279.574 208.205 281.009 208.608 284.488 210.076C289.098 212.004 293.882 216.265 296.781 221.029C297.419 222.065 298.796 225.045 299.144 226.138C299.521 227.29 300.101 229.737 300.347 231.176C300.579 232.587 300.579 237.394 300.347 238.804C300.101 240.244 299.521 242.691 299.144 243.842C298.796 244.936 297.419 247.915 296.781 248.952C293.882 253.716 289.098 257.976 284.488 259.905C281.009 261.373 279.574 261.776 276.472 262.121C273.399 262.481 272.587 262.481 269.514 262.121C266.353 261.762 265.165 261.43 261.323 259.818C260.222 259.372 257.815 257.962 256.757 257.17C253.06 254.392 250.031 250.78 248.233 247.009C246.697 243.77 246.233 242.273 245.812 239.251C245.435 236.516 245.435 233.465 245.812 230.73C246.233 227.707 246.697 226.21 248.233 222.972C250.031 219.201 253.06 215.588 256.757 212.81C257.815 212.019 260.222 210.608 261.323 210.162C265.078 208.579 266.382 208.219 269.325 207.859C272.253 207.514 273.515 207.514 276.472 207.859Z" fill="white"/>
<path d="M271.935 217.502C267.325 218.078 263.672 220.122 261.628 223.259C260.569 224.886 260.395 225.519 260.395 227.721C260.395 229.376 260.439 229.794 260.714 230.571C261.396 232.485 262.715 234.184 264.556 235.565C265.455 236.242 269.383 238.214 270.847 238.718C271.471 238.934 272.92 239.581 274.08 240.143C275.819 241.006 276.327 241.337 277.139 242.114C278.24 243.194 278.632 243.856 278.864 245.094C279.255 247.31 277.979 248.778 274.805 249.757C272.34 250.52 268.876 249.987 265.658 248.361C264.889 247.987 263.034 246.562 262.005 245.598L261.323 244.935L260.497 245.713C260.033 246.144 259.642 246.504 259.613 246.519C259.236 246.663 261.903 249.023 263.57 250.016C266.122 251.556 267.6 252.074 270.441 252.492C272.21 252.737 274.747 252.578 277.052 252.06C282.096 250.937 285.691 247.987 286.547 244.288C286.822 243.108 286.663 240.833 286.213 239.639C284.938 236.156 282.241 234.011 275.472 231.089C271.935 229.549 269.499 227.793 268.716 226.21C268.238 225.26 268.136 223.389 268.499 222.669C268.876 221.935 269.427 221.417 270.383 220.884C272.645 219.632 275.414 219.647 278.603 220.913C280.154 221.532 281.502 222.453 283.082 223.979C283.749 224.612 284.329 225.116 284.387 225.102C284.43 225.073 284.851 224.713 285.315 224.296L286.141 223.547L285.3 222.64C283.662 220.884 282.27 219.848 280.096 218.754C278.153 217.79 274.355 217.214 271.935 217.502ZM265.759 223.259C265.556 224.497 265.832 225.908 266.542 227.419C267.209 228.786 268.136 229.779 269.949 231.017C270.949 231.708 274.645 233.565 276.762 234.443C277.24 234.644 278.472 235.292 279.487 235.897C282.372 237.595 283.72 239.25 284.097 241.539C284.401 243.453 283.908 245.022 282.531 246.447C281.314 247.728 281.198 247.757 281.386 246.763C281.575 245.741 281.328 244.129 280.806 242.762C280.473 241.927 280.212 241.567 279.313 240.675C278.197 239.567 277.11 238.79 275.863 238.156C274.66 237.566 270.224 235.637 270.035 235.637C269.789 235.637 268.223 234.846 266.846 234.011C265.614 233.263 264.469 232.226 263.846 231.32C263.295 230.499 262.86 228.57 262.961 227.289C263.077 225.634 263.498 224.713 264.686 223.461C265.252 222.871 265.759 222.396 265.803 222.396C265.861 222.396 265.846 222.784 265.759 223.259Z" fill="white"/>
</g>
<g opacity="0.7">
<path d="M126.857 620.402C117.029 621.892 107.874 626.448 100.981 633.335C94.8277 639.466 90.6528 647.217 88.5871 656.306C88.0217 658.832 88 659.178 88 664.985C88 670.793 88.0217 671.138 88.5871 673.664C91.6748 687.309 99.6115 697.974 111.506 704.473C117.964 707.971 125.792 710 132.989 710C136.251 710 140.447 709.482 143.426 708.726C145.753 708.143 150.776 706.416 152.124 705.747C154.516 704.559 157.626 702.746 158.865 701.817C161.387 699.961 161.931 699.507 164.127 697.456C168.824 693.095 172.586 687.568 175.021 681.501C177.391 675.543 178 672.175 178 664.985C178 657.796 177.391 654.428 175.021 648.469C172.586 642.402 168.824 636.875 164.127 632.514C161.931 630.463 161.387 630.01 158.865 628.153C157.626 627.225 154.516 625.411 152.124 624.224C150.776 623.555 145.753 621.827 143.426 621.244C138.403 619.971 131.967 619.647 126.857 620.402ZM138.208 624.289C142.861 624.807 145.014 625.411 150.232 627.613C157.147 630.506 164.323 636.897 168.672 644.043C169.628 645.598 171.694 650.067 172.216 651.708C172.781 653.435 173.651 657.105 174.021 659.264C174.369 661.38 174.369 668.591 174.021 670.707C173.651 672.866 172.781 676.536 172.216 678.263C171.694 679.904 169.628 684.373 168.672 685.927C164.323 693.074 157.147 699.464 150.232 702.357C145.014 704.559 142.861 705.164 138.208 705.682C133.598 706.222 132.38 706.222 127.77 705.682C123.03 705.142 121.247 704.646 115.485 702.228C113.832 701.558 110.223 699.443 108.635 698.255C103.091 694.088 98.546 688.669 95.8497 683.013C93.5448 678.155 92.849 675.91 92.2184 671.376C91.6531 667.274 91.6531 662.697 92.2184 658.595C92.849 654.061 93.5448 651.816 95.8497 646.958C98.546 641.301 103.091 635.882 108.635 631.715C110.223 630.528 113.832 628.412 115.485 627.743C121.117 625.368 123.074 624.828 127.488 624.289C131.88 623.77 133.772 623.77 138.208 624.289Z" fill="white"/>
<path d="M131.402 638.753C124.487 639.617 119.008 642.682 115.942 647.389C114.354 649.829 114.093 650.779 114.093 654.082C114.093 656.565 114.159 657.191 114.572 658.357C115.594 661.228 117.573 663.776 120.334 665.848C121.682 666.863 127.575 669.821 129.771 670.576C130.706 670.9 132.881 671.872 134.62 672.714C137.229 674.009 137.991 674.506 139.208 675.672C140.861 677.291 141.448 678.284 141.796 680.141C142.383 683.465 140.469 685.668 135.707 687.136C132.011 688.28 126.814 687.481 121.987 685.042C120.834 684.48 118.051 682.343 116.507 680.896L115.485 679.903L114.246 681.069C113.55 681.717 112.963 682.256 112.919 682.278C112.354 682.494 116.355 686.035 118.855 687.524C122.682 689.834 124.9 690.612 129.162 691.238C131.815 691.605 135.62 691.367 139.078 690.59C146.645 688.906 152.037 684.48 153.32 678.932C153.733 677.161 153.494 673.75 152.82 671.958C150.907 666.733 146.862 663.517 136.708 659.134C131.402 656.824 127.749 654.19 126.575 651.815C125.857 650.39 125.705 647.583 126.249 646.504C126.814 645.403 127.64 644.625 129.075 643.827C132.467 641.948 136.621 641.97 141.404 643.87C143.731 644.798 145.753 646.18 148.123 648.468C149.124 649.418 149.993 650.174 150.08 650.152C150.146 650.109 150.776 649.57 151.472 648.943L152.711 647.821L151.45 646.461C148.993 643.827 146.906 642.272 143.644 640.631C140.73 639.185 135.033 638.321 131.402 638.753ZM122.139 647.389C121.834 649.246 122.248 651.362 123.313 653.628C124.313 655.679 125.705 657.169 128.423 659.026C129.923 660.062 135.468 662.847 138.643 664.164C139.36 664.466 141.209 665.438 142.731 666.345C147.058 668.892 149.08 671.375 149.646 674.808C150.102 677.679 149.363 680.033 147.297 682.17C145.471 684.092 145.297 684.135 145.579 682.645C145.862 681.112 145.492 678.694 144.71 676.643C144.209 675.391 143.818 674.851 142.47 673.513C140.796 671.85 139.165 670.684 137.295 669.734C135.49 668.849 128.836 665.956 128.553 665.956C128.184 665.956 125.835 664.769 123.77 663.517C121.921 662.394 120.204 660.839 119.269 659.479C118.442 658.249 117.79 655.356 117.942 653.434C118.116 650.951 118.747 649.57 120.53 647.691C121.378 646.806 122.139 646.094 122.204 646.094C122.291 646.094 122.269 646.677 122.139 647.389Z" fill="white"/>
</g>
<g opacity="0.7">
<path d="M1223.9 738.268C1217.35 739.261 1211.25 742.298 1206.65 746.89C1202.55 750.977 1199.77 756.145 1198.39 762.204C1198.01 763.888 1198 764.118 1198 767.99C1198 771.862 1198.01 772.092 1198.39 773.776C1200.45 782.873 1205.74 789.983 1213.67 794.315C1217.98 796.647 1223.19 798 1227.99 798C1230.17 798 1232.96 797.655 1234.95 797.151C1236.5 796.762 1239.85 795.611 1240.75 795.165C1242.34 794.373 1244.42 793.164 1245.24 792.545C1246.92 791.307 1247.29 791.005 1248.75 789.638C1251.88 786.73 1254.39 783.045 1256.01 779.001C1257.59 775.028 1258 772.783 1258 767.99C1258 763.197 1257.59 760.952 1256.01 756.979C1254.39 752.935 1251.88 749.25 1248.75 746.343C1247.29 744.976 1246.92 744.673 1245.24 743.435C1244.42 742.817 1242.34 741.608 1240.75 740.816C1239.85 740.37 1236.5 739.218 1234.95 738.83C1231.6 737.98 1227.31 737.765 1223.9 738.268ZM1231.47 740.859C1234.57 741.205 1236.01 741.608 1239.49 743.076C1244.1 745.004 1248.88 749.265 1251.78 754.029C1252.42 755.065 1253.8 758.045 1254.14 759.138C1254.52 760.29 1255.1 762.737 1255.35 764.176C1255.58 765.587 1255.58 770.394 1255.35 771.804C1255.1 773.244 1254.52 775.691 1254.14 776.842C1253.8 777.936 1252.42 780.915 1251.78 781.952C1248.88 786.716 1244.1 790.976 1239.49 792.905C1236.01 794.373 1234.57 794.776 1231.47 795.121C1228.4 795.481 1227.59 795.481 1224.51 795.121C1221.35 794.762 1220.16 794.43 1216.32 792.818C1215.22 792.372 1212.82 790.962 1211.76 790.17C1208.06 787.392 1205.03 783.78 1203.23 780.009C1201.7 776.77 1201.23 775.273 1200.81 772.251C1200.44 769.516 1200.44 766.465 1200.81 763.73C1201.23 760.707 1201.7 759.21 1203.23 755.972C1205.03 752.201 1208.06 748.588 1211.76 745.81C1212.82 745.019 1215.22 743.608 1216.32 743.162C1220.08 741.579 1221.38 741.219 1224.33 740.859C1227.25 740.514 1228.51 740.514 1231.47 740.859Z" fill="white"/>
<path d="M1226.93 750.502C1222.32 751.078 1218.67 753.122 1216.63 756.259C1215.57 757.886 1215.4 758.519 1215.4 760.721C1215.4 762.376 1215.44 762.794 1215.71 763.571C1216.4 765.485 1217.71 767.184 1219.56 768.565C1220.45 769.242 1224.38 771.214 1225.85 771.718C1226.47 771.934 1227.92 772.581 1229.08 773.143C1230.82 774.006 1231.33 774.337 1232.14 775.114C1233.24 776.194 1233.63 776.856 1233.86 778.094C1234.26 780.31 1232.98 781.778 1229.8 782.757C1227.34 783.52 1223.88 782.987 1220.66 781.361C1219.89 780.987 1218.03 779.562 1217 778.598L1216.32 777.935L1215.5 778.713C1215.03 779.144 1214.64 779.504 1214.61 779.519C1214.24 779.663 1216.9 782.023 1218.57 783.016C1221.12 784.556 1222.6 785.074 1225.44 785.492C1227.21 785.737 1229.75 785.578 1232.05 785.06C1237.1 783.937 1240.69 780.987 1241.55 777.288C1241.82 776.108 1241.66 773.833 1241.21 772.639C1239.94 769.156 1237.24 767.011 1230.47 764.089C1226.93 762.549 1224.5 760.793 1223.72 759.21C1223.24 758.26 1223.14 756.389 1223.5 755.669C1223.88 754.935 1224.43 754.417 1225.38 753.884C1227.64 752.632 1230.41 752.647 1233.6 753.913C1235.15 754.532 1236.5 755.453 1238.08 756.979C1238.75 757.612 1239.33 758.116 1239.39 758.102C1239.43 758.073 1239.85 757.713 1240.31 757.296L1241.14 756.547L1240.3 755.64C1238.66 753.884 1237.27 752.848 1235.1 751.754C1233.15 750.79 1229.36 750.214 1226.93 750.502ZM1220.76 756.259C1220.56 757.497 1220.83 758.908 1221.54 760.419C1222.21 761.786 1223.14 762.779 1224.95 764.017C1225.95 764.708 1229.65 766.565 1231.76 767.443C1232.24 767.644 1233.47 768.292 1234.49 768.897C1237.37 770.595 1238.72 772.25 1239.1 774.539C1239.4 776.453 1238.91 778.022 1237.53 779.447C1236.31 780.728 1236.2 780.757 1236.39 779.763C1236.57 778.741 1236.33 777.129 1235.81 775.762C1235.47 774.927 1235.21 774.567 1234.31 773.675C1233.2 772.567 1232.11 771.79 1230.86 771.156C1229.66 770.566 1225.22 768.637 1225.04 768.637C1224.79 768.637 1223.22 767.846 1221.85 767.011C1220.61 766.263 1219.47 765.226 1218.85 764.32C1218.29 763.499 1217.86 761.57 1217.96 760.289C1218.08 758.634 1218.5 757.713 1219.69 756.461C1220.25 755.871 1220.76 755.396 1220.8 755.396C1220.86 755.396 1220.85 755.784 1220.76 756.259Z" fill="white"/>
</g>
<g opacity="0.7">
<path d="M557 634.533V710.066H567.332H577.665V634.533V559H567.332H557V634.533Z" fill="white"/>
<path d="M638.234 573.394C632.177 581.304 619.137 598.334 609.232 611.161L591.275 634.533L617.07 667.882C631.25 686.195 644.433 703.154 646.286 705.648L649.706 710.066H662.889C670.086 710.066 676 709.923 676 709.71C676 709.496 663.102 692.679 647.354 672.442C631.607 652.205 618.709 635.174 618.709 634.533C618.709 633.963 631.393 616.861 646.998 596.553C662.532 576.316 675.287 559.57 675.287 559.356C675.287 559.143 669.444 559 662.247 559H649.207L638.234 573.394Z" fill="white"/>
</g>
<g opacity="0.7">
<path d="M1470.33 56.6663C1454.06 59.1325 1438.9 66.6743 1427.49 78.0764C1417.3 88.2274 1410.39 101.059 1406.97 116.107C1406.04 120.289 1406 120.861 1406 130.476C1406 140.091 1406.04 140.662 1406.97 144.844C1412.08 167.434 1425.22 185.091 1444.91 195.85C1455.61 201.64 1468.57 205 1480.48 205C1485.88 205 1492.83 204.142 1497.76 202.891C1501.61 201.926 1509.93 199.067 1512.16 197.959C1516.12 195.993 1521.27 192.99 1523.32 191.453C1527.5 188.379 1528.4 187.629 1532.03 184.233C1539.81 177.013 1546.04 167.863 1550.07 157.819C1553.99 147.954 1555 142.378 1555 130.476C1555 118.573 1553.99 112.997 1550.07 103.132C1546.04 93.0884 1539.81 83.9382 1532.03 76.7181C1528.4 73.3226 1527.5 72.572 1523.32 69.498C1521.27 67.9611 1516.12 64.9587 1512.16 62.9928C1509.93 61.8848 1501.61 59.0253 1497.76 58.0603C1489.45 55.9514 1478.79 55.4153 1470.33 56.6663ZM1489.12 63.1C1496.83 63.9579 1500.39 64.9587 1509.03 68.6045C1520.48 73.394 1532.36 83.974 1539.56 95.8049C1541.14 98.3784 1544.56 105.777 1545.42 108.494C1546.36 111.353 1547.8 117.429 1548.41 121.004C1548.99 124.507 1548.99 136.445 1548.41 139.948C1547.8 143.522 1546.36 149.598 1545.42 152.458C1544.56 155.174 1541.14 162.573 1539.56 165.146C1532.36 176.977 1520.48 187.557 1509.03 192.347C1500.39 195.993 1496.83 196.994 1489.12 197.851C1481.49 198.745 1479.47 198.745 1471.84 197.851C1463.99 196.958 1461.04 196.136 1451.5 192.132C1448.77 191.024 1442.79 187.522 1440.16 185.556C1430.98 178.657 1423.46 169.686 1419 160.321C1415.18 152.279 1414.03 148.562 1412.98 141.056C1412.05 134.264 1412.05 126.687 1412.98 119.896C1414.03 112.39 1415.18 108.672 1419 100.63C1423.46 91.2656 1430.98 82.2941 1440.16 75.3957C1442.79 73.4298 1448.77 69.927 1451.5 68.8189C1460.83 64.8872 1464.07 63.9936 1471.37 63.1C1478.65 62.2422 1481.78 62.2422 1489.12 63.1Z" fill="white"/>
<path d="M1477.85 87.0469C1466.41 88.4766 1457.33 93.5521 1452.26 101.344C1449.63 105.383 1449.2 106.956 1449.2 112.424C1449.2 116.535 1449.31 117.571 1449.99 119.502C1451.68 124.255 1454.96 128.473 1459.53 131.904C1461.76 133.584 1471.52 138.481 1475.15 139.732C1476.7 140.268 1480.3 141.877 1483.18 143.271C1487.5 145.415 1488.76 146.237 1490.78 148.168C1493.51 150.848 1494.49 152.492 1495.06 155.566C1496.03 161.071 1492.87 164.717 1484.98 167.147C1478.86 169.041 1470.26 167.719 1462.27 163.68C1460.36 162.751 1455.75 159.212 1453.19 156.817L1451.5 155.173L1449.45 157.103C1448.3 158.176 1447.33 159.069 1447.25 159.105C1446.32 159.462 1452.94 165.324 1457.08 167.79C1463.42 171.615 1467.09 172.902 1474.15 173.938C1478.54 174.546 1484.84 174.153 1490.56 172.866C1503.09 170.078 1512.02 162.751 1514.14 153.565C1514.83 150.634 1514.43 144.986 1513.31 142.02C1510.15 133.37 1503.45 128.044 1486.64 120.788C1477.85 116.964 1471.81 112.603 1469.86 108.671C1468.67 106.312 1468.42 101.666 1469.32 99.8786C1470.26 98.0557 1471.63 96.769 1474 95.4465C1479.62 92.3368 1486.49 92.3726 1494.41 95.518C1498.27 97.0549 1501.61 99.3425 1505.54 103.131C1507.19 104.704 1508.63 105.955 1508.78 105.919C1508.89 105.848 1509.93 104.954 1511.08 103.918L1513.13 102.059L1511.05 99.8071C1506.98 95.4465 1503.52 92.873 1498.12 90.1565C1493.3 87.7618 1483.87 86.332 1477.85 87.0469ZM1462.52 101.344C1462.01 104.418 1462.7 107.921 1464.46 111.674C1466.12 115.069 1468.42 117.536 1472.92 120.61C1475.41 122.325 1484.59 126.936 1489.84 129.116C1491.03 129.617 1494.09 131.225 1496.61 132.727C1503.77 136.944 1507.12 141.055 1508.06 146.738C1508.81 151.492 1507.59 155.388 1504.17 158.926C1501.15 162.107 1500.86 162.179 1501.33 159.713C1501.79 157.175 1501.18 153.172 1499.89 149.776C1499.06 147.703 1498.41 146.809 1496.18 144.593C1493.41 141.841 1490.71 139.911 1487.61 138.338C1484.62 136.873 1473.61 132.083 1473.14 132.083C1472.53 132.083 1468.64 130.117 1465.22 128.044C1462.16 126.186 1459.31 123.612 1457.77 121.36C1456.4 119.323 1455.32 114.533 1455.57 111.352C1455.86 107.242 1456.9 104.954 1459.85 101.844C1461.26 100.379 1462.52 99.1995 1462.63 99.1995C1462.77 99.1995 1462.73 100.165 1462.52 101.344Z" fill="white"/>
</g>
<g opacity="0.7">
<path fill-rule="evenodd" clip-rule="evenodd" d="M487.021 89.44C487.021 84.7787 490.807 81 495.478 81C500.148 81 503.935 84.7787 503.935 89.44V126.397L531.456 97.048C534.648 93.6447 540 93.4677 543.411 96.6528C546.821 99.8379 546.997 105.179 543.806 108.582L514.271 140.078H558.905C563.576 140.078 567.362 143.856 567.362 148.518C567.362 153.179 563.576 156.958 558.905 156.958H515.681L545.219 188.456C548.411 191.859 548.233 197.201 544.823 200.386C541.413 203.571 536.061 203.394 532.87 199.99L503.935 169.135V249.799H519.443C524.114 249.799 527.9 253.578 527.9 258.239C527.9 262.901 524.114 266.679 519.443 266.679H503.935V283.56C503.935 288.221 500.148 292 495.478 292C490.807 292 487.021 288.221 487.021 283.56V266.679H471.519C466.849 266.679 463.062 262.901 463.062 258.239C463.062 253.578 466.849 249.799 471.519 249.799H487.021V169.137L458.088 199.99C454.896 203.394 449.544 203.571 446.134 200.386C442.724 197.201 442.546 191.859 445.738 188.456L475.276 156.958H433.457C428.786 156.958 425 153.179 425 148.518C425 143.856 428.786 140.078 433.457 140.078H476.686L447.151 108.582C443.959 105.179 444.137 99.8379 447.547 96.6528C450.957 93.4677 456.309 93.6447 459.501 97.048L487.021 126.395V89.44Z" fill="white"/>
</g>
<g opacity="0.7">
<path fill-rule="evenodd" clip-rule="evenodd" d="M972.372 586.92C972.372 585.307 973.677 584 975.286 584C976.896 584 978.201 585.307 978.201 586.92V599.706L987.684 589.552C988.784 588.375 990.628 588.313 991.804 589.415C992.979 590.517 993.04 592.365 991.94 593.543L981.762 604.439H997.143C998.752 604.439 1000.06 605.746 1000.06 607.359C1000.06 608.972 998.752 610.279 997.143 610.279H982.248L992.427 621.177C993.527 622.354 993.466 624.202 992.29 625.304C991.115 626.406 989.271 626.345 988.171 625.167L978.201 614.492V642.4H983.545C985.154 642.4 986.459 643.707 986.459 645.32C986.459 646.933 985.154 648.24 983.545 648.24H978.201V654.08C978.201 655.693 976.896 657 975.286 657C973.677 657 972.372 655.693 972.372 654.08V648.24H967.03C965.421 648.24 964.116 646.933 964.116 645.32C964.116 643.707 965.421 642.4 967.03 642.4H972.372V614.493L962.402 625.167C961.302 626.345 959.458 626.406 958.283 625.304C957.108 624.202 957.046 622.354 958.146 621.177L968.325 610.279H953.914C952.305 610.279 951 608.972 951 607.359C951 605.746 952.305 604.439 953.914 604.439H968.811L958.633 593.543C957.533 592.365 957.594 590.517 958.77 589.415C959.945 588.313 961.789 588.375 962.889 589.552L972.372 599.705V586.92Z" fill="white"/>
</g>
<g opacity="0.7">
<path fill-rule="evenodd" clip-rule="evenodd" d="M21.372 443.92C21.372 442.307 22.6767 441 24.2863 441C25.8958 441 27.2006 442.307 27.2006 443.92V456.706L36.6843 446.552C37.7841 445.375 39.6285 445.313 40.8036 446.415C41.9788 447.517 42.0397 449.365 40.9399 450.543L30.7624 461.439H46.143C47.7524 461.439 49.0573 462.746 49.0573 464.359C49.0573 465.972 47.7524 467.279 46.143 467.279H31.2482L41.4269 478.177C42.5267 479.354 42.4655 481.202 41.2903 482.304C40.1151 483.406 38.2711 483.345 37.1713 482.167L27.2006 471.492V499.4H32.5447C34.1542 499.4 35.459 500.707 35.459 502.32C35.459 503.933 34.1542 505.24 32.5447 505.24H27.2006V511.08C27.2006 512.693 25.8958 514 24.2863 514C22.6767 514 21.372 512.693 21.372 511.08V505.24H16.0304C14.4209 505.24 13.1161 503.933 13.1161 502.32C13.1161 500.707 14.4209 499.4 16.0304 499.4H21.372V471.493L11.4019 482.167C10.3021 483.345 8.45788 483.406 7.28269 482.304C6.10754 481.202 6.04641 479.354 7.14623 478.177L17.3249 467.279H2.91429C1.30477 467.279 0 465.972 0 464.359C0 462.746 1.30477 461.439 2.91429 461.439H17.8107L7.6331 450.543C6.53332 449.365 6.59441 447.517 7.76959 446.415C8.94474 445.313 10.789 445.375 11.8888 446.552L21.372 456.705V443.92Z" fill="white"/>
</g>
</g>
</svg>
